{
	"asset":{
		"generator":"Khronos glTF Blender I/O v4.3.47",
		"version":"2.0"
	},
	"scene":0,
	"scenes":[
		{
			"name":"Scene",
			"nodes":[
				0
			]
		}
	],
	"nodes":[
		{
			"mesh":0,
			"name":"pCube149",
			"rotation":[
				0.7071068286895752,
				0,
				0,
				0.7071068286895752
			],
			"scale":[
				0.17967715859413147,
				0.17967715859413147,
				0.17967715859413147
			]
		}
	],
	"materials":[
		{
			"doubleSided":true,
			"name":"baikini",
			"pbrMetallicRoughness":{
				"baseColorFactor":[
					0.5,
					0.1646142601966858,
					0.06400001049041748,
					1
				],
				"metallicFactor":0,
				"roughnessFactor":0.5527864098548889
			}
		},
		{
			"doubleSided":true,
			"name":"body2",
			"pbrMetallicRoughness":{
				"baseColorFactor":[
					0.09950000047683716,
					0.3459610342979431,
					0.5,
					1
				],
				"metallicFactor":0,
				"roughnessFactor":0.5527864098548889
			}
		},
		{
			"doubleSided":true,
			"name":"eyeball",
			"pbrMetallicRoughness":{
				"baseColorFactor":[
					0.014829282648861408,
					0.009240000508725643,
					0.029999999329447746,
					1
				],
				"metallicFactor":0,
				"roughnessFactor":0.5527864098548889
			}
		},
		{
			"doubleSided":true,
			"name":"lips",
			"pbrMetallicRoughness":{
				"baseColorFactor":[
					0.29706600308418274,
					0.29706600308418274,
					0.6430000066757202,
					1
				],
				"metallicFactor":0,
				"roughnessFactor":0.5527864098548889
			}
		},
		{
			"doubleSided":true,
			"name":"standardSurface1.001",
			"pbrMetallicRoughness":{
				"metallicFactor":0,
				"roughnessFactor":0.5527864098548889
			}
		},
		{
			"doubleSided":true,
			"name":"fin2",
			"pbrMetallicRoughness":{
				"baseColorFactor":[
					0.3978857696056366,
					0.5,
					0.20500001311302185,
					1
				],
				"metallicFactor":0,
				"roughnessFactor":0.5527864098548889
			}
		},
		{
			"doubleSided":true,
			"name":"chain",
			"pbrMetallicRoughness":{
				"baseColorFactor":[
					0.421999990940094,
					0.2521630823612213,
					0.05401600897312164,
					1
				],
				"metallicFactor":0,
				"roughnessFactor":0.5527864098548889
			}
		},
		{
			"doubleSided":true,
			"name":"mermaidBody",
			"pbrMetallicRoughness":{
				"baseColorFactor":[
					0.18900001049041748,
					0.5,
					0.4282315969467163,
					1
				],
				"metallicFactor":0,
				"roughnessFactor":0.5527864098548889
			}
		},
		{
			"doubleSided":true,
			"name":"fin1",
			"pbrMetallicRoughness":{
				"baseColorFactor":[
					0.1665000021457672,
					0.5,
					0.23063763976097107,
					1
				],
				"metallicFactor":0,
				"roughnessFactor":0.5527864098548889
			}
		},
		{
			"doubleSided":true,
			"name":"bikiniString",
			"pbrMetallicRoughness":{
				"baseColorFactor":[
					0.5,
					0.16049998998641968,
					0.278018057346344,
					1
				],
				"metallicFactor":0,
				"roughnessFactor":0.5527864098548889
			}
		},
		{
			"doubleSided":true,
			"name":"bikini2",
			"pbrMetallicRoughness":{
				"baseColorFactor":[
					0.5,
					0.10600000619888306,
					0.10600000619888306,
					1
				],
				"metallicFactor":0,
				"roughnessFactor":0.5527864098548889
			}
		},
		{
			"doubleSided":true,
			"name":"star",
			"pbrMetallicRoughness":{
				"baseColorFactor":[
					1,
					0.4229999780654907,
					0.4895763397216797,
					1
				],
				"metallicFactor":0,
				"roughnessFactor":0.5527864098548889
			}
		}
	],
	"meshes":[
		{
			"name":"Mesh",
			"primitives":[
				{
					"attributes":{
						"POSITION":0,
						"NORMAL":1,
						"TEXCOORD_0":2
					},
					"indices":3,
					"material":0
				},
				{
					"attributes":{
						"POSITION":4,
						"NORMAL":5,
						"TEXCOORD_0":6
					},
					"indices":7,
					"material":1
				},
				{
					"attributes":{
						"POSITION":8,
						"NORMAL":9,
						"TEXCOORD_0":10
					},
					"indices":11,
					"material":2
				},
				{
					"attributes":{
						"POSITION":12,
						"NORMAL":13,
						"TEXCOORD_0":14
					},
					"indices":15,
					"material":3
				},
				{
					"attributes":{
						"POSITION":16,
						"NORMAL":17,
						"TEXCOORD_0":18
					},
					"indices":19,
					"material":4
				},
				{
					"attributes":{
						"POSITION":20,
						"NORMAL":21,
						"TEXCOORD_0":22
					},
					"indices":23,
					"material":5
				},
				{
					"attributes":{
						"POSITION":24,
						"NORMAL":25,
						"TEXCOORD_0":26
					},
					"indices":27,
					"material":6
				},
				{
					"attributes":{
						"POSITION":28,
						"NORMAL":29,
						"TEXCOORD_0":30
					},
					"indices":31,
					"material":7
				},
				{
					"attributes":{
						"POSITION":32,
						"NORMAL":33,
						"TEXCOORD_0":34
					},
					"indices":35,
					"material":8
				},
				{
					"attributes":{
						"POSITION":36,
						"NORMAL":37,
						"TEXCOORD_0":38
					},
					"indices":39,
					"material":9
				},
				{
					"attributes":{
						"POSITION":40,
						"NORMAL":41,
						"TEXCOORD_0":42
					},
					"indices":43,
					"material":10
				},
				{
					"attributes":{
						"POSITION":44,
						"NORMAL":45,
						"TEXCOORD_0":46
					},
					"indices":47,
					"material":11
				}
			]
		}
	],
	"accessors":[
		{
			"bufferView":0,
			"componentType":5126,
			"count":8196,
			"max":[
				-6.620627403259277,
				4.461688995361328,
				-27.206789016723633
			],
			"min":[
				-11.809732437133789,
				2.938551187515259,
				-30.026111602783203
			],
			"type":"VEC3"
		},
		{
			"bufferView":1,
			"componentType":5126,
			"count":8196,
			"type":"VEC3"
		},
		{
			"bufferView":2,
			"componentType":5126,
			"count":8196,
			"type":"VEC2"
		},
		{
			"bufferView":3,
			"componentType":5123,
			"count":49152,
			"type":"SCALAR"
		},
		{
			"bufferView":4,
			"componentType":5126,
			"count":21626,
			"max":[
				13.664031028747559,
				5.933401107788086,
				-2.179340362548828
			],
			"min":[
				-14.231627464294434,
				-6.891589641571045,
				-37.18864822387695
			],
			"type":"VEC3"
		},
		{
			"bufferView":5,
			"componentType":5126,
			"count":21626,
			"type":"VEC3"
		},
		{
			"bufferView":6,
			"componentType":5126,
			"count":21626,
			"type":"VEC2"
		},
		{
			"bufferView":7,
			"componentType":5123,
			"count":128052,
			"type":"SCALAR"
		},
		{
			"bufferView":8,
			"componentType":5126,
			"count":468,
			"max":[
				-5.689062118530273,
				3.6503729820251465,
				-34.1011962890625
			],
			"min":[
				-8.618547439575195,
				-4.051759719848633,
				-36.04637145996094
			],
			"type":"VEC3"
		},
		{
			"bufferView":9,
			"componentType":5126,
			"count":468,
			"type":"VEC3"
		},
		{
			"bufferView":10,
			"componentType":5126,
			"count":468,
			"type":"VEC2"
		},
		{
			"bufferView":11,
			"componentType":5123,
			"count":2130,
			"type":"SCALAR"
		},
		{
			"bufferView":12,
			"componentType":5126,
			"count":3007,
			"max":[
				-4.592397689819336,
				4.075340747833252,
				-32.92742156982422
			],
			"min":[
				-8.967096328735352,
				-4.487472057342529,
				-37.061859130859375
			],
			"type":"VEC3"
		},
		{
			"bufferView":13,
			"componentType":5126,
			"count":3007,
			"type":"VEC3"
		},
		{
			"bufferView":14,
			"componentType":5126,
			"count":3007,
			"type":"VEC2"
		},
		{
			"bufferView":15,
			"componentType":5123,
			"count":15984,
			"type":"SCALAR"
		},
		{
			"bufferView":16,
			"componentType":5126,
			"count":116,
			"max":[
				-5.9627790451049805,
				2.6384496688842773,
				-34.08941650390625
			],
			"min":[
				-8.308241844177246,
				-3.051135540008545,
				-34.8554801940918
			],
			"type":"VEC3"
		},
		{
			"bufferView":17,
			"componentType":5126,
			"count":116,
			"type":"VEC3"
		},
		{
			"bufferView":18,
			"componentType":5126,
			"count":116,
			"type":"VEC2"
		},
		{
			"bufferView":19,
			"componentType":5123,
			"count":498,
			"type":"SCALAR"
		},
		{
			"bufferView":20,
			"componentType":5126,
			"count":32782,
			"max":[
				9.087149620056152,
				4.41908597946167,
				-4.706192970275879
			],
			"min":[
				-16.949275970458984,
				-4.152796745300293,
				-39.89450454711914
			],
			"type":"VEC3"
		},
		{
			"bufferView":21,
			"componentType":5126,
			"count":32782,
			"type":"VEC3"
		},
		{
			"bufferView":22,
			"componentType":5126,
			"count":32782,
			"type":"VEC2"
		},
		{
			"bufferView":23,
			"componentType":5123,
			"count":196608,
			"type":"SCALAR"
		},
		{
			"bufferView":24,
			"componentType":5126,
			"count":17149,
			"max":[
				12.295557022094727,
				3.362251043319702,
				-12.499675750732422
			],
			"min":[
				-16.223909378051758,
				-7.343780517578125,
				-39.43965530395508
			],
			"type":"VEC3"
		},
		{
			"bufferView":25,
			"componentType":5126,
			"count":17149,
			"type":"VEC3"
		},
		{
			"bufferView":26,
			"componentType":5126,
			"count":17149,
			"type":"VEC2"
		},
		{
			"bufferView":27,
			"componentType":5123,
			"count":92520,
			"type":"SCALAR"
		},
		{
			"bufferView":28,
			"componentType":5126,
			"count":31221,
			"max":[
				2.507841110229492,
				6.462319850921631,
				-12.60792350769043
			],
			"min":[
				-15.140983581542969,
				-3.7552742958068848,
				-38.757530212402344
			],
			"type":"VEC3"
		},
		{
			"bufferView":29,
			"componentType":5126,
			"count":31221,
			"type":"VEC3"
		},
		{
			"bufferView":30,
			"componentType":5126,
			"count":31221,
			"type":"VEC2"
		},
		{
			"bufferView":31,
			"componentType":5123,
			"count":186936,
			"type":"SCALAR"
		},
		{
			"bufferView":32,
			"componentType":5126,
			"count":23334,
			"max":[
				4.092456817626953,
				2.9367668628692627,
				-6.073812007904053
			],
			"min":[
				-12.996379852294922,
				-4.552056789398193,
				-40.811790466308594
			],
			"type":"VEC3"
		},
		{
			"bufferView":33,
			"componentType":5126,
			"count":23334,
			"type":"VEC3"
		},
		{
			"bufferView":34,
			"componentType":5126,
			"count":23334,
			"type":"VEC2"
		},
		{
			"bufferView":35,
			"componentType":5123,
			"count":139836,
			"type":"SCALAR"
		},
		{
			"bufferView":36,
			"componentType":5126,
			"count":14449,
			"max":[
				-3.40311861038208,
				4.748289108276367,
				-18.943071365356445
			],
			"min":[
				-13.26056957244873,
				-3.3491716384887695,
				-32.28681182861328
			],
			"type":"VEC3"
		},
		{
			"bufferView":37,
			"componentType":5126,
			"count":14449,
			"type":"VEC3"
		},
		{
			"bufferView":38,
			"componentType":5126,
			"count":14449,
			"type":"VEC2"
		},
		{
			"bufferView":39,
			"componentType":5123,
			"count":76368,
			"type":"SCALAR"
		},
		{
			"bufferView":40,
			"componentType":5126,
			"count":14258,
			"max":[
				-6.056588649749756,
				5.245975971221924,
				-17.679889678955078
			],
			"min":[
				-10.91556453704834,
				-2.650219678878784,
				-22.752429962158203
			],
			"type":"VEC3"
		},
		{
			"bufferView":41,
			"componentType":5126,
			"count":14258,
			"type":"VEC3"
		},
		{
			"bufferView":42,
			"componentType":5126,
			"count":14258,
			"type":"VEC2"
		},
		{
			"bufferView":43,
			"componentType":5123,
			"count":82944,
			"type":"SCALAR"
		},
		{
			"bufferView":44,
			"componentType":5126,
			"count":1202,
			"max":[
				12.479140281677246,
				3.824469566345215,
				-11.729966163635254
			],
			"min":[
				-9.586316108703613,
				-6.496998310089111,
				-30.816322326660156
			],
			"type":"VEC3"
		},
		{
			"bufferView":45,
			"componentType":5126,
			"count":1202,
			"type":"VEC3"
		},
		{
			"bufferView":46,
			"componentType":5126,
			"count":1202,
			"type":"VEC2"
		},
		{
			"bufferView":47,
			"componentType":5123,
			"count":5388,
			"type":"SCALAR"
		}
	],
	"bufferViews":[
		{
			"buffer":0,
			"byteLength":98352,
			"byteOffset":0,
			"target":34962
		},
		{
			"buffer":0,
			"byteLength":98352,
			"byteOffset":98352,
			"target":34962
		},
		{
			"buffer":0,
			"byteLength":65568,
			"byteOffset":196704,
			"target":34962
		},
		{
			"buffer":0,
			"byteLength":98304,
			"byteOffset":262272,
			"target":34963
		},
		{
			"buffer":0,
			"byteLength":259512,
			"byteOffset":360576,
			"target":34962
		},
		{
			"buffer":0,
			"byteLength":259512,
			"byteOffset":620088,
			"target":34962
		},
		{
			"buffer":0,
			"byteLength":173008,
			"byteOffset":879600,
			"target":34962
		},
		{
			"buffer":0,
			"byteLength":256104,
			"byteOffset":1052608,
			"target":34963
		},
		{
			"buffer":0,
			"byteLength":5616,
			"byteOffset":1308712,
			"target":34962
		},
		{
			"buffer":0,
			"byteLength":5616,
			"byteOffset":1314328,
			"target":34962
		},
		{
			"buffer":0,
			"byteLength":3744,
			"byteOffset":1319944,
			"target":34962
		},
		{
			"buffer":0,
			"byteLength":4260,
			"byteOffset":1323688,
			"target":34963
		},
		{
			"buffer":0,
			"byteLength":36084,
			"byteOffset":1327948,
			"target":34962
		},
		{
			"buffer":0,
			"byteLength":36084,
			"byteOffset":1364032,
			"target":34962
		},
		{
			"buffer":0,
			"byteLength":24056,
			"byteOffset":1400116,
			"target":34962
		},
		{
			"buffer":0,
			"byteLength":31968,
			"byteOffset":1424172,
			"target":34963
		},
		{
			"buffer":0,
			"byteLength":1392,
			"byteOffset":1456140,
			"target":34962
		},
		{
			"buffer":0,
			"byteLength":1392,
			"byteOffset":1457532,
			"target":34962
		},
		{
			"buffer":0,
			"byteLength":928,
			"byteOffset":1458924,
			"target":34962
		},
		{
			"buffer":0,
			"byteLength":996,
			"byteOffset":1459852,
			"target":34963
		},
		{
			"buffer":0,
			"byteLength":393384,
			"byteOffset":1460848,
			"target":34962
		},
		{
			"buffer":0,
			"byteLength":393384,
			"byteOffset":1854232,
			"target":34962
		},
		{
			"buffer":0,
			"byteLength":262256,
			"byteOffset":2247616,
			"target":34962
		},
		{
			"buffer":0,
			"byteLength":393216,
			"byteOffset":2509872,
			"target":34963
		},
		{
			"buffer":0,
			"byteLength":205788,
			"byteOffset":2903088,
			"target":34962
		},
		{
			"buffer":0,
			"byteLength":205788,
			"byteOffset":3108876,
			"target":34962
		},
		{
			"buffer":0,
			"byteLength":137192,
			"byteOffset":3314664,
			"target":34962
		},
		{
			"buffer":0,
			"byteLength":185040,
			"byteOffset":3451856,
			"target":34963
		},
		{
			"buffer":0,
			"byteLength":374652,
			"byteOffset":3636896,
			"target":34962
		},
		{
			"buffer":0,
			"byteLength":374652,
			"byteOffset":4011548,
			"target":34962
		},
		{
			"buffer":0,
			"byteLength":249768,
			"byteOffset":4386200,
			"target":34962
		},
		{
			"buffer":0,
			"byteLength":373872,
			"byteOffset":4635968,
			"target":34963
		},
		{
			"buffer":0,
			"byteLength":280008,
			"byteOffset":5009840,
			"target":34962
		},
		{
			"buffer":0,
			"byteLength":280008,
			"byteOffset":5289848,
			"target":34962
		},
		{
			"buffer":0,
			"byteLength":186672,
			"byteOffset":5569856,
			"target":34962
		},
		{
			"buffer":0,
			"byteLength":279672,
			"byteOffset":5756528,
			"target":34963
		},
		{
			"buffer":0,
			"byteLength":173388,
			"byteOffset":6036200,
			"target":34962
		},
		{
			"buffer":0,
			"byteLength":173388,
			"byteOffset":6209588,
			"target":34962
		},
		{
			"buffer":0,
			"byteLength":115592,
			"byteOffset":6382976,
			"target":34962
		},
		{
			"buffer":0,
			"byteLength":152736,
			"byteOffset":6498568,
			"target":34963
		},
		{
			"buffer":0,
			"byteLength":171096,
			"byteOffset":6651304,
			"target":34962
		},
		{
			"buffer":0,
			"byteLength":171096,
			"byteOffset":6822400,
			"target":34962
		},
		{
			"buffer":0,
			"byteLength":114064,
			"byteOffset":6993496,
			"target":34962
		},
		{
			"buffer":0,
			"byteLength":165888,
			"byteOffset":7107560,
			"target":34963
		},
		{
			"buffer":0,
			"byteLength":14424,
			"byteOffset":7273448,
			"target":34962
		},
		{
			"buffer":0,
			"byteLength":14424,
			"byteOffset":7287872,
			"target":34962
		},
		{
			"buffer":0,
			"byteLength":9616,
			"byteOffset":7302296,
			"target":34962
		},
		{
			"buffer":0,
			"byteLength":10776,
			"byteOffset":7311912,
			"target":34963
		}
	],
	"buffers":[
		{
			"byteLength":7322688,
			"uri":"bikini.bin"
		}
	]
}
