{
	"asset":{
		"generator":"Khronos glTF Blender I/O v4.3.47",
		"version":"2.0"
	},
	"extensionsUsed":[
		"KHR_materials_specular",
		"KHR_materials_ior"
	],
	"scene":0,
	"scenes":[
		{
			"name":"Scene",
			"nodes":[
				0
			]
		}
	],
	"nodes":[
		{
			"mesh":0,
			"name":"box2",
			"rotation":[
				0.685817301273346,
				0.17220540344715118,
				-0.17220540344715118,
				0.6858172416687012
			],
			"scale":[
				2.09940767288208,
				3.3063790798187256,
				2.1614768505096436
			],
			"translation":[
				-0.7990102767944336,
				1.231566071510315,
				1.0652209520339966
			]
		}
	],
	"materials":[
		{
			"doubleSided":true,
			"extensions":{
				"KHR_materials_specular":{
					"specularColorTexture":{
						"index":0
					}
				},
				"KHR_materials_ior":{
					"ior":1.4500000476837158
				}
			},
			"name":"boxMaterial1.001",
			"pbrMetallicRoughness":{
				"baseColorTexture":{
					"index":1
				},
				"metallicRoughnessTexture":{
					"index":2
				},
				"roughnessFactor":0.5118768811225891
			}
		}
	],
	"meshes":[
		{
			"name":"Mesh.004",
			"primitives":[
				{
					"attributes":{
						"POSITION":0,
						"NORMAL":1,
						"TEXCOORD_0":2
					},
					"indices":3,
					"material":0
				}
			]
		}
	],
	"textures":[
		{
			"sampler":0,
			"source":0
		},
		{
			"sampler":0,
			"source":1
		},
		{
			"sampler":0,
			"source":2
		}
	],
	"images":[
		{
			"mimeType":"image/png",
			"name":"Image",
			"uri":"Image.png"
		},
		{
			"mimeType":"image/png",
			"name":"box2_boxMaterial1_BaseColor",
			"uri":"box2_boxMaterial1_BaseColor.png"
		},
		{
			"mimeType":"image/png",
			"name":"box2_boxMaterial1_Metallic",
			"uri":"box2_boxMaterial1_Metallic.png"
		}
	],
	"accessors":[
		{
			"bufferView":0,
			"componentType":5126,
			"count":254,
			"max":[
				0.7853056192398071,
				0.6831746697425842,
				0.5
			],
			"min":[
				-0.747272253036499,
				-0.7135520577430725,
				-0.8580875396728516
			],
			"type":"VEC3"
		},
		{
			"bufferView":1,
			"componentType":5126,
			"count":254,
			"type":"VEC3"
		},
		{
			"bufferView":2,
			"componentType":5126,
			"count":254,
			"type":"VEC2"
		},
		{
			"bufferView":3,
			"componentType":5123,
			"count":660,
			"type":"SCALAR"
		}
	],
	"bufferViews":[
		{
			"buffer":0,
			"byteLength":3048,
			"byteOffset":0,
			"target":34962
		},
		{
			"buffer":0,
			"byteLength":3048,
			"byteOffset":3048,
			"target":34962
		},
		{
			"buffer":0,
			"byteLength":2032,
			"byteOffset":6096,
			"target":34962
		},
		{
			"buffer":0,
			"byteLength":1320,
			"byteOffset":8128,
			"target":34963
		}
	],
	"samplers":[
		{
			"magFilter":9729,
			"minFilter":9987
		}
	],
	"buffers":[
		{
			"byteLength":9448,
			"uri":"box.bin"
		}
	]
}
