{
	"asset":{
		"generator":"Khronos glTF Blender I/O v4.3.47",
		"version":"2.0"
	},
	"scene":0,
	"scenes":[
		{
			"name":"Scene",
			"nodes":[
				0
			]
		}
	],
	"nodes":[
		{
			"mesh":0,
			"name":"pCylinder13",
			"rotation":[
				0.7071067690849304,
				0,
				0,
				0.7071068286895752
			],
			"scale":[
				0.21790438890457153,
				0.21790438890457153,
				0.21790438890457153
			]
		}
	],
	"materials":[
		{
			"doubleSided":true,
			"name":"chair2",
			"pbrMetallicRoughness":{
				"baseColorFactor":[
					0.45953741669654846,
					0.5,
					0.2369999885559082,
					1
				],
				"metallicFactor":0,
				"roughnessFactor":0.5527864098548889
			}
		},
		{
			"doubleSided":true,
			"name":"legs",
			"pbrMetallicRoughness":{
				"baseColorFactor":[
					0.19900000095367432,
					0.1666928082704544,
					0.07900300621986389,
					1
				],
				"metallicFactor":0,
				"roughnessFactor":0.5527864098548889
			}
		},
		{
			"doubleSided":true,
			"name":"chair1",
			"pbrMetallicRoughness":{
				"baseColorFactor":[
					0.5,
					0.5,
					0.5,
					1
				],
				"metallicFactor":0,
				"roughnessFactor":0.5527864098548889
			}
		},
		{
			"doubleSided":true,
			"name":"pilow",
			"pbrMetallicRoughness":{
				"baseColorFactor":[
					0.5,
					0.23399999737739563,
					0.45907601714134216,
					1
				],
				"metallicFactor":0,
				"roughnessFactor":0.5527864098548889
			}
		}
	],
	"meshes":[
		{
			"name":"Mesh.002",
			"primitives":[
				{
					"attributes":{
						"POSITION":0,
						"NORMAL":1,
						"TEXCOORD_0":2
					},
					"indices":3,
					"material":0
				},
				{
					"attributes":{
						"POSITION":4,
						"NORMAL":5,
						"TEXCOORD_0":6
					},
					"indices":7,
					"material":1
				},
				{
					"attributes":{
						"POSITION":8,
						"NORMAL":9,
						"TEXCOORD_0":10
					},
					"indices":11,
					"material":2
				},
				{
					"attributes":{
						"POSITION":12,
						"NORMAL":13,
						"TEXCOORD_0":14
					},
					"indices":15,
					"material":3
				}
			]
		}
	],
	"accessors":[
		{
			"bufferView":0,
			"componentType":5126,
			"count":2781,
			"max":[
				12.53742790222168,
				18.515743255615234,
				-9.121527671813965
			],
			"min":[
				-12.53742790222168,
				-23.270326614379883,
				-32.93532943725586
			],
			"type":"VEC3"
		},
		{
			"bufferView":1,
			"componentType":5126,
			"count":2781,
			"type":"VEC3"
		},
		{
			"bufferView":2,
			"componentType":5126,
			"count":2781,
			"type":"VEC2"
		},
		{
			"bufferView":3,
			"componentType":5123,
			"count":13872,
			"type":"SCALAR"
		},
		{
			"bufferView":4,
			"componentType":5126,
			"count":720,
			"max":[
				10.59292984008789,
				15.760980606079102,
				-0.14972937107086182
			],
			"min":[
				-10.183533668518066,
				-19.109210968017578,
				-10.992663383483887
			],
			"type":"VEC3"
		},
		{
			"bufferView":5,
			"componentType":5126,
			"count":720,
			"type":"VEC3"
		},
		{
			"bufferView":6,
			"componentType":5126,
			"count":720,
			"type":"VEC2"
		},
		{
			"bufferView":7,
			"componentType":5123,
			"count":1920,
			"type":"SCALAR"
		},
		{
			"bufferView":8,
			"componentType":5126,
			"count":394,
			"max":[
				8.902911186218262,
				18.50885009765625,
				-3.5760912895202637
			],
			"min":[
				-8.902911186218262,
				-19.926624298095703,
				-19.147981643676758
			],
			"type":"VEC3"
		},
		{
			"bufferView":9,
			"componentType":5126,
			"count":394,
			"type":"VEC3"
		},
		{
			"bufferView":10,
			"componentType":5126,
			"count":394,
			"type":"VEC2"
		},
		{
			"bufferView":11,
			"componentType":5123,
			"count":1620,
			"type":"SCALAR"
		},
		{
			"bufferView":12,
			"componentType":5126,
			"count":3960,
			"max":[
				6.3132476806640625,
				-12.991913795471191,
				-18.709754943847656
			],
			"min":[
				-6.742595672607422,
				-18.581336975097656,
				-27.320981979370117
			],
			"type":"VEC3"
		},
		{
			"bufferView":13,
			"componentType":5126,
			"count":3960,
			"type":"VEC3"
		},
		{
			"bufferView":14,
			"componentType":5126,
			"count":3960,
			"type":"VEC2"
		},
		{
			"bufferView":15,
			"componentType":5123,
			"count":20148,
			"type":"SCALAR"
		}
	],
	"bufferViews":[
		{
			"buffer":0,
			"byteLength":33372,
			"byteOffset":0,
			"target":34962
		},
		{
			"buffer":0,
			"byteLength":33372,
			"byteOffset":33372,
			"target":34962
		},
		{
			"buffer":0,
			"byteLength":22248,
			"byteOffset":66744,
			"target":34962
		},
		{
			"buffer":0,
			"byteLength":27744,
			"byteOffset":88992,
			"target":34963
		},
		{
			"buffer":0,
			"byteLength":8640,
			"byteOffset":116736,
			"target":34962
		},
		{
			"buffer":0,
			"byteLength":8640,
			"byteOffset":125376,
			"target":34962
		},
		{
			"buffer":0,
			"byteLength":5760,
			"byteOffset":134016,
			"target":34962
		},
		{
			"buffer":0,
			"byteLength":3840,
			"byteOffset":139776,
			"target":34963
		},
		{
			"buffer":0,
			"byteLength":4728,
			"byteOffset":143616,
			"target":34962
		},
		{
			"buffer":0,
			"byteLength":4728,
			"byteOffset":148344,
			"target":34962
		},
		{
			"buffer":0,
			"byteLength":3152,
			"byteOffset":153072,
			"target":34962
		},
		{
			"buffer":0,
			"byteLength":3240,
			"byteOffset":156224,
			"target":34963
		},
		{
			"buffer":0,
			"byteLength":47520,
			"byteOffset":159464,
			"target":34962
		},
		{
			"buffer":0,
			"byteLength":47520,
			"byteOffset":206984,
			"target":34962
		},
		{
			"buffer":0,
			"byteLength":31680,
			"byteOffset":254504,
			"target":34962
		},
		{
			"buffer":0,
			"byteLength":40296,
			"byteOffset":286184,
			"target":34963
		}
	],
	"buffers":[
		{
			"byteLength":326480,
			"uri":"chair.bin"
		}
	]
}
