{
	"asset":{
		"generator":"Khronos glTF Blender I/O v3.6.27",
		"version":"2.0"
	},
	"scene":0,
	"scenes":[
		{
			"name":"Scene",
			"nodes":[
				0
			]
		}
	],
	"nodes":[
		{
			"mesh":0,
			"name":"container",
			"rotation":[
				0.7071068286895752,
				0,
				0,
				0.7071068286895752
			],
			"scale":[
				0.30711668729782104,
				0.30711668729782104,
				0.30711668729782104
			]
		}
	],
	"materials":[
		{
			"doubleSided":true,
			"name":"crateSteel",
			"normalTexture":{
				"index":0
			},
			"pbrMetallicRoughness":{
				"baseColorTexture":{
					"index":1
				},
				"metallicFactor":0.8863636255264282,
				"roughnessFactor":0.4755136966705322
			}
		},
		{
			"doubleSided":true,
			"name":"crateBase",
			"normalTexture":{
				"index":2
			},
			"pbrMetallicRoughness":{
				"baseColorTexture":{
					"index":3
				},
				"metallicFactor":0.3954545557498932,
				"roughnessFactor":0.4800591468811035
			}
		},
		{
			"doubleSided":true,
			"name":"crateTop",
			"normalTexture":{
				"index":4
			},
			"pbrMetallicRoughness":{
				"baseColorTexture":{
					"index":5
				},
				"metallicFactor":0.4909090995788574,
				"roughnessFactor":0.5527864098548889
			}
		}
	],
	"meshes":[
		{
			"name":"Mesh",
			"primitives":[
				{
					"attributes":{
						"POSITION":0,
						"NORMAL":1,
						"TEXCOORD_0":2
					},
					"indices":3,
					"material":0
				},
				{
					"attributes":{
						"POSITION":4,
						"NORMAL":5,
						"TEXCOORD_0":6
					},
					"indices":7,
					"material":1
				},
				{
					"attributes":{
						"POSITION":8,
						"NORMAL":9,
						"TEXCOORD_0":10
					},
					"indices":11,
					"material":2
				}
			]
		}
	],
	"textures":[
		{
			"sampler":0,
			"source":0
		},
		{
			"sampler":0,
			"source":1
		},
		{
			"sampler":0,
			"source":2
		},
		{
			"sampler":0,
			"source":3
		},
		{
			"sampler":0,
			"source":4
		},
		{
			"sampler":0,
			"source":5
		}
	],
	"images":[
		{
			"bufferView":4,
			"mimeType":"image/png",
			"name":"container_crateSteel_Normal"
		},
		{
			"bufferView":5,
			"mimeType":"image/png",
			"name":"container_crateSteel_BaseColor"
		},
		{
			"bufferView":10,
			"mimeType":"image/png",
			"name":"container_crateBase3_Normal"
		},
		{
			"bufferView":11,
			"mimeType":"image/png",
			"name":"container_crateBase3_BaseColor"
		},
		{
			"bufferView":16,
			"mimeType":"image/png",
			"name":"container_crateTop_Normal"
		},
		{
			"bufferView":17,
			"mimeType":"image/png",
			"name":"container_crateTop_BaseColor"
		}
	],
	"accessors":[
		{
			"bufferView":0,
			"componentType":5126,
			"count":96,
			"max":[
				2.4056451320648193,
				6.482231616973877,
				0.01781630516052246
			],
			"min":[
				-2.371792793273926,
				-6.5019636154174805,
				-6.221351623535156
			],
			"type":"VEC3"
		},
		{
			"bufferView":1,
			"componentType":5126,
			"count":96,
			"type":"VEC3"
		},
		{
			"bufferView":2,
			"componentType":5126,
			"count":96,
			"type":"VEC2"
		},
		{
			"bufferView":3,
			"componentType":5123,
			"count":144,
			"type":"SCALAR"
		},
		{
			"bufferView":6,
			"componentType":5126,
			"count":312,
			"max":[
				3.327847719192505,
				6.718222618103027,
				0.21161283552646637
			],
			"min":[
				-3.327847719192505,
				-6.718222618103027,
				-6.197668552398682
			],
			"type":"VEC3"
		},
		{
			"bufferView":7,
			"componentType":5126,
			"count":312,
			"type":"VEC3"
		},
		{
			"bufferView":8,
			"componentType":5126,
			"count":312,
			"type":"VEC2"
		},
		{
			"bufferView":9,
			"componentType":5123,
			"count":984,
			"type":"SCALAR"
		},
		{
			"bufferView":12,
			"componentType":5126,
			"count":24,
			"max":[
				3.327847719192505,
				6.718222618103027,
				-6.139127254486084
			],
			"min":[
				-3.327847719192505,
				-6.718222618103027,
				-6.488377094268799
			],
			"type":"VEC3"
		},
		{
			"bufferView":13,
			"componentType":5126,
			"count":24,
			"type":"VEC3"
		},
		{
			"bufferView":14,
			"componentType":5126,
			"count":24,
			"type":"VEC2"
		},
		{
			"bufferView":15,
			"componentType":5123,
			"count":36,
			"type":"SCALAR"
		}
	],
	"bufferViews":[
		{
			"buffer":0,
			"byteLength":1152,
			"byteOffset":0,
			"target":34962
		},
		{
			"buffer":0,
			"byteLength":1152,
			"byteOffset":1152,
			"target":34962
		},
		{
			"buffer":0,
			"byteLength":768,
			"byteOffset":2304,
			"target":34962
		},
		{
			"buffer":0,
			"byteLength":288,
			"byteOffset":3072,
			"target":34963
		},
		{
			"buffer":0,
			"byteLength":40336,
			"byteOffset":3360
		},
		{
			"buffer":0,
			"byteLength":40832,
			"byteOffset":43696
		},
		{
			"buffer":0,
			"byteLength":3744,
			"byteOffset":84528,
			"target":34962
		},
		{
			"buffer":0,
			"byteLength":3744,
			"byteOffset":88272,
			"target":34962
		},
		{
			"buffer":0,
			"byteLength":2496,
			"byteOffset":92016,
			"target":34962
		},
		{
			"buffer":0,
			"byteLength":1968,
			"byteOffset":94512,
			"target":34963
		},
		{
			"buffer":0,
			"byteLength":1038917,
			"byteOffset":96480
		},
		{
			"buffer":0,
			"byteLength":1080361,
			"byteOffset":1135400
		},
		{
			"buffer":0,
			"byteLength":288,
			"byteOffset":2215764,
			"target":34962
		},
		{
			"buffer":0,
			"byteLength":288,
			"byteOffset":2216052,
			"target":34962
		},
		{
			"buffer":0,
			"byteLength":192,
			"byteOffset":2216340,
			"target":34962
		},
		{
			"buffer":0,
			"byteLength":72,
			"byteOffset":2216532,
			"target":34963
		},
		{
			"buffer":0,
			"byteLength":196504,
			"byteOffset":2216604
		},
		{
			"buffer":0,
			"byteLength":223983,
			"byteOffset":2413108
		}
	],
	"samplers":[
		{
			"magFilter":9729,
			"minFilter":9987
		}
	],
	"buffers":[
		{
			"byteLength":2637092,
			"uri":"data:application/octet-stream;base64,"
		}
	]
}
