{
	"asset":{
		"generator":"Khronos glTF Blender I/O v3.6.27",
		"version":"2.0"
	},
	"scene":0,
	"scenes":[
		{
			"name":"Scene",
			"nodes":[
				0
			]
		}
	],
	"nodes":[
		{
			"mesh":0,
			"name":"espressoMachine",
			"rotation":[
				0.7071068286895752,
				0,
				0,
				0.7071068286895752
			],
			"scale":[
				0.10521604120731354,
				0.10521604120731354,
				0.10521604120731354
			],
			"translation":[
				-0.00590404262766242,
				-0.009562261402606964,
				-0.045143745839595795
			]
		}
	],
	"materials":[
		{
			"doubleSided":true,
			"name":"standardSurface5",
			"pbrMetallicRoughness":{
				"baseColorTexture":{
					"index":0
				},
				"metallicRoughnessTexture":{
					"index":1
				}
			}
		},
		{
			"doubleSided":true,
			"name":"black1",
			"pbrMetallicRoughness":{
				"baseColorTexture":{
					"index":2
				},
				"metallicRoughnessTexture":{
					"index":3
				}
			}
		},
		{
			"doubleSided":true,
			"name":"espresso2",
			"pbrMetallicRoughness":{
				"baseColorTexture":{
					"index":4
				},
				"metallicRoughnessTexture":{
					"index":5
				}
			}
		}
	],
	"meshes":[
		{
			"name":"Mesh.011",
			"primitives":[
				{
					"attributes":{
						"POSITION":0,
						"NORMAL":1,
						"TEXCOORD_0":2
					},
					"indices":3,
					"material":0
				},
				{
					"attributes":{
						"POSITION":4,
						"NORMAL":5,
						"TEXCOORD_0":6
					},
					"indices":7,
					"material":1
				},
				{
					"attributes":{
						"POSITION":8,
						"NORMAL":9,
						"TEXCOORD_0":10
					},
					"indices":11,
					"material":2
				}
			]
		}
	],
	"textures":[
		{
			"sampler":0,
			"source":0
		},
		{
			"sampler":0,
			"source":1
		},
		{
			"sampler":0,
			"source":2
		},
		{
			"sampler":0,
			"source":3
		},
		{
			"sampler":0,
			"source":4
		},
		{
			"sampler":0,
			"source":5
		}
	],
	"images":[
		{
			"bufferView":4,
			"mimeType":"image/png",
			"name":"standardSurface5_BaseColor"
		},
		{
			"bufferView":5,
			"mimeType":"image/png",
			"name":"standardSurface5_Metallic-standardSurface5_Roughness"
		},
		{
			"bufferView":10,
			"mimeType":"image/png",
			"name":"black1_BaseColor"
		},
		{
			"bufferView":11,
			"mimeType":"image/png",
			"name":"black1_Metallic-black1_Roughness"
		},
		{
			"bufferView":16,
			"mimeType":"image/png",
			"name":"espresso2_BaseColor"
		},
		{
			"bufferView":17,
			"mimeType":"image/png",
			"name":"espresso2_Metallic-espresso2_Roughness"
		}
	],
	"accessors":[
		{
			"bufferView":0,
			"componentType":5126,
			"count":1102,
			"max":[
				7.515491485595703,
				11.82836627960205,
				-0.7590827941894531
			],
			"min":[
				-4.035855770111084,
				-3.8163626194000244,
				-15.649009704589844
			],
			"type":"VEC3"
		},
		{
			"bufferView":1,
			"componentType":5126,
			"count":1102,
			"type":"VEC3"
		},
		{
			"bufferView":2,
			"componentType":5126,
			"count":1102,
			"type":"VEC2"
		},
		{
			"bufferView":3,
			"componentType":5123,
			"count":3114,
			"type":"SCALAR"
		},
		{
			"bufferView":6,
			"componentType":5126,
			"count":648,
			"max":[
				7.35959529876709,
				11.347977638244629,
				-2.673807144165039
			],
			"min":[
				-3.3358957767486572,
				1.182212471961975,
				-14.44778060913086
			],
			"type":"VEC3"
		},
		{
			"bufferView":7,
			"componentType":5126,
			"count":648,
			"type":"VEC3"
		},
		{
			"bufferView":8,
			"componentType":5126,
			"count":648,
			"type":"VEC2"
		},
		{
			"bufferView":9,
			"componentType":5123,
			"count":1398,
			"type":"SCALAR"
		},
		{
			"bufferView":12,
			"componentType":5126,
			"count":1302,
			"max":[
				3.9068763256073,
				8.426558494567871,
				-11.611856460571289
			],
			"min":[
				-2.896747589111328,
				5.998787879943848,
				-14.655548095703125
			],
			"type":"VEC3"
		},
		{
			"bufferView":13,
			"componentType":5126,
			"count":1302,
			"type":"VEC3"
		},
		{
			"bufferView":14,
			"componentType":5126,
			"count":1302,
			"type":"VEC2"
		},
		{
			"bufferView":15,
			"componentType":5123,
			"count":3360,
			"type":"SCALAR"
		}
	],
	"bufferViews":[
		{
			"buffer":0,
			"byteLength":13224,
			"byteOffset":0,
			"target":34962
		},
		{
			"buffer":0,
			"byteLength":13224,
			"byteOffset":13224,
			"target":34962
		},
		{
			"buffer":0,
			"byteLength":8816,
			"byteOffset":26448,
			"target":34962
		},
		{
			"buffer":0,
			"byteLength":6228,
			"byteOffset":35264,
			"target":34963
		},
		{
			"buffer":0,
			"byteLength":12793,
			"byteOffset":41492
		},
		{
			"buffer":0,
			"byteLength":935936,
			"byteOffset":54288
		},
		{
			"buffer":0,
			"byteLength":7776,
			"byteOffset":990224,
			"target":34962
		},
		{
			"buffer":0,
			"byteLength":7776,
			"byteOffset":998000,
			"target":34962
		},
		{
			"buffer":0,
			"byteLength":5184,
			"byteOffset":1005776,
			"target":34962
		},
		{
			"buffer":0,
			"byteLength":2796,
			"byteOffset":1010960,
			"target":34963
		},
		{
			"buffer":0,
			"byteLength":149521,
			"byteOffset":1013756
		},
		{
			"buffer":0,
			"byteLength":174223,
			"byteOffset":1163280
		},
		{
			"buffer":0,
			"byteLength":15624,
			"byteOffset":1337504,
			"target":34962
		},
		{
			"buffer":0,
			"byteLength":15624,
			"byteOffset":1353128,
			"target":34962
		},
		{
			"buffer":0,
			"byteLength":10416,
			"byteOffset":1368752,
			"target":34962
		},
		{
			"buffer":0,
			"byteLength":6720,
			"byteOffset":1379168,
			"target":34963
		},
		{
			"buffer":0,
			"byteLength":5360,
			"byteOffset":1385888
		},
		{
			"buffer":0,
			"byteLength":84586,
			"byteOffset":1391248
		}
	],
	"samplers":[
		{
			"magFilter":9729,
			"minFilter":9987
		}
	],
	"buffers":[
		{
			"byteLength":1475836,
			"uri":"data:application/octet-stream;base64,"
		}
	]
}
