{
	"asset":{
		"generator":"Khronos glTF Blender I/O v4.3.47",
		"version":"2.0"
	},
	"scene":0,
	"scenes":[
		{
			"name":"Scene",
			"nodes":[
				0,
				1
			]
		}
	],
	"nodes":[
		{
			"mesh":0,
			"name":"pCube16",
			"rotation":[
				0.7071068286895752,
				0,
				0,
				0.7071068286895752
			],
			"scale":[
				0.17919164896011353,
				0.17919164896011353,
				0.17919164896011353
			],
			"translation":[
				2.108283042907715,
				-1.5580614805221558,
				1.5562572479248047
			]
		},
		{
			"mesh":1,
			"name":"goldFish1",
			"rotation":[
				0.7071068286895752,
				0,
				0,
				0.7071068286895752
			],
			"scale":[
				0.14493617415428162,
				0.14493617415428162,
				0.14493617415428162
			],
			"translation":[
				0.480912446975708,
				-3.215660572052002,
				-0.8017683029174805
			]
		}
	],
	"materials":[
		{
			"doubleSided":true,
			"name":"fins",
			"pbrMetallicRoughness":{
				"baseColorTexture":{
					"index":0
				},
				"metallicRoughnessTexture":{
					"index":1
				}
			}
		},
		{
			"doubleSided":true,
			"name":"pinkBase",
			"pbrMetallicRoughness":{
				"baseColorTexture":{
					"index":2
				},
				"metallicRoughnessTexture":{
					"index":3
				}
			}
		},
		{
			"doubleSided":true,
			"name":"eyes",
			"pbrMetallicRoughness":{
				"baseColorTexture":{
					"index":4
				},
				"metallicRoughnessTexture":{
					"index":5
				}
			}
		},
		{
			"doubleSided":true,
			"name":"finsYellow",
			"pbrMetallicRoughness":{
				"baseColorTexture":{
					"index":6
				},
				"metallicRoughnessTexture":{
					"index":7
				}
			}
		},
		{
			"doubleSided":true,
			"name":"eyes.001",
			"pbrMetallicRoughness":{
				"baseColorTexture":{
					"index":8
				},
				"metallicRoughnessTexture":{
					"index":9
				}
			}
		},
		{
			"doubleSided":true,
			"name":"orangeBase",
			"pbrMetallicRoughness":{
				"baseColorTexture":{
					"index":10
				},
				"metallicRoughnessTexture":{
					"index":11
				}
			}
		},
		{
			"doubleSided":true,
			"name":"standardSurface1",
			"pbrMetallicRoughness":{
				"metallicFactor":0,
				"roughnessFactor":0.5527864098548889
			}
		}
	],
	"meshes":[
		{
			"name":"Mesh.003",
			"primitives":[
				{
					"attributes":{
						"POSITION":0,
						"NORMAL":1,
						"TEXCOORD_0":2
					},
					"indices":3,
					"material":0
				},
				{
					"attributes":{
						"POSITION":4,
						"NORMAL":5,
						"TEXCOORD_0":6
					},
					"indices":7,
					"material":1
				},
				{
					"attributes":{
						"POSITION":8,
						"NORMAL":9,
						"TEXCOORD_0":10
					},
					"indices":11,
					"material":2
				}
			]
		},
		{
			"name":"Mesh.004",
			"primitives":[
				{
					"attributes":{
						"POSITION":12,
						"NORMAL":13,
						"TEXCOORD_0":14
					},
					"indices":15,
					"material":3
				},
				{
					"attributes":{
						"POSITION":16,
						"NORMAL":17,
						"TEXCOORD_0":18
					},
					"indices":19,
					"material":4
				},
				{
					"attributes":{
						"POSITION":20,
						"NORMAL":21,
						"TEXCOORD_0":22
					},
					"indices":23,
					"material":5
				},
				{
					"attributes":{
						"POSITION":24,
						"NORMAL":25,
						"TEXCOORD_0":26
					},
					"indices":27,
					"material":6
				}
			]
		}
	],
	"textures":[
		{
			"sampler":0,
			"source":0
		},
		{
			"sampler":0,
			"source":1
		},
		{
			"sampler":0,
			"source":2
		},
		{
			"sampler":0,
			"source":3
		},
		{
			"sampler":0,
			"source":4
		},
		{
			"sampler":0,
			"source":5
		},
		{
			"sampler":0,
			"source":6
		},
		{
			"sampler":0,
			"source":7
		},
		{
			"sampler":0,
			"source":8
		},
		{
			"sampler":0,
			"source":9
		},
		{
			"sampler":0,
			"source":10
		},
		{
			"sampler":0,
			"source":11
		}
	],
	"images":[
		{
			"mimeType":"image/png",
			"name":"skinnyFish_fins_BaseColor",
			"uri":"skinnyFish_fins_BaseColor.png"
		},
		{
			"mimeType":"image/png",
			"name":"skinnyFish_fins_Metallic-skinnyFish_fins_Roughness",
			"uri":"skinnyFish_fins_Metallic-skinnyFish_fins_Roughness.png"
		},
		{
			"mimeType":"image/png",
			"name":"skinnyFish_pinkBase_BaseColor",
			"uri":"skinnyFish_pinkBase_BaseColor.png"
		},
		{
			"mimeType":"image/png",
			"name":"skinnyFish_pinkBase_Metallic-skinnyFish_pinkBase_Roughness",
			"uri":"skinnyFish_pinkBase_Metallic-skinnyFish_pinkBase_Roughness.png"
		},
		{
			"mimeType":"image/png",
			"name":"skinnyFish_eyes_BaseColor",
			"uri":"skinnyFish_eyes_BaseColor.png"
		},
		{
			"mimeType":"image/png",
			"name":"skinnyFish_eyes_Metallic-skinnyFish_eyes_Roughness",
			"uri":"skinnyFish_eyes_Metallic-skinnyFish_eyes_Roughness.png"
		},
		{
			"mimeType":"image/png",
			"name":"goldifsh_finsYellow_BaseColor",
			"uri":"goldifsh_finsYellow_BaseColor.png"
		},
		{
			"mimeType":"image/png",
			"name":"goldifsh_finsYellow_Metallic-goldifsh_finsYellow_Roughness",
			"uri":"goldifsh_finsYellow_Metallic-goldifsh_finsYellow_Roughness.png"
		},
		{
			"mimeType":"image/png",
			"name":"goldifsh_eyes_BaseColor",
			"uri":"goldifsh_eyes_BaseColor.png"
		},
		{
			"mimeType":"image/png",
			"name":"goldifsh_eyes_Metallic-goldifsh_eyes_Roughness",
			"uri":"goldifsh_eyes_Metallic-goldifsh_eyes_Roughness.png"
		},
		{
			"mimeType":"image/png",
			"name":"goldifsh_orangeBase_BaseColor",
			"uri":"goldifsh_orangeBase_BaseColor.png"
		},
		{
			"mimeType":"image/png",
			"name":"goldifsh_orangeBase_Metallic-goldifsh_orangeBase_Roughness",
			"uri":"goldifsh_orangeBase_Metallic-goldifsh_orangeBase_Roughness.png"
		}
	],
	"accessors":[
		{
			"bufferView":0,
			"componentType":5126,
			"count":28046,
			"max":[
				9.30235481262207,
				4.370726108551025,
				-1.1863980293273926
			],
			"min":[
				-9.19094181060791,
				-4.512909889221191,
				-17.09046745300293
			],
			"type":"VEC3"
		},
		{
			"bufferView":1,
			"componentType":5126,
			"count":28046,
			"type":"VEC3"
		},
		{
			"bufferView":2,
			"componentType":5126,
			"count":28046,
			"type":"VEC2"
		},
		{
			"bufferView":3,
			"componentType":5123,
			"count":147456,
			"type":"SCALAR"
		},
		{
			"bufferView":4,
			"componentType":5126,
			"count":14365,
			"max":[
				17.44564437866211,
				2.855144500732422,
				-2.8805665969848633
			],
			"min":[
				-17.0078182220459,
				-2.6591997146606445,
				-14.75679874420166
			],
			"type":"VEC3"
		},
		{
			"bufferView":5,
			"componentType":5126,
			"count":14365,
			"type":"VEC3"
		},
		{
			"bufferView":6,
			"componentType":5126,
			"count":14365,
			"type":"VEC2"
		},
		{
			"bufferView":7,
			"componentType":5123,
			"count":78336,
			"type":"SCALAR"
		},
		{
			"bufferView":8,
			"componentType":5126,
			"count":980,
			"max":[
				-10.71786880493164,
				3.7137906551361084,
				-5.898699760437012
			],
			"min":[
				-14.276579856872559,
				-3.6122870445251465,
				-9.417037963867188
			],
			"type":"VEC3"
		},
		{
			"bufferView":9,
			"componentType":5126,
			"count":980,
			"type":"VEC3"
		},
		{
			"bufferView":10,
			"componentType":5126,
			"count":980,
			"type":"VEC2"
		},
		{
			"bufferView":11,
			"componentType":5123,
			"count":4608,
			"type":"SCALAR"
		},
		{
			"bufferView":12,
			"componentType":5126,
			"count":11543,
			"max":[
				21.652250289916992,
				9.141321182250977,
				4.651303291320801
			],
			"min":[
				-11.79725170135498,
				-9.383857727050781,
				-23.854644775390625
			],
			"type":"VEC3"
		},
		{
			"bufferView":13,
			"componentType":5126,
			"count":11543,
			"type":"VEC3"
		},
		{
			"bufferView":14,
			"componentType":5126,
			"count":11543,
			"type":"VEC2"
		},
		{
			"bufferView":15,
			"componentType":5123,
			"count":64512,
			"type":"SCALAR"
		},
		{
			"bufferView":16,
			"componentType":5126,
			"count":250,
			"max":[
				-12.73182487487793,
				8.52392292022705,
				-4.979466915130615
			],
			"min":[
				-19.58095932006836,
				-9.236174583435059,
				-11.828601837158203
			],
			"type":"VEC3"
		},
		{
			"bufferView":17,
			"componentType":5126,
			"count":250,
			"type":"VEC3"
		},
		{
			"bufferView":18,
			"componentType":5126,
			"count":250,
			"type":"VEC2"
		},
		{
			"bufferView":19,
			"componentType":5123,
			"count":1152,
			"type":"SCALAR"
		},
		{
			"bufferView":20,
			"componentType":5126,
			"count":7830,
			"max":[
				2.33493709564209,
				7.499687671661377,
				-0.4140731394290924
			],
			"min":[
				-21.852134704589844,
				-7.764430046081543,
				-23.831806182861328
			],
			"type":"VEC3"
		},
		{
			"bufferView":21,
			"componentType":5126,
			"count":7830,
			"type":"VEC3"
		},
		{
			"bufferView":22,
			"componentType":5126,
			"count":7830,
			"type":"VEC2"
		},
		{
			"bufferView":23,
			"componentType":5123,
			"count":44496,
			"type":"SCALAR"
		},
		{
			"bufferView":24,
			"componentType":5126,
			"count":121,
			"max":[
				0.5,
				0.5,
				-8.522806167602539
			],
			"min":[
				-0.5,
				-0.5,
				-8.522806167602539
			],
			"type":"VEC3"
		},
		{
			"bufferView":25,
			"componentType":5126,
			"count":121,
			"type":"VEC3"
		},
		{
			"bufferView":26,
			"componentType":5126,
			"count":121,
			"type":"VEC2"
		},
		{
			"bufferView":27,
			"componentType":5123,
			"count":600,
			"type":"SCALAR"
		}
	],
	"bufferViews":[
		{
			"buffer":0,
			"byteLength":336552,
			"byteOffset":0,
			"target":34962
		},
		{
			"buffer":0,
			"byteLength":336552,
			"byteOffset":336552,
			"target":34962
		},
		{
			"buffer":0,
			"byteLength":224368,
			"byteOffset":673104,
			"target":34962
		},
		{
			"buffer":0,
			"byteLength":294912,
			"byteOffset":897472,
			"target":34963
		},
		{
			"buffer":0,
			"byteLength":172380,
			"byteOffset":1192384,
			"target":34962
		},
		{
			"buffer":0,
			"byteLength":172380,
			"byteOffset":1364764,
			"target":34962
		},
		{
			"buffer":0,
			"byteLength":114920,
			"byteOffset":1537144,
			"target":34962
		},
		{
			"buffer":0,
			"byteLength":156672,
			"byteOffset":1652064,
			"target":34963
		},
		{
			"buffer":0,
			"byteLength":11760,
			"byteOffset":1808736,
			"target":34962
		},
		{
			"buffer":0,
			"byteLength":11760,
			"byteOffset":1820496,
			"target":34962
		},
		{
			"buffer":0,
			"byteLength":7840,
			"byteOffset":1832256,
			"target":34962
		},
		{
			"buffer":0,
			"byteLength":9216,
			"byteOffset":1840096,
			"target":34963
		},
		{
			"buffer":0,
			"byteLength":138516,
			"byteOffset":1849312,
			"target":34962
		},
		{
			"buffer":0,
			"byteLength":138516,
			"byteOffset":1987828,
			"target":34962
		},
		{
			"buffer":0,
			"byteLength":92344,
			"byteOffset":2126344,
			"target":34962
		},
		{
			"buffer":0,
			"byteLength":129024,
			"byteOffset":2218688,
			"target":34963
		},
		{
			"buffer":0,
			"byteLength":3000,
			"byteOffset":2347712,
			"target":34962
		},
		{
			"buffer":0,
			"byteLength":3000,
			"byteOffset":2350712,
			"target":34962
		},
		{
			"buffer":0,
			"byteLength":2000,
			"byteOffset":2353712,
			"target":34962
		},
		{
			"buffer":0,
			"byteLength":2304,
			"byteOffset":2355712,
			"target":34963
		},
		{
			"buffer":0,
			"byteLength":93960,
			"byteOffset":2358016,
			"target":34962
		},
		{
			"buffer":0,
			"byteLength":93960,
			"byteOffset":2451976,
			"target":34962
		},
		{
			"buffer":0,
			"byteLength":62640,
			"byteOffset":2545936,
			"target":34962
		},
		{
			"buffer":0,
			"byteLength":88992,
			"byteOffset":2608576,
			"target":34963
		},
		{
			"buffer":0,
			"byteLength":1452,
			"byteOffset":2697568,
			"target":34962
		},
		{
			"buffer":0,
			"byteLength":1452,
			"byteOffset":2699020,
			"target":34962
		},
		{
			"buffer":0,
			"byteLength":968,
			"byteOffset":2700472,
			"target":34962
		},
		{
			"buffer":0,
			"byteLength":1200,
			"byteOffset":2701440,
			"target":34963
		}
	],
	"samplers":[
		{
			"magFilter":9729,
			"minFilter":9987
		}
	],
	"buffers":[
		{
			"byteLength":2702640,
			"uri":"fishes.bin"
		}
	]
}
