{
	"asset":{
		"generator":"Khronos glTF Blender I/O v3.6.27",
		"version":"2.0"
	},
	"scene":0,
	"scenes":[
		{
			"name":"Scene",
			"nodes":[
				0
			]
		}
	],
	"nodes":[
		{
			"mesh":0,
			"name":"headphones",
			"rotation":[
				0.70710688829422,
				0,
				0,
				0.7071066498756409
			],
			"scale":[
				0.1419675201177597,
				0.1419675350189209,
				0.1419675350189209
			],
			"translation":[
				-0.03797721862792969,
				0,
				0
			]
		}
	],
	"materials":[
		{
			"doubleSided":true,
			"name":"headphonesDetail",
			"pbrMetallicRoughness":{
				"baseColorTexture":{
					"index":0
				},
				"metallicRoughnessTexture":{
					"index":1
				}
			}
		},
		{
			"doubleSided":true,
			"name":"headphonesBase",
			"pbrMetallicRoughness":{
				"baseColorTexture":{
					"index":2
				},
				"metallicRoughnessTexture":{
					"index":3
				}
			}
		},
		{
			"doubleSided":true,
			"name":"headphoneWire",
			"pbrMetallicRoughness":{
				"baseColorTexture":{
					"index":4
				},
				"metallicRoughnessTexture":{
					"index":5
				}
			}
		}
	],
	"meshes":[
		{
			"name":"Mesh.002",
			"primitives":[
				{
					"attributes":{
						"POSITION":0,
						"NORMAL":1,
						"TEXCOORD_0":2
					},
					"indices":3,
					"material":0
				},
				{
					"attributes":{
						"POSITION":4,
						"NORMAL":5,
						"TEXCOORD_0":6
					},
					"indices":7,
					"material":1
				},
				{
					"attributes":{
						"POSITION":8,
						"NORMAL":9,
						"TEXCOORD_0":10
					},
					"indices":11,
					"material":2
				}
			]
		}
	],
	"textures":[
		{
			"sampler":0,
			"source":0
		},
		{
			"sampler":0,
			"source":1
		},
		{
			"sampler":0,
			"source":2
		},
		{
			"sampler":0,
			"source":3
		},
		{
			"sampler":0,
			"source":4
		},
		{
			"sampler":0,
			"source":5
		}
	],
	"images":[
		{
			"bufferView":4,
			"mimeType":"image/png",
			"name":"headphones_headphonesDetail_BaseColor"
		},
		{
			"bufferView":5,
			"mimeType":"image/png",
			"name":"headphones_headphonesDetail_OcclusionRoughnessMetallic"
		},
		{
			"bufferView":10,
			"mimeType":"image/png",
			"name":"headphones_headphonesBase_BaseColor"
		},
		{
			"bufferView":11,
			"mimeType":"image/png",
			"name":"headphones_headphonesBase_OcclusionRoughnessMetallic"
		},
		{
			"bufferView":16,
			"mimeType":"image/png",
			"name":"headphones_headphoneWire_BaseColor"
		},
		{
			"bufferView":17,
			"mimeType":"image/png",
			"name":"headphones_headphoneWire_OcclusionRoughnessMetallic"
		}
	],
	"accessors":[
		{
			"bufferView":0,
			"componentType":5126,
			"count":1608,
			"max":[
				8.719918251037598,
				17.511383056640625,
				0.04682302474975586
			],
			"min":[
				-8.007966041564941,
				-0.7685642242431641,
				-7.917491436004639
			],
			"type":"VEC3"
		},
		{
			"bufferView":1,
			"componentType":5126,
			"count":1608,
			"type":"VEC3"
		},
		{
			"bufferView":2,
			"componentType":5126,
			"count":1608,
			"type":"VEC2"
		},
		{
			"bufferView":3,
			"componentType":5123,
			"count":3426,
			"type":"SCALAR"
		},
		{
			"bufferView":6,
			"componentType":5126,
			"count":1972,
			"max":[
				9.382132530212402,
				18.04678726196289,
				0.10388755798339844
			],
			"min":[
				-8.60939884185791,
				-9.705564498901367,
				-7.839337348937988
			],
			"type":"VEC3"
		},
		{
			"bufferView":7,
			"componentType":5126,
			"count":1972,
			"type":"VEC3"
		},
		{
			"bufferView":8,
			"componentType":5126,
			"count":1972,
			"type":"VEC2"
		},
		{
			"bufferView":9,
			"componentType":5123,
			"count":5628,
			"type":"SCALAR"
		},
		{
			"bufferView":12,
			"componentType":5126,
			"count":4363,
			"max":[
				4.908046722412109,
				21.766826629638672,
				-0.4013357162475586
			],
			"min":[
				-9.25384521484375,
				8.836031913757324,
				-6.593264102935791
			],
			"type":"VEC3"
		},
		{
			"bufferView":13,
			"componentType":5126,
			"count":4363,
			"type":"VEC3"
		},
		{
			"bufferView":14,
			"componentType":5126,
			"count":4363,
			"type":"VEC2"
		},
		{
			"bufferView":15,
			"componentType":5123,
			"count":19722,
			"type":"SCALAR"
		}
	],
	"bufferViews":[
		{
			"buffer":0,
			"byteLength":19296,
			"byteOffset":0,
			"target":34962
		},
		{
			"buffer":0,
			"byteLength":19296,
			"byteOffset":19296,
			"target":34962
		},
		{
			"buffer":0,
			"byteLength":12864,
			"byteOffset":38592,
			"target":34962
		},
		{
			"buffer":0,
			"byteLength":6852,
			"byteOffset":51456,
			"target":34963
		},
		{
			"buffer":0,
			"byteLength":176141,
			"byteOffset":58308
		},
		{
			"buffer":0,
			"byteLength":187140,
			"byteOffset":234452
		},
		{
			"buffer":0,
			"byteLength":23664,
			"byteOffset":421592,
			"target":34962
		},
		{
			"buffer":0,
			"byteLength":23664,
			"byteOffset":445256,
			"target":34962
		},
		{
			"buffer":0,
			"byteLength":15776,
			"byteOffset":468920,
			"target":34962
		},
		{
			"buffer":0,
			"byteLength":11256,
			"byteOffset":484696,
			"target":34963
		},
		{
			"buffer":0,
			"byteLength":254181,
			"byteOffset":495952
		},
		{
			"buffer":0,
			"byteLength":465406,
			"byteOffset":750136
		},
		{
			"buffer":0,
			"byteLength":52356,
			"byteOffset":1215544,
			"target":34962
		},
		{
			"buffer":0,
			"byteLength":52356,
			"byteOffset":1267900,
			"target":34962
		},
		{
			"buffer":0,
			"byteLength":34904,
			"byteOffset":1320256,
			"target":34962
		},
		{
			"buffer":0,
			"byteLength":39444,
			"byteOffset":1355160,
			"target":34963
		},
		{
			"buffer":0,
			"byteLength":90063,
			"byteOffset":1394604
		},
		{
			"buffer":0,
			"byteLength":257702,
			"byteOffset":1484668
		}
	],
	"samplers":[
		{
			"magFilter":9729,
			"minFilter":9987
		}
	],
	"buffers":[
		{
			"byteLength":1742372,
			"uri":"data:application/octet-stream;base64,"
		}
	]
}
