{
	"asset":{
		"generator":"Khronos glTF Blender I/O v4.3.47",
		"version":"2.0"
	},
	"scene":0,
	"scenes":[
		{
			"name":"Scene",
			"nodes":[
				0
			]
		}
	],
	"nodes":[
		{
			"mesh":0,
			"name":"character:pCube64",
			"rotation":[
				0.7071068286895752,
				0,
				0,
				0.7071068286895752
			],
			"scale":[
				0.22820478677749634,
				0.22820478677749634,
				0.22820478677749634
			]
		}
	],
	"materials":[
		{
			"doubleSided":true,
			"name":"character:head",
			"pbrMetallicRoughness":{
				"baseColorTexture":{
					"index":0
				},
				"metallicRoughnessTexture":{
					"index":1
				}
			}
		},
		{
			"doubleSided":true,
			"name":"character:face",
			"pbrMetallicRoughness":{
				"baseColorTexture":{
					"index":2
				},
				"metallicFactor":0.8409090638160706,
				"roughnessFactor":0.3118773102760315
			}
		},
		{
			"doubleSided":true,
			"name":"character:headphones2",
			"pbrMetallicRoughness":{
				"baseColorTexture":{
					"index":3
				},
				"metallicRoughnessTexture":{
					"index":4
				}
			}
		},
		{
			"doubleSided":true,
			"name":"character:hair",
			"pbrMetallicRoughness":{
				"baseColorTexture":{
					"index":5
				},
				"metallicRoughnessTexture":{
					"index":6
				}
			}
		},
		{
			"doubleSided":true,
			"name":"character:headphones1",
			"pbrMetallicRoughness":{
				"baseColorTexture":{
					"index":7
				},
				"metallicRoughnessTexture":{
					"index":8
				}
			}
		},
		{
			"doubleSided":true,
			"name":"character:headphones3",
			"pbrMetallicRoughness":{
				"baseColorTexture":{
					"index":9
				},
				"metallicRoughnessTexture":{
					"index":10
				}
			}
		},
		{
			"doubleSided":true,
			"name":"character:bulb",
			"pbrMetallicRoughness":{
				"baseColorTexture":{
					"index":11
				},
				"metallicRoughnessTexture":{
					"index":12
				}
			}
		},
		{
			"doubleSided":true,
			"name":"character:rim",
			"pbrMetallicRoughness":{
				"baseColorTexture":{
					"index":13
				},
				"metallicRoughnessTexture":{
					"index":14
				}
			}
		},
		{
			"doubleSided":true,
			"name":"standardSurface1",
			"pbrMetallicRoughness":{
				"metallicFactor":0,
				"roughnessFactor":0.5527864098548889
			}
		}
	],
	"meshes":[
		{
			"name":"Mesh",
			"primitives":[
				{
					"attributes":{
						"POSITION":0,
						"NORMAL":1,
						"TEXCOORD_0":2
					},
					"indices":3,
					"material":0
				},
				{
					"attributes":{
						"POSITION":4,
						"NORMAL":5,
						"TEXCOORD_0":6
					},
					"indices":7,
					"material":1
				},
				{
					"attributes":{
						"POSITION":8,
						"NORMAL":9,
						"TEXCOORD_0":10
					},
					"indices":11,
					"material":2
				},
				{
					"attributes":{
						"POSITION":12,
						"NORMAL":13,
						"TEXCOORD_0":14
					},
					"indices":15,
					"material":3
				},
				{
					"attributes":{
						"POSITION":16,
						"NORMAL":17,
						"TEXCOORD_0":18
					},
					"indices":19,
					"material":4
				},
				{
					"attributes":{
						"POSITION":20,
						"NORMAL":21,
						"TEXCOORD_0":22
					},
					"indices":23,
					"material":5
				},
				{
					"attributes":{
						"POSITION":24,
						"NORMAL":25,
						"TEXCOORD_0":26
					},
					"indices":27,
					"material":6
				},
				{
					"attributes":{
						"POSITION":28,
						"NORMAL":29,
						"TEXCOORD_0":30
					},
					"indices":31,
					"material":7
				},
				{
					"attributes":{
						"POSITION":32,
						"NORMAL":33,
						"TEXCOORD_0":34
					},
					"indices":35,
					"material":8
				}
			]
		}
	],
	"textures":[
		{
			"sampler":0,
			"source":0
		},
		{
			"sampler":0,
			"source":1
		},
		{
			"sampler":0,
			"source":2
		},
		{
			"sampler":0,
			"source":3
		},
		{
			"sampler":0,
			"source":4
		},
		{
			"sampler":0,
			"source":5
		},
		{
			"sampler":0,
			"source":6
		},
		{
			"sampler":0,
			"source":7
		},
		{
			"sampler":0,
			"source":8
		},
		{
			"sampler":0,
			"source":9
		},
		{
			"sampler":0,
			"source":10
		},
		{
			"sampler":0,
			"source":11
		},
		{
			"sampler":0,
			"source":12
		},
		{
			"sampler":0,
			"source":13
		},
		{
			"sampler":0,
			"source":14
		}
	],
	"images":[
		{
			"mimeType":"image/png",
			"name":"characterHeadUV_character_head_BaseColor",
			"uri":"characterHeadUV_character_head_BaseColor.png"
		},
		{
			"mimeType":"image/png",
			"name":"characterHeadUV_character_head_Metallic.png-characterHeadUV_character_head_Roughness.png",
			"uri":"characterHeadUV_character_head_Metallic_png-characterHeadUV_character_head_Roughness_png.png"
		},
		{
			"mimeType":"image/png",
			"name":"characterHeadUV_character_face_BaseColor",
			"uri":"characterHeadUV_character_face_BaseColor.png"
		},
		{
			"mimeType":"image/png",
			"name":"characterHeadUV_character_headphones2_BaseColor",
			"uri":"characterHeadUV_character_headphones2_BaseColor.png"
		},
		{
			"mimeType":"image/png",
			"name":"characterHeadUV_character_headphones2_Metallic.png-characterHeadUV_character_headphones2_Roughness.png",
			"uri":"characterHeadUV_character_headphones2_Metallic_png-characterHeadUV_character_headphones2_Roughness_png.png"
		},
		{
			"mimeType":"image/png",
			"name":"characterHeadUV_character_hair_BaseColor",
			"uri":"characterHeadUV_character_hair_BaseColor.png"
		},
		{
			"mimeType":"image/png",
			"name":"characterHeadUV_character_hair_Metallic.png-characterHeadUV_character_hair_Roughness.png",
			"uri":"characterHeadUV_character_hair_Metallic_png-characterHeadUV_character_hair_Roughness_png.png"
		},
		{
			"mimeType":"image/png",
			"name":"characterHeadUV_character_headphones1_BaseColor",
			"uri":"characterHeadUV_character_headphones1_BaseColor.png"
		},
		{
			"mimeType":"image/png",
			"name":"characterHeadUV_character_headphones1_Metallic.png-characterHeadUV_character_headphones1_Roughness.png",
			"uri":"characterHeadUV_character_headphones1_Metallic_png-characterHeadUV_character_headphones1_Roughness_png.png"
		},
		{
			"mimeType":"image/png",
			"name":"characterHeadUV_character_headphones3_BaseColor",
			"uri":"characterHeadUV_character_headphones3_BaseColor.png"
		},
		{
			"mimeType":"image/png",
			"name":"characterHeadUV_character_headphones3_Metallic.png-characterHeadUV_character_headphones3_Roughness.png",
			"uri":"characterHeadUV_character_headphones3_Metallic_png-characterHeadUV_character_headphones3_Roughness_png.png"
		},
		{
			"mimeType":"image/png",
			"name":"characterHeadUV_character_bulb_BaseColor",
			"uri":"characterHeadUV_character_bulb_BaseColor.png"
		},
		{
			"mimeType":"image/png",
			"name":"characterHeadUV_character_bulb_Metallic.png-characterHeadUV_character_bulb_Roughness.png",
			"uri":"characterHeadUV_character_bulb_Metallic_png-characterHeadUV_character_bulb_Roughness_png.png"
		},
		{
			"mimeType":"image/png",
			"name":"characterHeadUV_character_rim_BaseColor",
			"uri":"characterHeadUV_character_rim_BaseColor.png"
		},
		{
			"mimeType":"image/png",
			"name":"characterHeadUV_character_rim_Metallic.png-characterHeadUV_character_rim_Roughness.png",
			"uri":"characterHeadUV_character_rim_Metallic_png-characterHeadUV_character_rim_Roughness_png.png"
		}
	],
	"accessors":[
		{
			"bufferView":0,
			"componentType":5126,
			"count":429,
			"max":[
				6.446052551269531,
				5.227043151855469,
				5.475210189819336
			],
			"min":[
				-5.514202117919922,
				-4.610259532928467,
				-5.51036262512207
			],
			"type":"VEC3"
		},
		{
			"bufferView":1,
			"componentType":5126,
			"count":429,
			"type":"VEC3"
		},
		{
			"bufferView":2,
			"componentType":5126,
			"count":429,
			"type":"VEC2"
		},
		{
			"bufferView":3,
			"componentType":5123,
			"count":1902,
			"type":"SCALAR"
		},
		{
			"bufferView":4,
			"componentType":5126,
			"count":103,
			"max":[
				3.9440689086914062,
				6.375040054321289,
				3.957916259765625
			],
			"min":[
				-4.049324035644531,
				4.333836555480957,
				-4.035610198974609
			],
			"type":"VEC3"
		},
		{
			"bufferView":5,
			"componentType":5126,
			"count":103,
			"type":"VEC3"
		},
		{
			"bufferView":6,
			"componentType":5126,
			"count":103,
			"type":"VEC2"
		},
		{
			"bufferView":7,
			"componentType":5123,
			"count":354,
			"type":"SCALAR"
		},
		{
			"bufferView":8,
			"componentType":5126,
			"count":924,
			"max":[
				8.820144653320312,
				4.313464164733887,
				2.9282264709472656
			],
			"min":[
				-8.916854858398438,
				-2.0290656089782715,
				-8.217884063720703
			],
			"type":"VEC3"
		},
		{
			"bufferView":9,
			"componentType":5126,
			"count":924,
			"type":"VEC3"
		},
		{
			"bufferView":10,
			"componentType":5126,
			"count":924,
			"type":"VEC2"
		},
		{
			"bufferView":11,
			"componentType":5123,
			"count":2304,
			"type":"SCALAR"
		},
		{
			"bufferView":12,
			"componentType":5126,
			"count":1671,
			"max":[
				4.248046875,
				6.617440223693848,
				2.21917724609375
			],
			"min":[
				-4.117404937744141,
				4.559514999389648,
				-4.324581146240234
			],
			"type":"VEC3"
		},
		{
			"bufferView":13,
			"componentType":5126,
			"count":1671,
			"type":"VEC3"
		},
		{
			"bufferView":14,
			"componentType":5126,
			"count":1671,
			"type":"VEC2"
		},
		{
			"bufferView":15,
			"componentType":5123,
			"count":6720,
			"type":"SCALAR"
		},
		{
			"bufferView":16,
			"componentType":5126,
			"count":800,
			"max":[
				8.820144653320312,
				4.149065971374512,
				3.524068832397461
			],
			"min":[
				-8.916854858398438,
				-1.8646674156188965,
				-8.217884063720703
			],
			"type":"VEC3"
		},
		{
			"bufferView":17,
			"componentType":5126,
			"count":800,
			"type":"VEC3"
		},
		{
			"bufferView":18,
			"componentType":5126,
			"count":800,
			"type":"VEC2"
		},
		{
			"bufferView":19,
			"componentType":5123,
			"count":2940,
			"type":"SCALAR"
		},
		{
			"bufferView":20,
			"componentType":5126,
			"count":272,
			"max":[
				5.679817199707031,
				3.788741111755371,
				3.147775650024414
			],
			"min":[
				-5.742786407470703,
				-1.5043425559997559,
				-2.160440444946289
			],
			"type":"VEC3"
		},
		{
			"bufferView":21,
			"componentType":5126,
			"count":272,
			"type":"VEC3"
		},
		{
			"bufferView":22,
			"componentType":5126,
			"count":272,
			"type":"VEC2"
		},
		{
			"bufferView":23,
			"componentType":5123,
			"count":768,
			"type":"SCALAR"
		},
		{
			"bufferView":24,
			"componentType":5126,
			"count":308,
			"max":[
				9.065155029296875,
				0.5408856868743896,
				-8.102312088012695
			],
			"min":[
				-9.162986755371094,
				0.01628255844116211,
				-8.634878158569336
			],
			"type":"VEC3"
		},
		{
			"bufferView":25,
			"componentType":5126,
			"count":308,
			"type":"VEC3"
		},
		{
			"bufferView":26,
			"componentType":5126,
			"count":308,
			"type":"VEC2"
		},
		{
			"bufferView":27,
			"componentType":5123,
			"count":1152,
			"type":"SCALAR"
		},
		{
			"bufferView":28,
			"componentType":5126,
			"count":536,
			"max":[
				4.8319549560546875,
				5.336361408233643,
				4.835886001586914
			],
			"min":[
				-4.874969482421875,
				4.453913688659668,
				-4.871040344238281
			],
			"type":"VEC3"
		},
		{
			"bufferView":29,
			"componentType":5126,
			"count":536,
			"type":"VEC3"
		},
		{
			"bufferView":30,
			"componentType":5126,
			"count":536,
			"type":"VEC2"
		},
		{
			"bufferView":31,
			"componentType":5123,
			"count":2400,
			"type":"SCALAR"
		},
		{
			"bufferView":32,
			"componentType":5126,
			"count":24,
			"max":[
				0.47849273681640625,
				4.83701753616333,
				0.4824237823486328
			],
			"min":[
				-0.5215072631835938,
				3.83701753616333,
				-0.5175762176513672
			],
			"type":"VEC3"
		},
		{
			"bufferView":33,
			"componentType":5126,
			"count":24,
			"type":"VEC3"
		},
		{
			"bufferView":34,
			"componentType":5126,
			"count":24,
			"type":"VEC2"
		},
		{
			"bufferView":35,
			"componentType":5123,
			"count":36,
			"type":"SCALAR"
		}
	],
	"bufferViews":[
		{
			"buffer":0,
			"byteLength":5148,
			"byteOffset":0,
			"target":34962
		},
		{
			"buffer":0,
			"byteLength":5148,
			"byteOffset":5148,
			"target":34962
		},
		{
			"buffer":0,
			"byteLength":3432,
			"byteOffset":10296,
			"target":34962
		},
		{
			"buffer":0,
			"byteLength":3804,
			"byteOffset":13728,
			"target":34963
		},
		{
			"buffer":0,
			"byteLength":1236,
			"byteOffset":17532,
			"target":34962
		},
		{
			"buffer":0,
			"byteLength":1236,
			"byteOffset":18768,
			"target":34962
		},
		{
			"buffer":0,
			"byteLength":824,
			"byteOffset":20004,
			"target":34962
		},
		{
			"buffer":0,
			"byteLength":708,
			"byteOffset":20828,
			"target":34963
		},
		{
			"buffer":0,
			"byteLength":11088,
			"byteOffset":21536,
			"target":34962
		},
		{
			"buffer":0,
			"byteLength":11088,
			"byteOffset":32624,
			"target":34962
		},
		{
			"buffer":0,
			"byteLength":7392,
			"byteOffset":43712,
			"target":34962
		},
		{
			"buffer":0,
			"byteLength":4608,
			"byteOffset":51104,
			"target":34963
		},
		{
			"buffer":0,
			"byteLength":20052,
			"byteOffset":55712,
			"target":34962
		},
		{
			"buffer":0,
			"byteLength":20052,
			"byteOffset":75764,
			"target":34962
		},
		{
			"buffer":0,
			"byteLength":13368,
			"byteOffset":95816,
			"target":34962
		},
		{
			"buffer":0,
			"byteLength":13440,
			"byteOffset":109184,
			"target":34963
		},
		{
			"buffer":0,
			"byteLength":9600,
			"byteOffset":122624,
			"target":34962
		},
		{
			"buffer":0,
			"byteLength":9600,
			"byteOffset":132224,
			"target":34962
		},
		{
			"buffer":0,
			"byteLength":6400,
			"byteOffset":141824,
			"target":34962
		},
		{
			"buffer":0,
			"byteLength":5880,
			"byteOffset":148224,
			"target":34963
		},
		{
			"buffer":0,
			"byteLength":3264,
			"byteOffset":154104,
			"target":34962
		},
		{
			"buffer":0,
			"byteLength":3264,
			"byteOffset":157368,
			"target":34962
		},
		{
			"buffer":0,
			"byteLength":2176,
			"byteOffset":160632,
			"target":34962
		},
		{
			"buffer":0,
			"byteLength":1536,
			"byteOffset":162808,
			"target":34963
		},
		{
			"buffer":0,
			"byteLength":3696,
			"byteOffset":164344,
			"target":34962
		},
		{
			"buffer":0,
			"byteLength":3696,
			"byteOffset":168040,
			"target":34962
		},
		{
			"buffer":0,
			"byteLength":2464,
			"byteOffset":171736,
			"target":34962
		},
		{
			"buffer":0,
			"byteLength":2304,
			"byteOffset":174200,
			"target":34963
		},
		{
			"buffer":0,
			"byteLength":6432,
			"byteOffset":176504,
			"target":34962
		},
		{
			"buffer":0,
			"byteLength":6432,
			"byteOffset":182936,
			"target":34962
		},
		{
			"buffer":0,
			"byteLength":4288,
			"byteOffset":189368,
			"target":34962
		},
		{
			"buffer":0,
			"byteLength":4800,
			"byteOffset":193656,
			"target":34963
		},
		{
			"buffer":0,
			"byteLength":288,
			"byteOffset":198456,
			"target":34962
		},
		{
			"buffer":0,
			"byteLength":288,
			"byteOffset":198744,
			"target":34962
		},
		{
			"buffer":0,
			"byteLength":192,
			"byteOffset":199032,
			"target":34962
		},
		{
			"buffer":0,
			"byteLength":72,
			"byteOffset":199224,
			"target":34963
		}
	],
	"samplers":[
		{
			"magFilter":9729,
			"minFilter":9987
		}
	],
	"buffers":[
		{
			"byteLength":199296,
			"uri":"hello-head.bin"
		}
	]
}
