{
	"asset":{
		"generator":"Khronos glTF Blender I/O v4.3.47",
		"version":"2.0"
	},
	"scene":0,
	"scenes":[
		{
			"name":"Scene",
			"nodes":[
				0
			]
		}
	],
	"nodes":[
		{
			"mesh":0,
			"name":"houseStanding",
			"rotation":[
				0.7071068286895752,
				0,
				0,
				0.7071068286895752
			],
			"scale":[
				0.07874524593353271,
				0.07874524593353271,
				0.07874524593353271
			]
		}
	],
	"materials":[
		{
			"doubleSided":true,
			"name":"standardSurface3",
			"pbrMetallicRoughness":{
				"baseColorFactor":[
					1,
					0.21633371710777283,
					0.051277779042720795,
					1
				],
				"metallicFactor":0,
				"roughnessFactor":0.5527864098548889
			}
		},
		{
			"doubleSided":true,
			"name":"standardSurface5",
			"pbrMetallicRoughness":{
				"baseColorFactor":[
					1,
					0.6736186146736145,
					0.09482766687870026,
					1
				],
				"metallicFactor":0,
				"roughnessFactor":0.5527864098548889
			}
		},
		{
			"doubleSided":true,
			"name":"HouseRoofTwo",
			"pbrMetallicRoughness":{
				"baseColorFactor":[
					0.14139746129512787,
					0.07379588484764099,
					0.05270003899931908,
					1
				],
				"metallicFactor":0,
				"roughnessFactor":0.5527864098548889
			}
		},
		{
			"doubleSided":true,
			"name":"doorFrameOne",
			"pbrMetallicRoughness":{
				"baseColorFactor":[
					0.4999902844429016,
					0.11889753490686417,
					0.08200820535421371,
					1
				],
				"metallicFactor":0,
				"roughnessFactor":0.5527864098548889
			}
		},
		{
			"doubleSided":true,
			"name":"standardSurface6",
			"pbrMetallicRoughness":{
				"baseColorFactor":[
					0.5704351663589478,
					0.6738852858543396,
					1,
					1
				],
				"metallicFactor":0.7431818246841431,
				"roughnessFactor":0
			}
		},
		{
			"doubleSided":true,
			"name":"houseFrameTwo",
			"pbrMetallicRoughness":{
				"baseColorFactor":[
					0.5,
					0.4033874273300171,
					0.18599998950958252,
					1
				],
				"metallicFactor":0,
				"roughnessFactor":0.5527864098548889
			}
		},
		{
			"doubleSided":true,
			"name":"standardSurface7",
			"pbrMetallicRoughness":{
				"baseColorFactor":[
					0.6059966087341309,
					0.08340926468372345,
					0.04328383505344391,
					1
				],
				"metallicFactor":0,
				"roughnessFactor":0.5527864098548889
			}
		},
		{
			"doubleSided":true,
			"name":"standardSurface4",
			"pbrMetallicRoughness":{
				"baseColorFactor":[
					0.46633273363113403,
					0.570074200630188,
					0.0878625214099884,
					1
				],
				"metallicFactor":0,
				"roughnessFactor":0.5527864098548889
			}
		},
		{
			"doubleSided":true,
			"name":"standardSurface2",
			"pbrMetallicRoughness":{
				"baseColorFactor":[
					0.5581293106079102,
					0.4247944951057434,
					0.1341678947210312,
					1
				],
				"metallicFactor":0,
				"roughnessFactor":0.5527864098548889
			}
		},
		{
			"doubleSided":true,
			"name":"houseFoundation",
			"pbrMetallicRoughness":{
				"baseColorFactor":[
					0.1800793707370758,
					0.12462497502565384,
					0.0736737847328186,
					1
				],
				"metallicFactor":0,
				"roughnessFactor":0.5527864098548889
			}
		},
		{
			"doubleSided":true,
			"name":"windowRim",
			"pbrMetallicRoughness":{
				"baseColorFactor":[
					0.4609174132347107,
					0.15647247433662415,
					0.051839470863342285,
					1
				],
				"metallicFactor":0,
				"roughnessFactor":0.5527864098548889
			}
		},
		{
			"doubleSided":true,
			"name":"doorDoor",
			"pbrMetallicRoughness":{
				"baseColorFactor":[
					0.5,
					0.22767147421836853,
					0.08349999785423279,
					1
				],
				"metallicFactor":0,
				"roughnessFactor":0.5527864098548889
			}
		},
		{
			"doubleSided":true,
			"name":"houseFoundationTwo",
			"pbrMetallicRoughness":{
				"baseColorFactor":[
					0.48911428451538086,
					0.4993049204349518,
					0.23299893736839294,
					1
				],
				"metallicFactor":0,
				"roughnessFactor":0.5527864098548889
			}
		},
		{
			"doubleSided":true,
			"name":"houseBricks",
			"pbrMetallicRoughness":{
				"baseColorFactor":[
					0.6429520845413208,
					0.46926572918891907,
					0.07956945896148682,
					1
				],
				"metallicFactor":0,
				"roughnessFactor":0.5527864098548889
			}
		},
		{
			"doubleSided":true,
			"name":"doorKnob",
			"pbrMetallicRoughness":{
				"baseColorFactor":[
					0.5,
					0.4068452715873718,
					0.15400001406669617,
					1
				],
				"metallicFactor":0,
				"roughnessFactor":0.5527864098548889
			}
		}
	],
	"meshes":[
		{
			"name":"Mesh.005",
			"primitives":[
				{
					"attributes":{
						"POSITION":0,
						"NORMAL":1,
						"TEXCOORD_0":2
					},
					"indices":3,
					"material":0
				},
				{
					"attributes":{
						"POSITION":4,
						"NORMAL":5,
						"TEXCOORD_0":6
					},
					"indices":7,
					"material":1
				},
				{
					"attributes":{
						"POSITION":8,
						"NORMAL":9,
						"TEXCOORD_0":10
					},
					"indices":11,
					"material":2
				},
				{
					"attributes":{
						"POSITION":12,
						"NORMAL":13,
						"TEXCOORD_0":14
					},
					"indices":15,
					"material":3
				},
				{
					"attributes":{
						"POSITION":16,
						"NORMAL":17,
						"TEXCOORD_0":18
					},
					"indices":19,
					"material":4
				},
				{
					"attributes":{
						"POSITION":20,
						"NORMAL":21,
						"TEXCOORD_0":22
					},
					"indices":23,
					"material":5
				},
				{
					"attributes":{
						"POSITION":24,
						"NORMAL":25,
						"TEXCOORD_0":26
					},
					"indices":27,
					"material":6
				},
				{
					"attributes":{
						"POSITION":28,
						"NORMAL":29,
						"TEXCOORD_0":30
					},
					"indices":31,
					"material":7
				},
				{
					"attributes":{
						"POSITION":32,
						"NORMAL":33,
						"TEXCOORD_0":34
					},
					"indices":35,
					"material":8
				},
				{
					"attributes":{
						"POSITION":36,
						"NORMAL":37,
						"TEXCOORD_0":38
					},
					"indices":39,
					"material":9
				},
				{
					"attributes":{
						"POSITION":40,
						"NORMAL":41,
						"TEXCOORD_0":42
					},
					"indices":43,
					"material":10
				},
				{
					"attributes":{
						"POSITION":44,
						"NORMAL":45,
						"TEXCOORD_0":46
					},
					"indices":47,
					"material":11
				},
				{
					"attributes":{
						"POSITION":48,
						"NORMAL":49,
						"TEXCOORD_0":50
					},
					"indices":51,
					"material":12
				},
				{
					"attributes":{
						"POSITION":52,
						"NORMAL":53,
						"TEXCOORD_0":54
					},
					"indices":55,
					"material":13
				},
				{
					"attributes":{
						"POSITION":56,
						"NORMAL":57,
						"TEXCOORD_0":58
					},
					"indices":59,
					"material":14
				}
			]
		}
	],
	"accessors":[
		{
			"bufferView":0,
			"componentType":5126,
			"count":1258,
			"max":[
				84.72061157226562,
				59.475154876708984,
				5.173820495605469
			],
			"min":[
				-52.106658935546875,
				-52.022010803222656,
				-163.51638793945312
			],
			"type":"VEC3"
		},
		{
			"bufferView":1,
			"componentType":5126,
			"count":1258,
			"type":"VEC3"
		},
		{
			"bufferView":2,
			"componentType":5126,
			"count":1258,
			"type":"VEC2"
		},
		{
			"bufferView":3,
			"componentType":5123,
			"count":2304,
			"type":"SCALAR"
		},
		{
			"bufferView":4,
			"componentType":5126,
			"count":266,
			"max":[
				97.46553039550781,
				70.54708099365234,
				4.891807556152344
			],
			"min":[
				-50,
				-50,
				-162.84832763671875
			],
			"type":"VEC3"
		},
		{
			"bufferView":5,
			"componentType":5126,
			"count":266,
			"type":"VEC3"
		},
		{
			"bufferView":6,
			"componentType":5126,
			"count":266,
			"type":"VEC2"
		},
		{
			"bufferView":7,
			"componentType":5123,
			"count":558,
			"type":"SCALAR"
		},
		{
			"bufferView":8,
			"componentType":5126,
			"count":258,
			"max":[
				59.999996185302734,
				59.999996185302734,
				-156.50765991210938
			],
			"min":[
				-59.999996185302734,
				-59.999996185302734,
				-175.46078491210938
			],
			"type":"VEC3"
		},
		{
			"bufferView":9,
			"componentType":5126,
			"count":258,
			"type":"VEC3"
		},
		{
			"bufferView":10,
			"componentType":5126,
			"count":258,
			"type":"VEC2"
		},
		{
			"bufferView":11,
			"componentType":5123,
			"count":690,
			"type":"SCALAR"
		},
		{
			"bufferView":12,
			"componentType":5126,
			"count":90,
			"max":[
				50.00000762939453,
				49.55910873413086,
				1.968505859375
			],
			"min":[
				-50,
				-38.958011627197266,
				-137.43714904785156
			],
			"type":"VEC3"
		},
		{
			"bufferView":13,
			"componentType":5126,
			"count":90,
			"type":"VEC3"
		},
		{
			"bufferView":14,
			"componentType":5126,
			"count":90,
			"type":"VEC2"
		},
		{
			"bufferView":15,
			"componentType":5123,
			"count":192,
			"type":"SCALAR"
		},
		{
			"bufferView":16,
			"componentType":5126,
			"count":12,
			"max":[
				46.76731872558594,
				46.3743896484375,
				-18.18642807006836
			],
			"min":[
				-27.053972244262695,
				-4.541292190551758,
				-131.763671875
			],
			"type":"VEC3"
		},
		{
			"bufferView":17,
			"componentType":5126,
			"count":12,
			"type":"VEC3"
		},
		{
			"bufferView":18,
			"componentType":5126,
			"count":12,
			"type":"VEC2"
		},
		{
			"bufferView":19,
			"componentType":5123,
			"count":18,
			"type":"SCALAR"
		},
		{
			"bufferView":20,
			"componentType":5126,
			"count":72,
			"max":[
				44.517032623291016,
				33.39591598510742,
				-6.345489501953125
			],
			"min":[
				-32.608333587646484,
				-41.952232360839844,
				-142.55026245117188
			],
			"type":"VEC3"
		},
		{
			"bufferView":21,
			"componentType":5126,
			"count":72,
			"type":"VEC3"
		},
		{
			"bufferView":22,
			"componentType":5126,
			"count":72,
			"type":"VEC2"
		},
		{
			"bufferView":23,
			"componentType":5123,
			"count":156,
			"type":"SCALAR"
		},
		{
			"bufferView":24,
			"componentType":5126,
			"count":950,
			"max":[
				84.99999237060547,
				33.803428649902344,
				4.891807556152344
			],
			"min":[
				54.431640625,
				-41.95222854614258,
				-119.64069366455078
			],
			"type":"VEC3"
		},
		{
			"bufferView":25,
			"componentType":5126,
			"count":950,
			"type":"VEC3"
		},
		{
			"bufferView":26,
			"componentType":5126,
			"count":950,
			"type":"VEC2"
		},
		{
			"bufferView":27,
			"componentType":5123,
			"count":1536,
			"type":"SCALAR"
		},
		{
			"bufferView":28,
			"componentType":5126,
			"count":594,
			"max":[
				55.401885986328125,
				64.21353149414062,
				4.891807556152344
			],
			"min":[
				-55,
				-55,
				-100.31892395019531
			],
			"type":"VEC3"
		},
		{
			"bufferView":29,
			"componentType":5126,
			"count":594,
			"type":"VEC3"
		},
		{
			"bufferView":30,
			"componentType":5126,
			"count":594,
			"type":"VEC2"
		},
		{
			"bufferView":31,
			"componentType":5123,
			"count":1074,
			"type":"SCALAR"
		},
		{
			"bufferView":32,
			"componentType":5126,
			"count":152,
			"max":[
				58,
				58,
				-146.62518310546875
			],
			"min":[
				-58,
				-58,
				-175.46078491210938
			],
			"type":"VEC3"
		},
		{
			"bufferView":33,
			"componentType":5126,
			"count":152,
			"type":"VEC3"
		},
		{
			"bufferView":34,
			"componentType":5126,
			"count":152,
			"type":"VEC2"
		},
		{
			"bufferView":35,
			"componentType":5123,
			"count":384,
			"type":"SCALAR"
		},
		{
			"bufferView":36,
			"componentType":5126,
			"count":312,
			"max":[
				97.46553039550781,
				76.29122924804688,
				4.867398262023926
			],
			"min":[
				-50,
				-50,
				-6.345489501953125
			],
			"type":"VEC3"
		},
		{
			"bufferView":37,
			"componentType":5126,
			"count":312,
			"type":"VEC3"
		},
		{
			"bufferView":38,
			"componentType":5126,
			"count":312,
			"type":"VEC2"
		},
		{
			"bufferView":39,
			"componentType":5123,
			"count":510,
			"type":"SCALAR"
		},
		{
			"bufferView":40,
			"componentType":5126,
			"count":280,
			"max":[
				52.000003814697266,
				52,
				-16.58642578125
			],
			"min":[
				-30.153972625732422,
				-7.141292095184326,
				-134.86367797851562
			],
			"type":"VEC3"
		},
		{
			"bufferView":41,
			"componentType":5126,
			"count":280,
			"type":"VEC3"
		},
		{
			"bufferView":42,
			"componentType":5126,
			"count":280,
			"type":"VEC2"
		},
		{
			"bufferView":43,
			"componentType":5123,
			"count":480,
			"type":"SCALAR"
		},
		{
			"bufferView":44,
			"componentType":5126,
			"count":408,
			"max":[
				39.602420806884766,
				31.84804916381836,
				-7.245491027832031
			],
			"min":[
				-31.7080078125,
				-38.45502471923828,
				-136.13442993164062
			],
			"type":"VEC3"
		},
		{
			"bufferView":45,
			"componentType":5126,
			"count":408,
			"type":"VEC3"
		},
		{
			"bufferView":46,
			"componentType":5126,
			"count":408,
			"type":"VEC2"
		},
		{
			"bufferView":47,
			"componentType":5123,
			"count":846,
			"type":"SCALAR"
		},
		{
			"bufferView":48,
			"componentType":5126,
			"count":32,
			"max":[
				133.88259887695312,
				81.05764770507812,
				5.650514602661133
			],
			"min":[
				-60.05778121948242,
				-67.64006042480469,
				1.9047958850860596
			],
			"type":"VEC3"
		},
		{
			"bufferView":49,
			"componentType":5126,
			"count":32,
			"type":"VEC3"
		},
		{
			"bufferView":50,
			"componentType":5126,
			"count":32,
			"type":"VEC2"
		},
		{
			"bufferView":51,
			"componentType":5123,
			"count":60,
			"type":"SCALAR"
		},
		{
			"bufferView":52,
			"componentType":5126,
			"count":4128,
			"max":[
				51.51887130737305,
				51.49452590942383,
				-5.629337310791016
			],
			"min":[
				-51.40641784667969,
				-51.329288482666016,
				-151.26187133789062
			],
			"type":"VEC3"
		},
		{
			"bufferView":53,
			"componentType":5126,
			"count":4128,
			"type":"VEC3"
		},
		{
			"bufferView":54,
			"componentType":5126,
			"count":4128,
			"type":"VEC2"
		},
		{
			"bufferView":55,
			"componentType":5123,
			"count":5676,
			"type":"SCALAR"
		},
		{
			"bufferView":56,
			"componentType":5126,
			"count":300,
			"max":[
				39.69537353515625,
				32.18479919433594,
				-22.291263580322266
			],
			"min":[
				-17.084728240966797,
				-30.823253631591797,
				-120.34479522705078
			],
			"type":"VEC3"
		},
		{
			"bufferView":57,
			"componentType":5126,
			"count":300,
			"type":"VEC3"
		},
		{
			"bufferView":58,
			"componentType":5126,
			"count":300,
			"type":"VEC2"
		},
		{
			"bufferView":59,
			"componentType":5123,
			"count":1152,
			"type":"SCALAR"
		}
	],
	"bufferViews":[
		{
			"buffer":0,
			"byteLength":15096,
			"byteOffset":0,
			"target":34962
		},
		{
			"buffer":0,
			"byteLength":15096,
			"byteOffset":15096,
			"target":34962
		},
		{
			"buffer":0,
			"byteLength":10064,
			"byteOffset":30192,
			"target":34962
		},
		{
			"buffer":0,
			"byteLength":4608,
			"byteOffset":40256,
			"target":34963
		},
		{
			"buffer":0,
			"byteLength":3192,
			"byteOffset":44864,
			"target":34962
		},
		{
			"buffer":0,
			"byteLength":3192,
			"byteOffset":48056,
			"target":34962
		},
		{
			"buffer":0,
			"byteLength":2128,
			"byteOffset":51248,
			"target":34962
		},
		{
			"buffer":0,
			"byteLength":1116,
			"byteOffset":53376,
			"target":34963
		},
		{
			"buffer":0,
			"byteLength":3096,
			"byteOffset":54492,
			"target":34962
		},
		{
			"buffer":0,
			"byteLength":3096,
			"byteOffset":57588,
			"target":34962
		},
		{
			"buffer":0,
			"byteLength":2064,
			"byteOffset":60684,
			"target":34962
		},
		{
			"buffer":0,
			"byteLength":1380,
			"byteOffset":62748,
			"target":34963
		},
		{
			"buffer":0,
			"byteLength":1080,
			"byteOffset":64128,
			"target":34962
		},
		{
			"buffer":0,
			"byteLength":1080,
			"byteOffset":65208,
			"target":34962
		},
		{
			"buffer":0,
			"byteLength":720,
			"byteOffset":66288,
			"target":34962
		},
		{
			"buffer":0,
			"byteLength":384,
			"byteOffset":67008,
			"target":34963
		},
		{
			"buffer":0,
			"byteLength":144,
			"byteOffset":67392,
			"target":34962
		},
		{
			"buffer":0,
			"byteLength":144,
			"byteOffset":67536,
			"target":34962
		},
		{
			"buffer":0,
			"byteLength":96,
			"byteOffset":67680,
			"target":34962
		},
		{
			"buffer":0,
			"byteLength":36,
			"byteOffset":67776,
			"target":34963
		},
		{
			"buffer":0,
			"byteLength":864,
			"byteOffset":67812,
			"target":34962
		},
		{
			"buffer":0,
			"byteLength":864,
			"byteOffset":68676,
			"target":34962
		},
		{
			"buffer":0,
			"byteLength":576,
			"byteOffset":69540,
			"target":34962
		},
		{
			"buffer":0,
			"byteLength":312,
			"byteOffset":70116,
			"target":34963
		},
		{
			"buffer":0,
			"byteLength":11400,
			"byteOffset":70428,
			"target":34962
		},
		{
			"buffer":0,
			"byteLength":11400,
			"byteOffset":81828,
			"target":34962
		},
		{
			"buffer":0,
			"byteLength":7600,
			"byteOffset":93228,
			"target":34962
		},
		{
			"buffer":0,
			"byteLength":3072,
			"byteOffset":100828,
			"target":34963
		},
		{
			"buffer":0,
			"byteLength":7128,
			"byteOffset":103900,
			"target":34962
		},
		{
			"buffer":0,
			"byteLength":7128,
			"byteOffset":111028,
			"target":34962
		},
		{
			"buffer":0,
			"byteLength":4752,
			"byteOffset":118156,
			"target":34962
		},
		{
			"buffer":0,
			"byteLength":2148,
			"byteOffset":122908,
			"target":34963
		},
		{
			"buffer":0,
			"byteLength":1824,
			"byteOffset":125056,
			"target":34962
		},
		{
			"buffer":0,
			"byteLength":1824,
			"byteOffset":126880,
			"target":34962
		},
		{
			"buffer":0,
			"byteLength":1216,
			"byteOffset":128704,
			"target":34962
		},
		{
			"buffer":0,
			"byteLength":768,
			"byteOffset":129920,
			"target":34963
		},
		{
			"buffer":0,
			"byteLength":3744,
			"byteOffset":130688,
			"target":34962
		},
		{
			"buffer":0,
			"byteLength":3744,
			"byteOffset":134432,
			"target":34962
		},
		{
			"buffer":0,
			"byteLength":2496,
			"byteOffset":138176,
			"target":34962
		},
		{
			"buffer":0,
			"byteLength":1020,
			"byteOffset":140672,
			"target":34963
		},
		{
			"buffer":0,
			"byteLength":3360,
			"byteOffset":141692,
			"target":34962
		},
		{
			"buffer":0,
			"byteLength":3360,
			"byteOffset":145052,
			"target":34962
		},
		{
			"buffer":0,
			"byteLength":2240,
			"byteOffset":148412,
			"target":34962
		},
		{
			"buffer":0,
			"byteLength":960,
			"byteOffset":150652,
			"target":34963
		},
		{
			"buffer":0,
			"byteLength":4896,
			"byteOffset":151612,
			"target":34962
		},
		{
			"buffer":0,
			"byteLength":4896,
			"byteOffset":156508,
			"target":34962
		},
		{
			"buffer":0,
			"byteLength":3264,
			"byteOffset":161404,
			"target":34962
		},
		{
			"buffer":0,
			"byteLength":1692,
			"byteOffset":164668,
			"target":34963
		},
		{
			"buffer":0,
			"byteLength":384,
			"byteOffset":166360,
			"target":34962
		},
		{
			"buffer":0,
			"byteLength":384,
			"byteOffset":166744,
			"target":34962
		},
		{
			"buffer":0,
			"byteLength":256,
			"byteOffset":167128,
			"target":34962
		},
		{
			"buffer":0,
			"byteLength":120,
			"byteOffset":167384,
			"target":34963
		},
		{
			"buffer":0,
			"byteLength":49536,
			"byteOffset":167504,
			"target":34962
		},
		{
			"buffer":0,
			"byteLength":49536,
			"byteOffset":217040,
			"target":34962
		},
		{
			"buffer":0,
			"byteLength":33024,
			"byteOffset":266576,
			"target":34962
		},
		{
			"buffer":0,
			"byteLength":11352,
			"byteOffset":299600,
			"target":34963
		},
		{
			"buffer":0,
			"byteLength":3600,
			"byteOffset":310952,
			"target":34962
		},
		{
			"buffer":0,
			"byteLength":3600,
			"byteOffset":314552,
			"target":34962
		},
		{
			"buffer":0,
			"byteLength":2400,
			"byteOffset":318152,
			"target":34962
		},
		{
			"buffer":0,
			"byteLength":2304,
			"byteOffset":320552,
			"target":34963
		}
	],
	"buffers":[
		{
			"byteLength":322856,
			"uri":"house.bin"
		}
	]
}
