{
	"asset":{
		"generator":"Khronos glTF Blender I/O v3.6.27",
		"version":"2.0"
	},
	"scene":0,
	"scenes":[
		{
			"name":"Scene",
			"nodes":[
				0
			]
		}
	],
	"nodes":[
		{
			"mesh":0,
			"name":"plant",
			"rotation":[
				0.7071069478988647,
				0,
				0,
				0.7071066498756409
			],
			"scale":[
				0.12204529345035553,
				0.12204530835151672,
				0.12204530835151672
			],
			"translation":[
				0.08850479125976562,
				0,
				0.06811144948005676
			]
		}
	],
	"materials":[
		{
			"doubleSided":true,
			"name":"green1",
			"pbrMetallicRoughness":{
				"baseColorTexture":{
					"index":0
				},
				"metallicRoughnessTexture":{
					"index":1
				}
			}
		},
		{
			"doubleSided":true,
			"name":"cream1",
			"pbrMetallicRoughness":{
				"baseColorTexture":{
					"index":2
				},
				"metallicRoughnessTexture":{
					"index":3
				}
			}
		},
		{
			"doubleSided":true,
			"name":"brown1",
			"pbrMetallicRoughness":{
				"baseColorTexture":{
					"index":4
				},
				"metallicRoughnessTexture":{
					"index":5
				}
			}
		}
	],
	"meshes":[
		{
			"name":"Mesh.005",
			"primitives":[
				{
					"attributes":{
						"POSITION":0,
						"NORMAL":1,
						"TEXCOORD_0":2
					},
					"indices":3,
					"material":0
				},
				{
					"attributes":{
						"POSITION":4,
						"NORMAL":5,
						"TEXCOORD_0":6
					},
					"indices":7,
					"material":1
				},
				{
					"attributes":{
						"POSITION":8,
						"NORMAL":9,
						"TEXCOORD_0":10
					},
					"indices":11,
					"material":2
				}
			]
		}
	],
	"textures":[
		{
			"sampler":0,
			"source":0
		},
		{
			"sampler":0,
			"source":1
		},
		{
			"sampler":0,
			"source":2
		},
		{
			"sampler":0,
			"source":3
		},
		{
			"sampler":0,
			"source":4
		},
		{
			"sampler":0,
			"source":5
		}
	],
	"images":[
		{
			"bufferView":4,
			"mimeType":"image/png",
			"name":"moneyPlant_moneyLeaves_BaseColor"
		},
		{
			"bufferView":5,
			"mimeType":"image/png",
			"name":"moneyPlant_moneyLeaves_OcclusionRoughnessMetallic"
		},
		{
			"bufferView":10,
			"mimeType":"image/png",
			"name":"moneyPlant_moneyPot_BaseColor"
		},
		{
			"bufferView":11,
			"mimeType":"image/png",
			"name":"moneyPlant_moneyPot_OcclusionRoughnessMetallic"
		},
		{
			"bufferView":16,
			"mimeType":"image/png",
			"name":"moneyPlant_moneyDirt_BaseColor"
		},
		{
			"bufferView":17,
			"mimeType":"image/png",
			"name":"moneyPlant_moneyDirt_OcclusionRoughnessMetallic"
		}
	],
	"accessors":[
		{
			"bufferView":0,
			"componentType":5126,
			"count":3755,
			"max":[
				12.149182319641113,
				9.758902549743652,
				-5.405510425567627
			],
			"min":[
				-10.462368965148926,
				-8.629426956176758,
				-25.14529800415039
			],
			"type":"VEC3"
		},
		{
			"bufferView":1,
			"componentType":5126,
			"count":3755,
			"type":"VEC3"
		},
		{
			"bufferView":2,
			"componentType":5126,
			"count":3755,
			"type":"VEC2"
		},
		{
			"bufferView":3,
			"componentType":5123,
			"count":15360,
			"type":"SCALAR"
		},
		{
			"bufferView":6,
			"componentType":5126,
			"count":431,
			"max":[
				6.29838228225708,
				5.909960746765137,
				0.04410886764526367
			],
			"min":[
				-5.522939682006836,
				-5.9099626541137695,
				-10.79910659790039
			],
			"type":"VEC3"
		},
		{
			"bufferView":7,
			"componentType":5126,
			"count":431,
			"type":"VEC3"
		},
		{
			"bufferView":8,
			"componentType":5126,
			"count":431,
			"type":"VEC2"
		},
		{
			"bufferView":9,
			"componentType":5123,
			"count":1620,
			"type":"SCALAR"
		},
		{
			"bufferView":12,
			"componentType":5126,
			"count":21,
			"max":[
				5.361594200134277,
				4.974574089050293,
				-9.230916976928711
			],
			"min":[
				-4.587553977966309,
				-4.974576950073242,
				-9.230916976928711
			],
			"type":"VEC3"
		},
		{
			"bufferView":13,
			"componentType":5126,
			"count":21,
			"type":"VEC3"
		},
		{
			"bufferView":14,
			"componentType":5126,
			"count":21,
			"type":"VEC2"
		},
		{
			"bufferView":15,
			"componentType":5123,
			"count":60,
			"type":"SCALAR"
		}
	],
	"bufferViews":[
		{
			"buffer":0,
			"byteLength":45060,
			"byteOffset":0,
			"target":34962
		},
		{
			"buffer":0,
			"byteLength":45060,
			"byteOffset":45060,
			"target":34962
		},
		{
			"buffer":0,
			"byteLength":30040,
			"byteOffset":90120,
			"target":34962
		},
		{
			"buffer":0,
			"byteLength":30720,
			"byteOffset":120160,
			"target":34963
		},
		{
			"buffer":0,
			"byteLength":312999,
			"byteOffset":150880
		},
		{
			"buffer":0,
			"byteLength":539600,
			"byteOffset":463880
		},
		{
			"buffer":0,
			"byteLength":5172,
			"byteOffset":1003480,
			"target":34962
		},
		{
			"buffer":0,
			"byteLength":5172,
			"byteOffset":1008652,
			"target":34962
		},
		{
			"buffer":0,
			"byteLength":3448,
			"byteOffset":1013824,
			"target":34962
		},
		{
			"buffer":0,
			"byteLength":3240,
			"byteOffset":1017272,
			"target":34963
		},
		{
			"buffer":0,
			"byteLength":470292,
			"byteOffset":1020512
		},
		{
			"buffer":0,
			"byteLength":257001,
			"byteOffset":1490804
		},
		{
			"buffer":0,
			"byteLength":252,
			"byteOffset":1747808,
			"target":34962
		},
		{
			"buffer":0,
			"byteLength":252,
			"byteOffset":1748060,
			"target":34962
		},
		{
			"buffer":0,
			"byteLength":168,
			"byteOffset":1748312,
			"target":34962
		},
		{
			"buffer":0,
			"byteLength":120,
			"byteOffset":1748480,
			"target":34963
		},
		{
			"buffer":0,
			"byteLength":93080,
			"byteOffset":1748600
		},
		{
			"buffer":0,
			"byteLength":61857,
			"byteOffset":1841680
		}
	],
	"samplers":[
		{
			"magFilter":9729,
			"minFilter":9987
		}
	],
	"buffers":[
		{
			"byteLength":1903540,
			"uri":"data:application/octet-stream;base64,"
		}
	]
}
