{
	"asset":{
		"generator":"Khronos glTF Blender I/O v4.3.47",
		"version":"2.0"
	},
	"scene":0,
	"scenes":[
		{
			"name":"Scene",
			"nodes":[
				0,
				1
			]
		}
	],
	"nodes":[
		{
			"mesh":0,
			"name":"pCylinder10",
			"rotation":[
				0.7071068286895752,
				0,
				0,
				0.7071068286895752
			],
			"scale":[
				0.5279664993286133,
				0.5279664993286133,
				0.5279664993286133
			],
			"translation":[
				-3.4710590839385986,
				0.13121213018894196,
				4.260817527770996
			]
		},
		{
			"mesh":1,
			"name":"succulentOne",
			"rotation":[
				0.7071067690849304,
				0,
				0,
				0.7071068286895752
			],
			"scale":[
				0.4496985077857971,
				0.4496985077857971,
				0.4496985077857971
			],
			"translation":[
				0.034321874380111694,
				-0.25195086002349854,
				0
			]
		}
	],
	"materials":[
		{
			"doubleSided":true,
			"name":"potTwo",
			"pbrMetallicRoughness":{
				"baseColorTexture":{
					"index":0
				},
				"metallicRoughnessTexture":{
					"index":1
				},
				"roughnessFactor":0.2709682285785675
			}
		},
		{
			"doubleSided":true,
			"name":"succulentTwo",
			"pbrMetallicRoughness":{
				"baseColorTexture":{
					"index":2
				},
				"metallicRoughnessTexture":{
					"index":3
				},
				"roughnessFactor":0.539150059223175
			}
		},
		{
			"doubleSided":true,
			"name":"succulent1",
			"pbrMetallicRoughness":{
				"baseColorTexture":{
					"index":4
				},
				"metallicRoughnessTexture":{
					"index":5
				},
				"roughnessFactor":0.35733187198638916
			}
		},
		{
			"doubleSided":true,
			"name":"pot",
			"pbrMetallicRoughness":{
				"baseColorTexture":{
					"index":6
				},
				"metallicRoughnessTexture":{
					"index":7
				},
				"roughnessFactor":0.5527864098548889
			}
		}
	],
	"meshes":[
		{
			"name":"Mesh.006",
			"primitives":[
				{
					"attributes":{
						"POSITION":0,
						"NORMAL":1,
						"TEXCOORD_0":2
					},
					"indices":3,
					"material":0
				},
				{
					"attributes":{
						"POSITION":4,
						"NORMAL":5,
						"TEXCOORD_0":6
					},
					"indices":7,
					"material":1
				}
			]
		},
		{
			"name":"Mesh.007",
			"primitives":[
				{
					"attributes":{
						"POSITION":8,
						"NORMAL":9,
						"TEXCOORD_0":10
					},
					"indices":11,
					"material":2
				},
				{
					"attributes":{
						"POSITION":12,
						"NORMAL":13,
						"TEXCOORD_0":14
					},
					"indices":15,
					"material":3
				}
			]
		}
	],
	"textures":[
		{
			"sampler":0,
			"source":0
		},
		{
			"sampler":0,
			"source":1
		},
		{
			"sampler":0,
			"source":2
		},
		{
			"sampler":0,
			"source":3
		},
		{
			"sampler":0,
			"source":4
		},
		{
			"sampler":0,
			"source":5
		},
		{
			"sampler":0,
			"source":6
		},
		{
			"sampler":0,
			"source":7
		}
	],
	"images":[
		{
			"mimeType":"image/png",
			"name":"succulentTwo_potTwo_BaseColor",
			"uri":"succulentTwo_potTwo_BaseColor.png"
		},
		{
			"mimeType":"image/png",
			"name":"succulentTwo_potTwo_Metallic",
			"uri":"succulentTwo_potTwo_Metallic.png"
		},
		{
			"mimeType":"image/png",
			"name":"succulentTwo_succulentTwo_BaseColor",
			"uri":"succulentTwo_succulentTwo_BaseColor.png"
		},
		{
			"mimeType":"image/png",
			"name":"succulentTwo_succulentTwo_Metallic",
			"uri":"succulentTwo_succulentTwo_Metallic.png"
		},
		{
			"mimeType":"image/png",
			"name":"succulentOne_succulent1_BaseColor",
			"uri":"succulentOne_succulent1_BaseColor.png"
		},
		{
			"mimeType":"image/png",
			"name":"succulentOne_succulent1_Metallic",
			"uri":"succulentOne_succulent1_Metallic.png"
		},
		{
			"mimeType":"image/png",
			"name":"succulentOne_pot_BaseColor",
			"uri":"succulentOne_pot_BaseColor.png"
		},
		{
			"mimeType":"image/png",
			"name":"succulentOne_pot_Metallic",
			"uri":"succulentOne_pot_Metallic.png"
		}
	],
	"accessors":[
		{
			"bufferView":0,
			"componentType":5126,
			"count":450,
			"max":[
				4.5788984298706055,
				4.576176643371582,
				2.223268508911133
			],
			"min":[
				-4.573456287384033,
				-4.576178550720215,
				-5.1964216232299805
			],
			"type":"VEC3"
		},
		{
			"bufferView":1,
			"componentType":5126,
			"count":450,
			"type":"VEC3"
		},
		{
			"bufferView":2,
			"componentType":5126,
			"count":450,
			"type":"VEC2"
		},
		{
			"bufferView":3,
			"componentType":5123,
			"count":1668,
			"type":"SCALAR"
		},
		{
			"bufferView":4,
			"componentType":5126,
			"count":33938,
			"max":[
				4.844325542449951,
				4.846911907196045,
				-3.488504409790039
			],
			"min":[
				-6.4575934410095215,
				-7.171224117279053,
				-14.43778133392334
			],
			"type":"VEC3"
		},
		{
			"bufferView":5,
			"componentType":5126,
			"count":33938,
			"type":"VEC3"
		},
		{
			"bufferView":6,
			"componentType":5126,
			"count":33938,
			"type":"VEC2"
		},
		{
			"bufferView":7,
			"componentType":5123,
			"count":155352,
			"type":"SCALAR"
		},
		{
			"bufferView":8,
			"componentType":5126,
			"count":7057,
			"max":[
				4.913599014282227,
				5.394792079925537,
				-3.0833444595336914
			],
			"min":[
				-5.725739479064941,
				-5.512142181396484,
				-7.537199020385742
			],
			"type":"VEC3"
		},
		{
			"bufferView":9,
			"componentType":5126,
			"count":7057,
			"type":"VEC3"
		},
		{
			"bufferView":10,
			"componentType":5126,
			"count":7057,
			"type":"VEC2"
		},
		{
			"bufferView":11,
			"componentType":5123,
			"count":32256,
			"type":"SCALAR"
		},
		{
			"bufferView":12,
			"componentType":5126,
			"count":388,
			"max":[
				5.144502639770508,
				5.378675937652588,
				1.9050291776657104
			],
			"min":[
				-5.612849235534668,
				-5.378675937652588,
				-4.24364709854126
			],
			"type":"VEC3"
		},
		{
			"bufferView":13,
			"componentType":5126,
			"count":388,
			"type":"VEC3"
		},
		{
			"bufferView":14,
			"componentType":5126,
			"count":388,
			"type":"VEC2"
		},
		{
			"bufferView":15,
			"componentType":5123,
			"count":1548,
			"type":"SCALAR"
		}
	],
	"bufferViews":[
		{
			"buffer":0,
			"byteLength":5400,
			"byteOffset":0,
			"target":34962
		},
		{
			"buffer":0,
			"byteLength":5400,
			"byteOffset":5400,
			"target":34962
		},
		{
			"buffer":0,
			"byteLength":3600,
			"byteOffset":10800,
			"target":34962
		},
		{
			"buffer":0,
			"byteLength":3336,
			"byteOffset":14400,
			"target":34963
		},
		{
			"buffer":0,
			"byteLength":407256,
			"byteOffset":17736,
			"target":34962
		},
		{
			"buffer":0,
			"byteLength":407256,
			"byteOffset":424992,
			"target":34962
		},
		{
			"buffer":0,
			"byteLength":271504,
			"byteOffset":832248,
			"target":34962
		},
		{
			"buffer":0,
			"byteLength":310704,
			"byteOffset":1103752,
			"target":34963
		},
		{
			"buffer":0,
			"byteLength":84684,
			"byteOffset":1414456,
			"target":34962
		},
		{
			"buffer":0,
			"byteLength":84684,
			"byteOffset":1499140,
			"target":34962
		},
		{
			"buffer":0,
			"byteLength":56456,
			"byteOffset":1583824,
			"target":34962
		},
		{
			"buffer":0,
			"byteLength":64512,
			"byteOffset":1640280,
			"target":34963
		},
		{
			"buffer":0,
			"byteLength":4656,
			"byteOffset":1704792,
			"target":34962
		},
		{
			"buffer":0,
			"byteLength":4656,
			"byteOffset":1709448,
			"target":34962
		},
		{
			"buffer":0,
			"byteLength":3104,
			"byteOffset":1714104,
			"target":34962
		},
		{
			"buffer":0,
			"byteLength":3096,
			"byteOffset":1717208,
			"target":34963
		}
	],
	"samplers":[
		{
			"magFilter":9729,
			"minFilter":9987
		}
	],
	"buffers":[
		{
			"byteLength":1720304,
			"uri":"plants.bin"
		}
	]
}
