{
	"asset":{
		"generator":"Khronos glTF Blender I/O v3.6.27",
		"version":"2.0"
	},
	"extensionsUsed":[
		"KHR_materials_specular",
		"KHR_materials_ior",
		"KHR_materials_emissive_strength"
	],
	"scene":0,
	"scenes":[
		{
			"name":"Scene",
			"nodes":[
				0
			]
		}
	],
	"nodes":[
		{
			"mesh":0,
			"name":"robotLaptop",
			"rotation":[
				0.7071068286895752,
				0,
				0,
				0.7071068286895752
			],
			"scale":[
				0.5,
				0.5,
				0.5
			]
		}
	],
	"materials":[
		{
			"alphaMode":"BLEND",
			"doubleSided":true,
			"name":"laptopBulbs",
			"normalTexture":{
				"index":0
			},
			"pbrMetallicRoughness":{
				"baseColorTexture":{
					"index":1
				},
				"metallicFactor":0.8727272748947144,
				"roughnessFactor":0.2709682285785675
			}
		},
		{
			"alphaMode":"BLEND",
			"doubleSided":true,
			"name":"laptopTorso",
			"normalTexture":{
				"index":2
			},
			"pbrMetallicRoughness":{
				"baseColorTexture":{
					"index":3
				},
				"metallicFactor":0.918181836605072,
				"roughnessFactor":0.39369550347328186
			}
		},
		{
			"alphaMode":"BLEND",
			"doubleSided":true,
			"name":"laptopLimbs",
			"normalTexture":{
				"index":4
			},
			"pbrMetallicRoughness":{
				"baseColorTexture":{
					"index":5
				},
				"metallicFactor":0.6727272868156433,
				"roughnessFactor":0.3800591230392456
			}
		},
		{
			"alphaMode":"BLEND",
			"doubleSided":true,
			"name":"laptopSteel",
			"normalTexture":{
				"index":6
			},
			"pbrMetallicRoughness":{
				"baseColorTexture":{
					"index":7
				},
				"metallicFactor":0.8727272748947144,
				"roughnessFactor":0.43005913496017456
			}
		},
		{
			"alphaMode":"BLEND",
			"doubleSided":true,
			"name":"laptopHead1",
			"normalTexture":{
				"index":8
			},
			"pbrMetallicRoughness":{
				"baseColorTexture":{
					"index":9
				},
				"metallicFactor":0.6045454740524292,
				"roughnessFactor":0.42551368474960327
			}
		},
		{
			"alphaMode":"BLEND",
			"doubleSided":true,
			"name":"laptopScreen",
			"normalTexture":{
				"index":10
			},
			"pbrMetallicRoughness":{
				"baseColorTexture":{
					"index":11
				},
				"metallicFactor":0.668181836605072,
				"roughnessFactor":0.5527864098548889
			}
		},
		{
			"alphaMode":"BLEND",
			"doubleSided":true,
			"extensions":{
				"KHR_materials_specular":{
					"specularColorFactor":[
						1.746181546927341,
						1.746181546927341,
						1.746181546927341
					]
				},
				"KHR_materials_ior":{
					"ior":1.4500000476837158
				}
			},
			"name":"laptopRim",
			"normalTexture":{
				"index":12
			},
			"pbrMetallicRoughness":{
				"baseColorTexture":{
					"index":13
				},
				"metallicFactor":0,
				"roughnessFactor":0.639150083065033
			}
		},
		{
			"alphaMode":"BLEND",
			"doubleSided":true,
			"name":"laptopLaptop",
			"normalTexture":{
				"index":14
			},
			"pbrMetallicRoughness":{
				"baseColorTexture":{
					"index":15
				},
				"metallicFactor":0.4272727370262146,
				"roughnessFactor":0.8272727131843567
			}
		},
		{
			"alphaMode":"BLEND",
			"doubleSided":true,
			"emissiveFactor":[
				1,
				1,
				1
			],
			"extensions":{
				"KHR_materials_emissive_strength":{
					"emissiveStrength":10.799999237060547
				}
			},
			"name":"laptopLaptopScreen",
			"normalTexture":{
				"index":16
			},
			"pbrMetallicRoughness":{
				"baseColorTexture":{
					"index":17
				},
				"metallicFactor":0.8272727131843567,
				"roughnessFactor":0.3545454740524292
			}
		}
	],
	"meshes":[
		{
			"name":"Mesh",
			"primitives":[
				{
					"attributes":{
						"POSITION":0,
						"NORMAL":1,
						"TEXCOORD_0":2
					},
					"indices":3,
					"material":0
				},
				{
					"attributes":{
						"POSITION":4,
						"NORMAL":5,
						"TEXCOORD_0":6
					},
					"indices":7,
					"material":1
				},
				{
					"attributes":{
						"POSITION":8,
						"NORMAL":9,
						"TEXCOORD_0":10
					},
					"indices":11,
					"material":2
				},
				{
					"attributes":{
						"POSITION":12,
						"NORMAL":13,
						"TEXCOORD_0":14
					},
					"indices":15,
					"material":3
				},
				{
					"attributes":{
						"POSITION":16,
						"NORMAL":17,
						"TEXCOORD_0":18
					},
					"indices":19,
					"material":4
				},
				{
					"attributes":{
						"POSITION":20,
						"NORMAL":21,
						"TEXCOORD_0":22
					},
					"indices":23,
					"material":5
				},
				{
					"attributes":{
						"POSITION":24,
						"NORMAL":25,
						"TEXCOORD_0":26
					},
					"indices":27,
					"material":6
				},
				{
					"attributes":{
						"POSITION":28,
						"NORMAL":29,
						"TEXCOORD_0":30
					},
					"indices":31,
					"material":7
				},
				{
					"attributes":{
						"POSITION":32,
						"NORMAL":33,
						"TEXCOORD_0":34
					},
					"indices":35,
					"material":8
				}
			]
		}
	],
	"textures":[
		{
			"sampler":0,
			"source":0
		},
		{
			"sampler":0,
			"source":1
		},
		{
			"sampler":0,
			"source":2
		},
		{
			"sampler":0,
			"source":3
		},
		{
			"sampler":0,
			"source":4
		},
		{
			"sampler":0,
			"source":5
		},
		{
			"sampler":0,
			"source":6
		},
		{
			"sampler":0,
			"source":7
		},
		{
			"sampler":0,
			"source":8
		},
		{
			"sampler":0,
			"source":9
		},
		{
			"sampler":0,
			"source":10
		},
		{
			"sampler":0,
			"source":11
		},
		{
			"sampler":0,
			"source":12
		},
		{
			"sampler":0,
			"source":13
		},
		{
			"sampler":0,
			"source":14
		},
		{
			"sampler":0,
			"source":15
		},
		{
			"sampler":0,
			"source":16
		},
		{
			"sampler":0,
			"source":17
		}
	],
	"images":[
		{
			"bufferView":4,
			"mimeType":"image/png",
			"name":"robotLaptop_laptopBulbs_Normal"
		},
		{
			"bufferView":5,
			"mimeType":"image/png",
			"name":"robotLaptop_laptopBulbs_BaseColor"
		},
		{
			"bufferView":10,
			"mimeType":"image/png",
			"name":"robotLaptop_laptopTorso_Normal"
		},
		{
			"bufferView":11,
			"mimeType":"image/png",
			"name":"robotLaptop_laptopTorso_BaseColor"
		},
		{
			"bufferView":16,
			"mimeType":"image/png",
			"name":"robotLaptop_laptopLimbs_Normal"
		},
		{
			"bufferView":17,
			"mimeType":"image/png",
			"name":"robotLaptop_laptopLimbs_BaseColor"
		},
		{
			"bufferView":22,
			"mimeType":"image/png",
			"name":"robotLaptop_laptopSteel_Normal"
		},
		{
			"bufferView":23,
			"mimeType":"image/png",
			"name":"robotLaptop_laptopSteel_BaseColor"
		},
		{
			"bufferView":28,
			"mimeType":"image/png",
			"name":"robotLaptop_laptopHead1_Normal"
		},
		{
			"bufferView":29,
			"mimeType":"image/png",
			"name":"robotLaptop_laptopHead1_BaseColor"
		},
		{
			"bufferView":34,
			"mimeType":"image/png",
			"name":"robotLaptop_laptopScreen_Normal"
		},
		{
			"bufferView":35,
			"mimeType":"image/png",
			"name":"robotLaptop_laptopScreen_BaseColor"
		},
		{
			"bufferView":40,
			"mimeType":"image/png",
			"name":"robotLaptop_laptopRim_Normal"
		},
		{
			"bufferView":41,
			"mimeType":"image/png",
			"name":"robotLaptop_laptopRim_BaseColor"
		},
		{
			"bufferView":46,
			"mimeType":"image/png",
			"name":"robotLaptop_laptopLaptop_Normal"
		},
		{
			"bufferView":47,
			"mimeType":"image/png",
			"name":"robotLaptop_laptopLaptop_BaseColor"
		},
		{
			"bufferView":52,
			"mimeType":"image/png",
			"name":"robotLaptop_laptopLaptopScreen_Normal"
		},
		{
			"bufferView":53,
			"mimeType":"image/png",
			"name":"robotLaptop_laptopLaptopScreen_BaseColor"
		}
	],
	"accessors":[
		{
			"bufferView":0,
			"componentType":5126,
			"count":1274,
			"max":[
				0.41043516993522644,
				2.1816656589508057,
				-0.1048918068408966
			],
			"min":[
				-4.8043131828308105,
				-2.182987928390503,
				-6.961234092712402
			],
			"type":"VEC3"
		},
		{
			"bufferView":1,
			"componentType":5126,
			"count":1274,
			"type":"VEC3"
		},
		{
			"bufferView":2,
			"componentType":5126,
			"count":1274,
			"type":"VEC2"
		},
		{
			"bufferView":3,
			"componentType":5123,
			"count":4032,
			"type":"SCALAR"
		},
		{
			"bufferView":6,
			"componentType":5126,
			"count":596,
			"max":[
				0.9442358613014221,
				1.9037439823150635,
				-0.24458551406860352
			],
			"min":[
				-4.221675395965576,
				-1.994884967803955,
				-3.9825279712677
			],
			"type":"VEC3"
		},
		{
			"bufferView":7,
			"componentType":5126,
			"count":596,
			"type":"VEC3"
		},
		{
			"bufferView":8,
			"componentType":5126,
			"count":596,
			"type":"VEC2"
		},
		{
			"bufferView":9,
			"componentType":5123,
			"count":2022,
			"type":"SCALAR"
		},
		{
			"bufferView":12,
			"componentType":5126,
			"count":679,
			"max":[
				-1.7460027933120728,
				1.7729849815368652,
				2.7687182426452637
			],
			"min":[
				-7.198022842407227,
				-1.700500726699829,
				-2.9380252361297607
			],
			"type":"VEC3"
		},
		{
			"bufferView":13,
			"componentType":5126,
			"count":679,
			"type":"VEC3"
		},
		{
			"bufferView":14,
			"componentType":5126,
			"count":679,
			"type":"VEC2"
		},
		{
			"bufferView":15,
			"componentType":5123,
			"count":2268,
			"type":"SCALAR"
		},
		{
			"bufferView":18,
			"componentType":5126,
			"count":1423,
			"max":[
				0.5184619426727295,
				1.7143049240112305,
				2.9632062911987305
			],
			"min":[
				-7.2365007400512695,
				-1.624184489250183,
				-6.792891502380371
			],
			"type":"VEC3"
		},
		{
			"bufferView":19,
			"componentType":5126,
			"count":1423,
			"type":"VEC3"
		},
		{
			"bufferView":20,
			"componentType":5126,
			"count":1423,
			"type":"VEC2"
		},
		{
			"bufferView":21,
			"componentType":5123,
			"count":4260,
			"type":"SCALAR"
		},
		{
			"bufferView":24,
			"componentType":5126,
			"count":116,
			"max":[
				1.1708935499191284,
				2.0347955226898193,
				-0.409972608089447
			],
			"min":[
				-1.48386549949646,
				-2.0347955226898193,
				-6.646833419799805
			],
			"type":"VEC3"
		},
		{
			"bufferView":25,
			"componentType":5126,
			"count":116,
			"type":"VEC3"
		},
		{
			"bufferView":26,
			"componentType":5126,
			"count":116,
			"type":"VEC2"
		},
		{
			"bufferView":27,
			"componentType":5123,
			"count":258,
			"type":"SCALAR"
		},
		{
			"bufferView":30,
			"componentType":5126,
			"count":8,
			"max":[
				-0.5516106486320496,
				1.9282041788101196,
				-3.1222033500671387
			],
			"min":[
				-1.2116234302520752,
				-1.9136124849319458,
				-6.029387950897217
			],
			"type":"VEC3"
		},
		{
			"bufferView":31,
			"componentType":5126,
			"count":8,
			"type":"VEC3"
		},
		{
			"bufferView":32,
			"componentType":5126,
			"count":8,
			"type":"VEC2"
		},
		{
			"bufferView":33,
			"componentType":5123,
			"count":12,
			"type":"SCALAR"
		},
		{
			"bufferView":36,
			"componentType":5126,
			"count":96,
			"max":[
				-0.4975461959838867,
				2.1218061447143555,
				-3.0222034454345703
			],
			"min":[
				-1.356162190437317,
				-2.1218061447143555,
				-6.244138240814209
			],
			"type":"VEC3"
		},
		{
			"bufferView":37,
			"componentType":5126,
			"count":96,
			"type":"VEC3"
		},
		{
			"bufferView":38,
			"componentType":5126,
			"count":96,
			"type":"VEC2"
		},
		{
			"bufferView":39,
			"componentType":5123,
			"count":192,
			"type":"SCALAR"
		},
		{
			"bufferView":42,
			"componentType":5126,
			"count":100,
			"max":[
				-3.070725440979004,
				1.3716163635253906,
				-2.0357041358947754
			],
			"min":[
				-5.061488151550293,
				-1.3716163635253906,
				-3.5897347927093506
			],
			"type":"VEC3"
		},
		{
			"bufferView":43,
			"componentType":5126,
			"count":100,
			"type":"VEC3"
		},
		{
			"bufferView":44,
			"componentType":5126,
			"count":100,
			"type":"VEC2"
		},
		{
			"bufferView":45,
			"componentType":5123,
			"count":198,
			"type":"SCALAR"
		},
		{
			"bufferView":48,
			"componentType":5126,
			"count":4,
			"max":[
				-4.707237720489502,
				1.2574623823165894,
				-2.3038344383239746
			],
			"min":[
				-4.946389198303223,
				-1.2574623823165894,
				-3.461812734603882
			],
			"type":"VEC3"
		},
		{
			"bufferView":49,
			"componentType":5126,
			"count":4,
			"type":"VEC3"
		},
		{
			"bufferView":50,
			"componentType":5126,
			"count":4,
			"type":"VEC2"
		},
		{
			"bufferView":51,
			"componentType":5123,
			"count":6,
			"type":"SCALAR"
		}
	],
	"bufferViews":[
		{
			"buffer":0,
			"byteLength":15288,
			"byteOffset":0,
			"target":34962
		},
		{
			"buffer":0,
			"byteLength":15288,
			"byteOffset":15288,
			"target":34962
		},
		{
			"buffer":0,
			"byteLength":10192,
			"byteOffset":30576,
			"target":34962
		},
		{
			"buffer":0,
			"byteLength":8064,
			"byteOffset":40768,
			"target":34963
		},
		{
			"buffer":0,
			"byteLength":37279,
			"byteOffset":48832
		},
		{
			"buffer":0,
			"byteLength":35836,
			"byteOffset":86112
		},
		{
			"buffer":0,
			"byteLength":7152,
			"byteOffset":121948,
			"target":34962
		},
		{
			"buffer":0,
			"byteLength":7152,
			"byteOffset":129100,
			"target":34962
		},
		{
			"buffer":0,
			"byteLength":4768,
			"byteOffset":136252,
			"target":34962
		},
		{
			"buffer":0,
			"byteLength":4044,
			"byteOffset":141020,
			"target":34963
		},
		{
			"buffer":0,
			"byteLength":170174,
			"byteOffset":145064
		},
		{
			"buffer":0,
			"byteLength":164777,
			"byteOffset":315240
		},
		{
			"buffer":0,
			"byteLength":8148,
			"byteOffset":480020,
			"target":34962
		},
		{
			"buffer":0,
			"byteLength":8148,
			"byteOffset":488168,
			"target":34962
		},
		{
			"buffer":0,
			"byteLength":5432,
			"byteOffset":496316,
			"target":34962
		},
		{
			"buffer":0,
			"byteLength":4536,
			"byteOffset":501748,
			"target":34963
		},
		{
			"buffer":0,
			"byteLength":156094,
			"byteOffset":506284
		},
		{
			"buffer":0,
			"byteLength":201813,
			"byteOffset":662380
		},
		{
			"buffer":0,
			"byteLength":17076,
			"byteOffset":864196,
			"target":34962
		},
		{
			"buffer":0,
			"byteLength":17076,
			"byteOffset":881272,
			"target":34962
		},
		{
			"buffer":0,
			"byteLength":11384,
			"byteOffset":898348,
			"target":34962
		},
		{
			"buffer":0,
			"byteLength":8520,
			"byteOffset":909732,
			"target":34963
		},
		{
			"buffer":0,
			"byteLength":108517,
			"byteOffset":918252
		},
		{
			"buffer":0,
			"byteLength":5356,
			"byteOffset":1026772
		},
		{
			"buffer":0,
			"byteLength":1392,
			"byteOffset":1032128,
			"target":34962
		},
		{
			"buffer":0,
			"byteLength":1392,
			"byteOffset":1033520,
			"target":34962
		},
		{
			"buffer":0,
			"byteLength":928,
			"byteOffset":1034912,
			"target":34962
		},
		{
			"buffer":0,
			"byteLength":516,
			"byteOffset":1035840,
			"target":34963
		},
		{
			"buffer":0,
			"byteLength":221831,
			"byteOffset":1036356
		},
		{
			"buffer":0,
			"byteLength":199862,
			"byteOffset":1258188
		},
		{
			"buffer":0,
			"byteLength":96,
			"byteOffset":1458052,
			"target":34962
		},
		{
			"buffer":0,
			"byteLength":96,
			"byteOffset":1458148,
			"target":34962
		},
		{
			"buffer":0,
			"byteLength":64,
			"byteOffset":1458244,
			"target":34962
		},
		{
			"buffer":0,
			"byteLength":24,
			"byteOffset":1458308,
			"target":34963
		},
		{
			"buffer":0,
			"byteLength":6436,
			"byteOffset":1458332
		},
		{
			"buffer":0,
			"byteLength":33433,
			"byteOffset":1464768
		},
		{
			"buffer":0,
			"byteLength":1152,
			"byteOffset":1498204,
			"target":34962
		},
		{
			"buffer":0,
			"byteLength":1152,
			"byteOffset":1499356,
			"target":34962
		},
		{
			"buffer":0,
			"byteLength":768,
			"byteOffset":1500508,
			"target":34962
		},
		{
			"buffer":0,
			"byteLength":384,
			"byteOffset":1501276,
			"target":34963
		},
		{
			"buffer":0,
			"byteLength":15305,
			"byteOffset":1501660
		},
		{
			"buffer":0,
			"byteLength":43103,
			"byteOffset":1516968
		},
		{
			"buffer":0,
			"byteLength":1200,
			"byteOffset":1560072,
			"target":34962
		},
		{
			"buffer":0,
			"byteLength":1200,
			"byteOffset":1561272,
			"target":34962
		},
		{
			"buffer":0,
			"byteLength":800,
			"byteOffset":1562472,
			"target":34962
		},
		{
			"buffer":0,
			"byteLength":396,
			"byteOffset":1563272,
			"target":34963
		},
		{
			"buffer":0,
			"byteLength":13191,
			"byteOffset":1563668
		},
		{
			"buffer":0,
			"byteLength":80159,
			"byteOffset":1576860
		},
		{
			"buffer":0,
			"byteLength":48,
			"byteOffset":1657020,
			"target":34962
		},
		{
			"buffer":0,
			"byteLength":48,
			"byteOffset":1657068,
			"target":34962
		},
		{
			"buffer":0,
			"byteLength":32,
			"byteOffset":1657116,
			"target":34962
		},
		{
			"buffer":0,
			"byteLength":12,
			"byteOffset":1657148,
			"target":34963
		},
		{
			"buffer":0,
			"byteLength":5858,
			"byteOffset":1657160
		},
		{
			"buffer":0,
			"byteLength":11440,
			"byteOffset":1663020
		}
	],
	"samplers":[
		{
			"magFilter":9729,
			"minFilter":9987
		}
	],
	"buffers":[
		{
			"byteLength":1674460,
			"uri":"data:application/octet-stream;base64,"
		}
	]
}
