{
	"asset":{
		"generator":"Khronos glTF Blender I/O v3.6.27",
		"version":"2.0"
	},
	"scene":0,
	"scenes":[
		{
			"name":"Scene",
			"nodes":[
				0
			]
		}
	],
	"nodes":[
		{
			"mesh":0,
			"name":"robotHomeless",
			"rotation":[
				0.7071068286895752,
				0,
				0,
				0.7071068286895752
			],
			"scale":[
				0.31969135999679565,
				0.31969135999679565,
				0.31969135999679565
			]
		}
	],
	"materials":[
		{
			"alphaMode":"BLEND",
			"doubleSided":true,
			"name":"Material",
			"normalTexture":{
				"index":0
			},
			"pbrMetallicRoughness":{
				"baseColorTexture":{
					"index":1
				},
				"metallicFactor":0.34545454382896423,
				"roughnessFactor":0.663636326789856
			}
		},
		{
			"alphaMode":"BLEND",
			"doubleSided":true,
			"name":"homelessLimbsMaterial",
			"normalTexture":{
				"index":2
			},
			"pbrMetallicRoughness":{
				"baseColorTexture":{
					"index":3
				},
				"metallicFactor":0.8409090638160706,
				"roughnessFactor":0.42551368474960327
			}
		},
		{
			"alphaMode":"BLEND",
			"doubleSided":true,
			"name":"homelessSteelMaterial",
			"normalTexture":{
				"index":4
			},
			"pbrMetallicRoughness":{
				"baseColorTexture":{
					"index":5
				},
				"metallicFactor":0.6909090876579285,
				"roughnessFactor":0.5527864098548889
			}
		},
		{
			"alphaMode":"BLEND",
			"doubleSided":true,
			"name":"homelessBulbMaterial",
			"normalTexture":{
				"index":6
			},
			"pbrMetallicRoughness":{
				"baseColorTexture":{
					"index":7
				},
				"metallicFactor":0.8454545736312866,
				"roughnessFactor":0.4073318839073181
			}
		},
		{
			"alphaMode":"BLEND",
			"doubleSided":true,
			"name":"homelessMaterialScreen",
			"normalTexture":{
				"index":8
			},
			"pbrMetallicRoughness":{
				"baseColorTexture":{
					"index":9
				},
				"metallicFactor":0.8363636136054993,
				"roughnessFactor":0.5527864098548889
			}
		},
		{
			"alphaMode":"BLEND",
			"doubleSided":true,
			"name":"homelessHeadMaterial1",
			"normalTexture":{
				"index":10
			},
			"pbrMetallicRoughness":{
				"baseColorTexture":{
					"index":11
				},
				"metallicFactor":0.5409091114997864,
				"roughnessFactor":0.5800591707229614
			}
		},
		{
			"alphaMode":"BLEND",
			"doubleSided":true,
			"name":"homelessHeadMaterial2",
			"normalTexture":{
				"index":12
			},
			"pbrMetallicRoughness":{
				"baseColorTexture":{
					"index":13
				},
				"metallicFactor":0.5954545736312866,
				"roughnessFactor":0.3846045732498169
			}
		},
		{
			"alphaMode":"BLEND",
			"doubleSided":true,
			"name":"standardSurface1",
			"pbrMetallicRoughness":{
				"metallicFactor":0,
				"roughnessFactor":0.5527864098548889
			}
		}
	],
	"meshes":[
		{
			"name":"Mesh",
			"primitives":[
				{
					"attributes":{
						"POSITION":0,
						"NORMAL":1,
						"TEXCOORD_0":2,
						"TEXCOORD_1":3
					},
					"indices":4,
					"material":0
				},
				{
					"attributes":{
						"POSITION":5,
						"NORMAL":6,
						"TEXCOORD_0":7,
						"TEXCOORD_1":8
					},
					"indices":9,
					"material":1
				},
				{
					"attributes":{
						"POSITION":10,
						"NORMAL":11,
						"TEXCOORD_0":12,
						"TEXCOORD_1":13
					},
					"indices":14,
					"material":2
				},
				{
					"attributes":{
						"POSITION":15,
						"NORMAL":16,
						"TEXCOORD_0":17,
						"TEXCOORD_1":18
					},
					"indices":19,
					"material":3
				},
				{
					"attributes":{
						"POSITION":20,
						"NORMAL":21,
						"TEXCOORD_0":22,
						"TEXCOORD_1":23
					},
					"indices":24,
					"material":4
				},
				{
					"attributes":{
						"POSITION":25,
						"NORMAL":26,
						"TEXCOORD_0":27,
						"TEXCOORD_1":28
					},
					"indices":29,
					"material":5
				},
				{
					"attributes":{
						"POSITION":30,
						"NORMAL":31,
						"TEXCOORD_0":32,
						"TEXCOORD_1":33
					},
					"indices":34,
					"material":6
				},
				{
					"attributes":{
						"POSITION":35,
						"NORMAL":36,
						"TEXCOORD_0":37,
						"TEXCOORD_1":38
					},
					"indices":39,
					"material":7
				}
			]
		}
	],
	"textures":[
		{
			"sampler":0,
			"source":0
		},
		{
			"sampler":0,
			"source":1
		},
		{
			"sampler":0,
			"source":2
		},
		{
			"sampler":0,
			"source":3
		},
		{
			"sampler":0,
			"source":4
		},
		{
			"sampler":0,
			"source":5
		},
		{
			"sampler":0,
			"source":6
		},
		{
			"sampler":0,
			"source":7
		},
		{
			"sampler":0,
			"source":8
		},
		{
			"sampler":0,
			"source":9
		},
		{
			"sampler":0,
			"source":10
		},
		{
			"sampler":0,
			"source":11
		},
		{
			"sampler":0,
			"source":12
		},
		{
			"sampler":0,
			"source":13
		}
	],
	"images":[
		{
			"bufferView":5,
			"mimeType":"image/png",
			"name":"robotHomeless_homelessTorsoMaterial_Normal"
		},
		{
			"bufferView":6,
			"mimeType":"image/png",
			"name":"robotHomeless_homelessTorsoMaterial_BaseColor"
		},
		{
			"bufferView":12,
			"mimeType":"image/png",
			"name":"robotHomeless_homelessLimbsMaterial_Normal"
		},
		{
			"bufferView":13,
			"mimeType":"image/png",
			"name":"robotHomeless_homelessLimbsMaterial_BaseColor"
		},
		{
			"bufferView":19,
			"mimeType":"image/png",
			"name":"robotHomeless_homelessSteelMaterial_Normal"
		},
		{
			"bufferView":20,
			"mimeType":"image/png",
			"name":"robotHomeless_homelessSteelMaterial_BaseColor"
		},
		{
			"bufferView":26,
			"mimeType":"image/png",
			"name":"robotHomeless_homelessBulbMaterial_Normal"
		},
		{
			"bufferView":27,
			"mimeType":"image/png",
			"name":"robotHomeless_homelessBulbMaterial_BaseColor"
		},
		{
			"bufferView":33,
			"mimeType":"image/png",
			"name":"robotHomeless_homelessMaterialScreen_Normal"
		},
		{
			"bufferView":34,
			"mimeType":"image/png",
			"name":"robotHomeless_homelessMaterialScreen_BaseColor"
		},
		{
			"bufferView":40,
			"mimeType":"image/png",
			"name":"robotHomeless_homelessHeadMaterial1_Normal"
		},
		{
			"bufferView":41,
			"mimeType":"image/png",
			"name":"robotHomeless_homelessHeadMaterial1_BaseColor"
		},
		{
			"bufferView":47,
			"mimeType":"image/png",
			"name":"robotHomeless_homelessHeadMaterial2_Normal"
		},
		{
			"bufferView":48,
			"mimeType":"image/png",
			"name":"robotHomeless_homelessHeadMaterial2_BaseColor"
		}
	],
	"accessors":[
		{
			"bufferView":0,
			"componentType":5126,
			"count":237,
			"max":[
				5.309020519256592,
				4.924265384674072,
				0.14061793684959412
			],
			"min":[
				-2.883378505706787,
				-8.133373260498047,
				-18.009288787841797
			],
			"type":"VEC3"
		},
		{
			"bufferView":1,
			"componentType":5126,
			"count":237,
			"type":"VEC3"
		},
		{
			"bufferView":2,
			"componentType":5126,
			"count":237,
			"type":"VEC2"
		},
		{
			"bufferView":3,
			"componentType":5126,
			"count":237,
			"type":"VEC2"
		},
		{
			"bufferView":4,
			"componentType":5123,
			"count":645,
			"type":"SCALAR"
		},
		{
			"bufferView":7,
			"componentType":5126,
			"count":934,
			"max":[
				10.501193046569824,
				5.281734943389893,
				0.3451838493347168
			],
			"min":[
				-1.2816894054412842,
				-8.490842819213867,
				-9.899547576904297
			],
			"type":"VEC3"
		},
		{
			"bufferView":8,
			"componentType":5126,
			"count":934,
			"type":"VEC3"
		},
		{
			"bufferView":9,
			"componentType":5126,
			"count":934,
			"type":"VEC2"
		},
		{
			"bufferView":10,
			"componentType":5126,
			"count":934,
			"type":"VEC2"
		},
		{
			"bufferView":11,
			"componentType":5123,
			"count":3072,
			"type":"SCALAR"
		},
		{
			"bufferView":14,
			"componentType":5126,
			"count":1123,
			"max":[
				6.7441582679748535,
				4.642200469970703,
				0.12710745632648468
			],
			"min":[
				-3.579371690750122,
				-7.851308345794678,
				-18.009288787841797
			],
			"type":"VEC3"
		},
		{
			"bufferView":15,
			"componentType":5126,
			"count":1123,
			"type":"VEC3"
		},
		{
			"bufferView":16,
			"componentType":5126,
			"count":1123,
			"type":"VEC2"
		},
		{
			"bufferView":17,
			"componentType":5126,
			"count":1123,
			"type":"VEC2"
		},
		{
			"bufferView":18,
			"componentType":5123,
			"count":3537,
			"type":"SCALAR"
		},
		{
			"bufferView":21,
			"componentType":5126,
			"count":1092,
			"max":[
				7.195215702056885,
				5.601341724395752,
				-4.3556623458862305
			],
			"min":[
				-1.0551344156265259,
				-8.810449600219727,
				-12.352654457092285
			],
			"type":"VEC3"
		},
		{
			"bufferView":22,
			"componentType":5126,
			"count":1092,
			"type":"VEC3"
		},
		{
			"bufferView":23,
			"componentType":5126,
			"count":1092,
			"type":"VEC2"
		},
		{
			"bufferView":24,
			"componentType":5126,
			"count":1092,
			"type":"VEC2"
		},
		{
			"bufferView":25,
			"componentType":5123,
			"count":3456,
			"type":"SCALAR"
		},
		{
			"bufferView":28,
			"componentType":5126,
			"count":8,
			"max":[
				5.485809326171875,
				3.3905982971191406,
				-8.848031997680664
			],
			"min":[
				0.03075164556503296,
				-6.508014678955078,
				-17.0320987701416
			],
			"type":"VEC3"
		},
		{
			"bufferView":29,
			"componentType":5126,
			"count":8,
			"type":"VEC3"
		},
		{
			"bufferView":30,
			"componentType":5126,
			"count":8,
			"type":"VEC2"
		},
		{
			"bufferView":31,
			"componentType":5126,
			"count":8,
			"type":"VEC2"
		},
		{
			"bufferView":32,
			"componentType":5123,
			"count":12,
			"type":"SCALAR"
		},
		{
			"bufferView":35,
			"componentType":5126,
			"count":114,
			"max":[
				6.011293411254883,
				3.7905960083007812,
				-12.368289947509766
			],
			"min":[
				-1.860886573791504,
				-6.908014297485352,
				-20.102914810180664
			],
			"type":"VEC3"
		},
		{
			"bufferView":36,
			"componentType":5126,
			"count":114,
			"type":"VEC3"
		},
		{
			"bufferView":37,
			"componentType":5126,
			"count":114,
			"type":"VEC2"
		},
		{
			"bufferView":38,
			"componentType":5126,
			"count":114,
			"type":"VEC2"
		},
		{
			"bufferView":39,
			"componentType":5123,
			"count":306,
			"type":"SCALAR"
		},
		{
			"bufferView":42,
			"componentType":5126,
			"count":118,
			"max":[
				6.461948394775391,
				4.089897155761719,
				-8.57158088684082
			],
			"min":[
				-0.05043894052505493,
				-7.207313537597656,
				-18.624937057495117
			],
			"type":"VEC3"
		},
		{
			"bufferView":43,
			"componentType":5126,
			"count":118,
			"type":"VEC3"
		},
		{
			"bufferView":44,
			"componentType":5126,
			"count":118,
			"type":"VEC2"
		},
		{
			"bufferView":45,
			"componentType":5126,
			"count":118,
			"type":"VEC2"
		},
		{
			"bufferView":46,
			"componentType":5123,
			"count":246,
			"type":"SCALAR"
		},
		{
			"bufferView":49,
			"componentType":5126,
			"count":4,
			"max":[
				1.0467795133590698,
				0.7048143148422241,
				-10.566937446594238
			],
			"min":[
				0.835900068283081,
				-3.8327136039733887,
				-10.66061019897461
			],
			"type":"VEC3"
		},
		{
			"bufferView":50,
			"componentType":5126,
			"count":4,
			"type":"VEC3"
		},
		{
			"bufferView":51,
			"componentType":5126,
			"count":4,
			"type":"VEC2"
		},
		{
			"bufferView":52,
			"componentType":5126,
			"count":4,
			"type":"VEC2"
		},
		{
			"bufferView":53,
			"componentType":5123,
			"count":6,
			"type":"SCALAR"
		}
	],
	"bufferViews":[
		{
			"buffer":0,
			"byteLength":2844,
			"byteOffset":0,
			"target":34962
		},
		{
			"buffer":0,
			"byteLength":2844,
			"byteOffset":2844,
			"target":34962
		},
		{
			"buffer":0,
			"byteLength":1896,
			"byteOffset":5688,
			"target":34962
		},
		{
			"buffer":0,
			"byteLength":1896,
			"byteOffset":7584,
			"target":34962
		},
		{
			"buffer":0,
			"byteLength":1290,
			"byteOffset":9480,
			"target":34963
		},
		{
			"buffer":0,
			"byteLength":203808,
			"byteOffset":10772
		},
		{
			"buffer":0,
			"byteLength":202129,
			"byteOffset":214580
		},
		{
			"buffer":0,
			"byteLength":11208,
			"byteOffset":416712,
			"target":34962
		},
		{
			"buffer":0,
			"byteLength":11208,
			"byteOffset":427920,
			"target":34962
		},
		{
			"buffer":0,
			"byteLength":7472,
			"byteOffset":439128,
			"target":34962
		},
		{
			"buffer":0,
			"byteLength":7472,
			"byteOffset":446600,
			"target":34962
		},
		{
			"buffer":0,
			"byteLength":6144,
			"byteOffset":454072,
			"target":34963
		},
		{
			"buffer":0,
			"byteLength":308555,
			"byteOffset":460216
		},
		{
			"buffer":0,
			"byteLength":300208,
			"byteOffset":768772
		},
		{
			"buffer":0,
			"byteLength":13476,
			"byteOffset":1068980,
			"target":34962
		},
		{
			"buffer":0,
			"byteLength":13476,
			"byteOffset":1082456,
			"target":34962
		},
		{
			"buffer":0,
			"byteLength":8984,
			"byteOffset":1095932,
			"target":34962
		},
		{
			"buffer":0,
			"byteLength":8984,
			"byteOffset":1104916,
			"target":34962
		},
		{
			"buffer":0,
			"byteLength":7074,
			"byteOffset":1113900,
			"target":34963
		},
		{
			"buffer":0,
			"byteLength":105706,
			"byteOffset":1120976
		},
		{
			"buffer":0,
			"byteLength":99035,
			"byteOffset":1226684
		},
		{
			"buffer":0,
			"byteLength":13104,
			"byteOffset":1325720,
			"target":34962
		},
		{
			"buffer":0,
			"byteLength":13104,
			"byteOffset":1338824,
			"target":34962
		},
		{
			"buffer":0,
			"byteLength":8736,
			"byteOffset":1351928,
			"target":34962
		},
		{
			"buffer":0,
			"byteLength":8736,
			"byteOffset":1360664,
			"target":34962
		},
		{
			"buffer":0,
			"byteLength":6912,
			"byteOffset":1369400,
			"target":34963
		},
		{
			"buffer":0,
			"byteLength":36776,
			"byteOffset":1376312
		},
		{
			"buffer":0,
			"byteLength":42337,
			"byteOffset":1413088
		},
		{
			"buffer":0,
			"byteLength":96,
			"byteOffset":1455428,
			"target":34962
		},
		{
			"buffer":0,
			"byteLength":96,
			"byteOffset":1455524,
			"target":34962
		},
		{
			"buffer":0,
			"byteLength":64,
			"byteOffset":1455620,
			"target":34962
		},
		{
			"buffer":0,
			"byteLength":64,
			"byteOffset":1455684,
			"target":34962
		},
		{
			"buffer":0,
			"byteLength":24,
			"byteOffset":1455748,
			"target":34963
		},
		{
			"buffer":0,
			"byteLength":15519,
			"byteOffset":1455772
		},
		{
			"buffer":0,
			"byteLength":36155,
			"byteOffset":1471292
		},
		{
			"buffer":0,
			"byteLength":1368,
			"byteOffset":1507448,
			"target":34962
		},
		{
			"buffer":0,
			"byteLength":1368,
			"byteOffset":1508816,
			"target":34962
		},
		{
			"buffer":0,
			"byteLength":912,
			"byteOffset":1510184,
			"target":34962
		},
		{
			"buffer":0,
			"byteLength":912,
			"byteOffset":1511096,
			"target":34962
		},
		{
			"buffer":0,
			"byteLength":612,
			"byteOffset":1512008,
			"target":34963
		},
		{
			"buffer":0,
			"byteLength":177845,
			"byteOffset":1512620
		},
		{
			"buffer":0,
			"byteLength":143341,
			"byteOffset":1690468
		},
		{
			"buffer":0,
			"byteLength":1416,
			"byteOffset":1833812,
			"target":34962
		},
		{
			"buffer":0,
			"byteLength":1416,
			"byteOffset":1835228,
			"target":34962
		},
		{
			"buffer":0,
			"byteLength":944,
			"byteOffset":1836644,
			"target":34962
		},
		{
			"buffer":0,
			"byteLength":944,
			"byteOffset":1837588,
			"target":34962
		},
		{
			"buffer":0,
			"byteLength":492,
			"byteOffset":1838532,
			"target":34963
		},
		{
			"buffer":0,
			"byteLength":17389,
			"byteOffset":1839024
		},
		{
			"buffer":0,
			"byteLength":34304,
			"byteOffset":1856416
		},
		{
			"buffer":0,
			"byteLength":48,
			"byteOffset":1890720,
			"target":34962
		},
		{
			"buffer":0,
			"byteLength":48,
			"byteOffset":1890768,
			"target":34962
		},
		{
			"buffer":0,
			"byteLength":32,
			"byteOffset":1890816,
			"target":34962
		},
		{
			"buffer":0,
			"byteLength":32,
			"byteOffset":1890848,
			"target":34962
		},
		{
			"buffer":0,
			"byteLength":12,
			"byteOffset":1890880,
			"target":34963
		}
	],
	"samplers":[
		{
			"magFilter":9729,
			"minFilter":9987
		}
	],
	"buffers":[
		{
			"byteLength":1890892,
			"uri":"data:application/octet-stream;base64,"
		}
	]
}
