{
	"asset":{
		"generator":"Khronos glTF Blender I/O v4.3.47",
		"version":"2.0"
	},
	"scene":0,
	"scenes":[
		{
			"name":"Scene",
			"nodes":[
				0
			]
		}
	],
	"nodes":[
		{
			"mesh":0,
			"name":"rubixCube",
			"rotation":[
				0.7071068286895752,
				0,
				0,
				0.7071068286895752
			],
			"scale":[
				0.6028211712837219,
				0.6028211712837219,
				0.6028211712837219
			],
			"translation":[
				3.1897695064544678,
				5.57421350479126,
				0.5151386857032776
			]
		}
	],
	"materials":[
		{
			"doubleSided":true,
			"name":"rubix2",
			"pbrMetallicRoughness":{
				"baseColorFactor":[
					0.17461314797401428,
					0.14750000834465027,
					0.5,
					1
				],
				"metallicFactor":0,
				"roughnessFactor":0.5527864098548889
			}
		},
		{
			"doubleSided":true,
			"name":"rubix3",
			"pbrMetallicRoughness":{
				"baseColorFactor":[
					0.21799999475479126,
					0.5,
					0.3156142830848694,
					1
				],
				"metallicFactor":0,
				"roughnessFactor":0.5527864098548889
			}
		},
		{
			"doubleSided":true,
			"name":"rubixBase",
			"pbrMetallicRoughness":{
				"baseColorFactor":[
					0.030856000259518623,
					0.03762560710310936,
					0.0560000017285347,
					1
				],
				"metallicFactor":0,
				"roughnessFactor":0.5527864098548889
			}
		},
		{
			"doubleSided":true,
			"name":"rubix4",
			"pbrMetallicRoughness":{
				"baseColorFactor":[
					0.5,
					0.48717138171195984,
					0.1665000021457672,
					1
				],
				"metallicFactor":0,
				"roughnessFactor":0.5527864098548889
			}
		},
		{
			"doubleSided":true,
			"name":"rubix1",
			"pbrMetallicRoughness":{
				"baseColorFactor":[
					0.5,
					0.125,
					0.5,
					1
				],
				"metallicFactor":0,
				"roughnessFactor":0.5527864098548889
			}
		}
	],
	"meshes":[
		{
			"name":"Mesh.008",
			"primitives":[
				{
					"attributes":{
						"POSITION":0,
						"NORMAL":1,
						"TEXCOORD_0":2
					},
					"indices":3,
					"material":0
				},
				{
					"attributes":{
						"POSITION":4,
						"NORMAL":5,
						"TEXCOORD_0":6
					},
					"indices":7,
					"material":1
				},
				{
					"attributes":{
						"POSITION":8,
						"NORMAL":9,
						"TEXCOORD_0":10
					},
					"indices":11,
					"material":2
				},
				{
					"attributes":{
						"POSITION":12,
						"NORMAL":13,
						"TEXCOORD_0":14
					},
					"indices":15,
					"material":3
				},
				{
					"attributes":{
						"POSITION":16,
						"NORMAL":17,
						"TEXCOORD_0":18
					},
					"indices":19,
					"material":4
				}
			]
		}
	],
	"accessors":[
		{
			"bufferView":0,
			"componentType":5126,
			"count":108,
			"max":[
				1.6797895431518555,
				1.675506591796875,
				1.6789436340332031
			],
			"min":[
				-1.679245948791504,
				-1.6752433776855469,
				-1.6800918579101562
			],
			"type":"VEC3"
		},
		{
			"bufferView":1,
			"componentType":5126,
			"count":108,
			"type":"VEC3"
		},
		{
			"bufferView":2,
			"componentType":5126,
			"count":108,
			"type":"VEC2"
		},
		{
			"bufferView":3,
			"componentType":5123,
			"count":162,
			"type":"SCALAR"
		},
		{
			"bufferView":4,
			"componentType":5126,
			"count":112,
			"max":[
				1.6797895431518555,
				1.675506591796875,
				1.6789436340332031
			],
			"min":[
				-1.679245948791504,
				-1.6776752471923828,
				-1.6800918579101562
			],
			"type":"VEC3"
		},
		{
			"bufferView":5,
			"componentType":5126,
			"count":112,
			"type":"VEC3"
		},
		{
			"bufferView":6,
			"componentType":5126,
			"count":112,
			"type":"VEC2"
		},
		{
			"bufferView":7,
			"componentType":5123,
			"count":168,
			"type":"SCALAR"
		},
		{
			"bufferView":8,
			"componentType":5126,
			"count":3240,
			"max":[
				1.6797895431518555,
				1.675506591796875,
				1.6789436340332031
			],
			"min":[
				-1.679245948791504,
				-1.6840782165527344,
				-1.680093765258789
			],
			"type":"VEC3"
		},
		{
			"bufferView":9,
			"componentType":5126,
			"count":3240,
			"type":"VEC3"
		},
		{
			"bufferView":10,
			"componentType":5126,
			"count":3240,
			"type":"VEC2"
		},
		{
			"bufferView":11,
			"componentType":5123,
			"count":6786,
			"type":"SCALAR"
		},
		{
			"bufferView":12,
			"componentType":5126,
			"count":112,
			"max":[
				1.5797853469848633,
				1.675506591796875,
				1.5789413452148438
			],
			"min":[
				-1.5792417526245117,
				-1.6752452850341797,
				-1.680093765258789
			],
			"type":"VEC3"
		},
		{
			"bufferView":13,
			"componentType":5126,
			"count":112,
			"type":"VEC3"
		},
		{
			"bufferView":14,
			"componentType":5126,
			"count":112,
			"type":"VEC2"
		},
		{
			"bufferView":15,
			"componentType":5123,
			"count":168,
			"type":"SCALAR"
		},
		{
			"bufferView":16,
			"componentType":5126,
			"count":112,
			"max":[
				1.669215202331543,
				1.6755046844482422,
				1.6683712005615234
			],
			"min":[
				-1.6710891723632812,
				-1.6836891174316406,
				-1.6695194244384766
			],
			"type":"VEC3"
		},
		{
			"bufferView":17,
			"componentType":5126,
			"count":112,
			"type":"VEC3"
		},
		{
			"bufferView":18,
			"componentType":5126,
			"count":112,
			"type":"VEC2"
		},
		{
			"bufferView":19,
			"componentType":5123,
			"count":168,
			"type":"SCALAR"
		}
	],
	"bufferViews":[
		{
			"buffer":0,
			"byteLength":1296,
			"byteOffset":0,
			"target":34962
		},
		{
			"buffer":0,
			"byteLength":1296,
			"byteOffset":1296,
			"target":34962
		},
		{
			"buffer":0,
			"byteLength":864,
			"byteOffset":2592,
			"target":34962
		},
		{
			"buffer":0,
			"byteLength":324,
			"byteOffset":3456,
			"target":34963
		},
		{
			"buffer":0,
			"byteLength":1344,
			"byteOffset":3780,
			"target":34962
		},
		{
			"buffer":0,
			"byteLength":1344,
			"byteOffset":5124,
			"target":34962
		},
		{
			"buffer":0,
			"byteLength":896,
			"byteOffset":6468,
			"target":34962
		},
		{
			"buffer":0,
			"byteLength":336,
			"byteOffset":7364,
			"target":34963
		},
		{
			"buffer":0,
			"byteLength":38880,
			"byteOffset":7700,
			"target":34962
		},
		{
			"buffer":0,
			"byteLength":38880,
			"byteOffset":46580,
			"target":34962
		},
		{
			"buffer":0,
			"byteLength":25920,
			"byteOffset":85460,
			"target":34962
		},
		{
			"buffer":0,
			"byteLength":13572,
			"byteOffset":111380,
			"target":34963
		},
		{
			"buffer":0,
			"byteLength":1344,
			"byteOffset":124952,
			"target":34962
		},
		{
			"buffer":0,
			"byteLength":1344,
			"byteOffset":126296,
			"target":34962
		},
		{
			"buffer":0,
			"byteLength":896,
			"byteOffset":127640,
			"target":34962
		},
		{
			"buffer":0,
			"byteLength":336,
			"byteOffset":128536,
			"target":34963
		},
		{
			"buffer":0,
			"byteLength":1344,
			"byteOffset":128872,
			"target":34962
		},
		{
			"buffer":0,
			"byteLength":1344,
			"byteOffset":130216,
			"target":34962
		},
		{
			"buffer":0,
			"byteLength":896,
			"byteOffset":131560,
			"target":34962
		},
		{
			"buffer":0,
			"byteLength":336,
			"byteOffset":132456,
			"target":34963
		}
	],
	"buffers":[
		{
			"byteLength":132792,
			"uri":"rubix.bin"
		}
	]
}
