{
	"asset":{
		"generator":"Khronos glTF Blender I/O v3.6.27",
		"version":"2.0"
	},
	"scene":0,
	"scenes":[
		{
			"name":"Scene",
			"nodes":[
				0
			]
		}
	],
	"nodes":[
		{
			"mesh":0,
			"name":"shelves",
			"rotation":[
				0.7071068286895752,
				0,
				0,
				0.7071068286895752
			],
			"scale":[
				0.21301984786987305,
				0.21301984786987305,
				0.21301984786987305
			]
		}
	],
	"materials":[
		{
			"doubleSided":true,
			"name":"glass1",
			"pbrMetallicRoughness":{
				"baseColorFactor":[
					0.10371467471122742,
					0.14369314908981323,
					0.16389378905296326,
					0.4166666865348816
				],
				"metallicFactor":0,
				"roughnessFactor":0.5527864098548889
			}
		},
		{
			"doubleSided":true,
			"name":"lightBrown",
			"pbrMetallicRoughness":{
				"baseColorFactor":[
					0.31700000166893005,
					0.22789961099624634,
					0.12394699454307556,
					1
				],
				"metallicFactor":0,
				"roughnessFactor":0.5527864098548889
			}
		},
		{
			"doubleSided":true,
			"name":"brownsugar",
			"pbrMetallicRoughness":{
				"baseColorFactor":[
					0.15299999713897705,
					0.1263483166694641,
					0.05400899797677994,
					1
				],
				"metallicFactor":0,
				"roughnessFactor":0.5527864098548889
			}
		},
		{
			"doubleSided":true,
			"name":"white2",
			"pbrMetallicRoughness":{
				"baseColorFactor":[
					0.5,
					0.5,
					0.5,
					1
				],
				"metallicFactor":0,
				"roughnessFactor":0.5527864098548889
			}
		},
		{
			"doubleSided":true,
			"name":"wood1",
			"pbrMetallicRoughness":{
				"baseColorFactor":[
					0.16099999845027924,
					0.10146162658929825,
					0.05779900401830673,
					1
				],
				"metallicFactor":0,
				"roughnessFactor":0.5527864098548889
			}
		},
		{
			"doubleSided":true,
			"name":"sugar",
			"pbrMetallicRoughness":{
				"baseColorFactor":[
					0.5,
					0.5,
					0.5,
					1
				],
				"metallicFactor":0,
				"roughnessFactor":0.5527864098548889
			}
		},
		{
			"doubleSided":true,
			"name":"green2",
			"pbrMetallicRoughness":{
				"baseColorFactor":[
					0.11794386804103851,
					0.14800000190734863,
					0.05031999573111534,
					1
				],
				"metallicFactor":0,
				"roughnessFactor":0.5527864098548889
			}
		},
		{
			"doubleSided":true,
			"name":"standardSurface12",
			"pbrMetallicRoughness":{
				"metallicFactor":0,
				"roughnessFactor":0.5527864098548889
			}
		}
	],
	"meshes":[
		{
			"name":"Mesh.001",
			"primitives":[
				{
					"attributes":{
						"POSITION":0,
						"NORMAL":1,
						"TEXCOORD_0":2
					},
					"indices":3,
					"material":0
				},
				{
					"attributes":{
						"POSITION":4,
						"NORMAL":5,
						"TEXCOORD_0":6
					},
					"indices":3,
					"material":1
				},
				{
					"attributes":{
						"POSITION":7,
						"NORMAL":8,
						"TEXCOORD_0":9
					},
					"indices":10,
					"material":2
				},
				{
					"attributes":{
						"POSITION":11,
						"NORMAL":12,
						"TEXCOORD_0":13
					},
					"indices":14,
					"material":3
				},
				{
					"attributes":{
						"POSITION":15,
						"NORMAL":16,
						"TEXCOORD_0":17
					},
					"indices":18,
					"material":4
				},
				{
					"attributes":{
						"POSITION":19,
						"NORMAL":20,
						"TEXCOORD_0":21
					},
					"indices":22,
					"material":5
				},
				{
					"attributes":{
						"POSITION":23,
						"NORMAL":24,
						"TEXCOORD_0":25
					},
					"indices":26,
					"material":6
				},
				{
					"attributes":{
						"POSITION":27,
						"NORMAL":28,
						"TEXCOORD_0":29
					},
					"indices":30,
					"material":7
				}
			]
		}
	],
	"accessors":[
		{
			"bufferView":0,
			"componentType":5126,
			"count":830,
			"max":[
				12.657482147216797,
				1.896449327468872,
				2.9436283111572266
			],
			"min":[
				-13.912467956542969,
				-1.8964500427246094,
				-10.079639434814453
			],
			"type":"VEC3"
		},
		{
			"bufferView":1,
			"componentType":5126,
			"count":830,
			"type":"VEC3"
		},
		{
			"bufferView":2,
			"componentType":5126,
			"count":830,
			"type":"VEC2"
		},
		{
			"bufferView":3,
			"componentType":5123,
			"count":3600,
			"type":"SCALAR"
		},
		{
			"bufferView":4,
			"componentType":5126,
			"count":830,
			"max":[
				12.427504539489746,
				1.6664713621139526,
				-0.7560939788818359
			],
			"min":[
				-13.776750564575195,
				-1.6664719581604004,
				-10.89361572265625
			],
			"type":"VEC3"
		},
		{
			"bufferView":5,
			"componentType":5126,
			"count":830,
			"type":"VEC3"
		},
		{
			"bufferView":6,
			"componentType":5126,
			"count":830,
			"type":"VEC2"
		},
		{
			"bufferView":7,
			"componentType":5126,
			"count":498,
			"max":[
				-5.691827774047852,
				1.067570686340332,
				-5.258056640625
			],
			"min":[
				-13.86088752746582,
				-1.0675712823867798,
				-8.510570526123047
			],
			"type":"VEC3"
		},
		{
			"bufferView":8,
			"componentType":5126,
			"count":498,
			"type":"VEC3"
		},
		{
			"bufferView":9,
			"componentType":5126,
			"count":498,
			"type":"VEC2"
		},
		{
			"bufferView":10,
			"componentType":5123,
			"count":2160,
			"type":"SCALAR"
		},
		{
			"bufferView":11,
			"componentType":5126,
			"count":6864,
			"max":[
				9.143274307250977,
				3.6326026916503906,
				2.962588310241699
			],
			"min":[
				-13.67611312866211,
				-3.148409366607666,
				-7.476799011230469
			],
			"type":"VEC3"
		},
		{
			"bufferView":12,
			"componentType":5126,
			"count":6864,
			"type":"VEC3"
		},
		{
			"bufferView":13,
			"componentType":5126,
			"count":6864,
			"type":"VEC2"
		},
		{
			"bufferView":14,
			"componentType":5123,
			"count":25614,
			"type":"SCALAR"
		},
		{
			"bufferView":15,
			"componentType":5126,
			"count":192,
			"max":[
				14.700662612915039,
				2.3693861961364746,
				4.613528251647949
			],
			"min":[
				-14.700662612915039,
				-2.3693861961364746,
				-5.281551361083984
			],
			"type":"VEC3"
		},
		{
			"bufferView":16,
			"componentType":5126,
			"count":192,
			"type":"VEC3"
		},
		{
			"bufferView":17,
			"componentType":5126,
			"count":192,
			"type":"VEC2"
		},
		{
			"bufferView":18,
			"componentType":5123,
			"count":264,
			"type":"SCALAR"
		},
		{
			"bufferView":19,
			"componentType":5126,
			"count":332,
			"max":[
				12.570075988769531,
				1.8090423345565796,
				2.888174057006836
			],
			"min":[
				4.184110641479492,
				-1.8090429306030273,
				0.3669929504394531
			],
			"type":"VEC3"
		},
		{
			"bufferView":20,
			"componentType":5126,
			"count":332,
			"type":"VEC3"
		},
		{
			"bufferView":21,
			"componentType":5126,
			"count":332,
			"type":"VEC2"
		},
		{
			"bufferView":22,
			"componentType":5123,
			"count":1440,
			"type":"SCALAR"
		},
		{
			"bufferView":23,
			"componentType":5126,
			"count":1898,
			"max":[
				13.376309394836426,
				1.5454208850860596,
				-6.926717758178711
			],
			"min":[
				10.00666332244873,
				-1.6007452011108398,
				-12.439645767211914
			],
			"type":"VEC3"
		},
		{
			"bufferView":24,
			"componentType":5126,
			"count":1898,
			"type":"VEC3"
		},
		{
			"bufferView":25,
			"componentType":5126,
			"count":1898,
			"type":"VEC2"
		},
		{
			"bufferView":26,
			"componentType":5123,
			"count":7800,
			"type":"SCALAR"
		},
		{
			"bufferView":27,
			"componentType":5126,
			"count":266,
			"max":[
				12.875458717346191,
				1.2672673463821411,
				-5.332334518432617
			],
			"min":[
				10.340923309326172,
				-1.2672678232192993,
				-8.577051162719727
			],
			"type":"VEC3"
		},
		{
			"bufferView":28,
			"componentType":5126,
			"count":266,
			"type":"VEC3"
		},
		{
			"bufferView":29,
			"componentType":5126,
			"count":266,
			"type":"VEC2"
		},
		{
			"bufferView":30,
			"componentType":5123,
			"count":1080,
			"type":"SCALAR"
		}
	],
	"bufferViews":[
		{
			"buffer":0,
			"byteLength":9960,
			"byteOffset":0,
			"target":34962
		},
		{
			"buffer":0,
			"byteLength":9960,
			"byteOffset":9960,
			"target":34962
		},
		{
			"buffer":0,
			"byteLength":6640,
			"byteOffset":19920,
			"target":34962
		},
		{
			"buffer":0,
			"byteLength":7200,
			"byteOffset":26560,
			"target":34963
		},
		{
			"buffer":0,
			"byteLength":9960,
			"byteOffset":33760,
			"target":34962
		},
		{
			"buffer":0,
			"byteLength":9960,
			"byteOffset":43720,
			"target":34962
		},
		{
			"buffer":0,
			"byteLength":6640,
			"byteOffset":53680,
			"target":34962
		},
		{
			"buffer":0,
			"byteLength":5976,
			"byteOffset":60320,
			"target":34962
		},
		{
			"buffer":0,
			"byteLength":5976,
			"byteOffset":66296,
			"target":34962
		},
		{
			"buffer":0,
			"byteLength":3984,
			"byteOffset":72272,
			"target":34962
		},
		{
			"buffer":0,
			"byteLength":4320,
			"byteOffset":76256,
			"target":34963
		},
		{
			"buffer":0,
			"byteLength":82368,
			"byteOffset":80576,
			"target":34962
		},
		{
			"buffer":0,
			"byteLength":82368,
			"byteOffset":162944,
			"target":34962
		},
		{
			"buffer":0,
			"byteLength":54912,
			"byteOffset":245312,
			"target":34962
		},
		{
			"buffer":0,
			"byteLength":51228,
			"byteOffset":300224,
			"target":34963
		},
		{
			"buffer":0,
			"byteLength":2304,
			"byteOffset":351452,
			"target":34962
		},
		{
			"buffer":0,
			"byteLength":2304,
			"byteOffset":353756,
			"target":34962
		},
		{
			"buffer":0,
			"byteLength":1536,
			"byteOffset":356060,
			"target":34962
		},
		{
			"buffer":0,
			"byteLength":528,
			"byteOffset":357596,
			"target":34963
		},
		{
			"buffer":0,
			"byteLength":3984,
			"byteOffset":358124,
			"target":34962
		},
		{
			"buffer":0,
			"byteLength":3984,
			"byteOffset":362108,
			"target":34962
		},
		{
			"buffer":0,
			"byteLength":2656,
			"byteOffset":366092,
			"target":34962
		},
		{
			"buffer":0,
			"byteLength":2880,
			"byteOffset":368748,
			"target":34963
		},
		{
			"buffer":0,
			"byteLength":22776,
			"byteOffset":371628,
			"target":34962
		},
		{
			"buffer":0,
			"byteLength":22776,
			"byteOffset":394404,
			"target":34962
		},
		{
			"buffer":0,
			"byteLength":15184,
			"byteOffset":417180,
			"target":34962
		},
		{
			"buffer":0,
			"byteLength":15600,
			"byteOffset":432364,
			"target":34963
		},
		{
			"buffer":0,
			"byteLength":3192,
			"byteOffset":447964,
			"target":34962
		},
		{
			"buffer":0,
			"byteLength":3192,
			"byteOffset":451156,
			"target":34962
		},
		{
			"buffer":0,
			"byteLength":2128,
			"byteOffset":454348,
			"target":34962
		},
		{
			"buffer":0,
			"byteLength":2160,
			"byteOffset":456476,
			"target":34963
		}
	],
	"buffers":[
		{
			"byteLength":458636,
			"uri":"data:application/octet-stream;base64,"
		}
	]
}
