{
	"asset":{
		"generator":"Khronos glTF Blender I/O v4.3.47",
		"version":"2.0"
	},
	"scene":0,
	"scenes":[
		{
			"name":"Scene",
			"nodes":[
				0
			]
		}
	],
	"nodes":[
		{
			"mesh":0,
			"name":"book.008",
			"rotation":[
				-0.6854651570320129,
				0.17360180616378784,
				0.1736016720533371,
				0.6854651570320129
			],
			"scale":[
				1.854710340499878,
				2.5167486667633057,
				0.5231515169143677
			],
			"translation":[
				-9.06600570678711,
				3.940650224685669,
				-3.2089791297912598
			]
		}
	],
	"materials":[
		{
			"doubleSided":true,
			"name":"bookPaper",
			"pbrMetallicRoughness":{
				"baseColorFactor":[
					0.9473066926002502,
					0.8889737129211426,
					0.9145341515541077,
					1
				],
				"metallicFactor":0,
				"roughnessFactor":0.5527864098548889
			}
		},
		{
			"doubleSided":true,
			"name":"bookCover.003",
			"normalTexture":{
				"index":0
			},
			"pbrMetallicRoughness":{
				"baseColorTexture":{
					"index":1
				},
				"metallicRoughnessTexture":{
					"index":2
				}
			}
		},
		{
			"doubleSided":true,
			"name":"endTable1",
			"normalTexture":{
				"index":3
			},
			"pbrMetallicRoughness":{
				"baseColorTexture":{
					"index":4
				},
				"metallicRoughnessTexture":{
					"index":5
				}
			}
		},
		{
			"doubleSided":true,
			"name":"endTable2",
			"normalTexture":{
				"index":6
			},
			"pbrMetallicRoughness":{
				"baseColorTexture":{
					"index":7
				},
				"metallicRoughnessTexture":{
					"index":8
				}
			}
		},
		{
			"doubleSided":true,
			"name":"bookPaper.001",
			"pbrMetallicRoughness":{
				"baseColorFactor":[
					0.9473066926002502,
					0.8889737129211426,
					0.9145341515541077,
					1
				],
				"metallicFactor":0,
				"roughnessFactor":0.5527864098548889
			}
		},
		{
			"doubleSided":true,
			"name":"bookCover.001",
			"normalTexture":{
				"index":9
			},
			"pbrMetallicRoughness":{
				"baseColorTexture":{
					"index":10
				},
				"metallicRoughnessTexture":{
					"index":11
				}
			}
		}
	],
	"meshes":[
		{
			"name":"Mesh.027",
			"primitives":[
				{
					"attributes":{
						"POSITION":0,
						"NORMAL":1,
						"TEXCOORD_0":2
					},
					"indices":3,
					"material":0
				},
				{
					"attributes":{
						"POSITION":4,
						"NORMAL":5,
						"TEXCOORD_0":6
					},
					"indices":7,
					"material":1
				},
				{
					"attributes":{
						"POSITION":8,
						"NORMAL":9,
						"TEXCOORD_0":10
					},
					"indices":11,
					"material":2
				},
				{
					"attributes":{
						"POSITION":12,
						"NORMAL":13,
						"TEXCOORD_0":14
					},
					"indices":15,
					"material":3
				},
				{
					"attributes":{
						"POSITION":16,
						"NORMAL":17,
						"TEXCOORD_0":18
					},
					"indices":19,
					"material":4
				},
				{
					"attributes":{
						"POSITION":20,
						"NORMAL":21,
						"TEXCOORD_0":22
					},
					"indices":23,
					"material":5
				}
			]
		}
	],
	"textures":[
		{
			"sampler":0,
			"source":0
		},
		{
			"sampler":0,
			"source":1
		},
		{
			"sampler":0,
			"source":2
		},
		{
			"sampler":0,
			"source":3
		},
		{
			"sampler":0,
			"source":4
		},
		{
			"sampler":0,
			"source":5
		},
		{
			"sampler":0,
			"source":6
		},
		{
			"sampler":0,
			"source":7
		},
		{
			"sampler":0,
			"source":8
		},
		{
			"sampler":0,
			"source":0
		},
		{
			"sampler":0,
			"source":9
		},
		{
			"sampler":0,
			"source":2
		}
	],
	"images":[
		{
			"mimeType":"image/png",
			"name":"book_bookCover_Normal",
			"uri":"book_bookCover_Normal.png"
		},
		{
			"mimeType":"image/png",
			"name":"bookBaseColorBlue",
			"uri":"bookBaseColorBlue.png"
		},
		{
			"mimeType":"image/png",
			"name":"book_bookCover_Metallic-book_bookCover_Roughness",
			"uri":"book_bookCover_Metallic-book_bookCover_Roughness.png"
		},
		{
			"mimeType":"image/png",
			"name":"endTable_endTable1_Normal",
			"uri":"endTable_endTable1_Normal.png"
		},
		{
			"mimeType":"image/png",
			"name":"endTable_endTable1_BaseColor",
			"uri":"endTable_endTable1_BaseColor.png"
		},
		{
			"mimeType":"image/png",
			"name":"endTable_endTable1_Metallic-endTable_endTable1_Roughness",
			"uri":"endTable_endTable1_Metallic-endTable_endTable1_Roughness.png"
		},
		{
			"mimeType":"image/png",
			"name":"endTable_endTable2_Normal",
			"uri":"endTable_endTable2_Normal.png"
		},
		{
			"mimeType":"image/png",
			"name":"endTable_endTable2_BaseColor",
			"uri":"endTable_endTable2_BaseColor.png"
		},
		{
			"mimeType":"image/png",
			"name":"endTable_endTable2_Metallic-endTable_endTable2_Roughness",
			"uri":"endTable_endTable2_Metallic-endTable_endTable2_Roughness.png"
		},
		{
			"mimeType":"image/png",
			"name":"bookBaseColorGreen",
			"uri":"bookBaseColorGreen.png"
		}
	],
	"accessors":[
		{
			"bufferView":0,
			"componentType":5126,
			"count":12,
			"max":[
				0.446469783782959,
				0.4605512320995331,
				0.3059091567993164
			],
			"min":[
				-0.43520641326904297,
				-0.4605512320995331,
				-0.30591392517089844
			],
			"type":"VEC3"
		},
		{
			"bufferView":1,
			"componentType":5126,
			"count":12,
			"type":"VEC3"
		},
		{
			"bufferView":2,
			"componentType":5126,
			"count":12,
			"type":"VEC2"
		},
		{
			"bufferView":3,
			"componentType":5123,
			"count":18,
			"type":"SCALAR"
		},
		{
			"bufferView":4,
			"componentType":5126,
			"count":216,
			"max":[
				0.4999997615814209,
				0.5,
				0.4999971389770508
			],
			"min":[
				-0.4999995231628418,
				-0.5,
				-0.5000028610229492
			],
			"type":"VEC3"
		},
		{
			"bufferView":5,
			"componentType":5126,
			"count":216,
			"type":"VEC3"
		},
		{
			"bufferView":6,
			"componentType":5126,
			"count":216,
			"type":"VEC2"
		},
		{
			"bufferView":7,
			"componentType":5123,
			"count":378,
			"type":"SCALAR"
		},
		{
			"bufferView":8,
			"componentType":5126,
			"count":108,
			"max":[
				1.8025819063186646,
				0.838762640953064,
				-0.6382097005844116
			],
			"min":[
				-1.1413511037826538,
				-1.1337904930114746,
				-15.780189514160156
			],
			"type":"VEC3"
		},
		{
			"bufferView":9,
			"componentType":5126,
			"count":108,
			"type":"VEC3"
		},
		{
			"bufferView":10,
			"componentType":5126,
			"count":108,
			"type":"VEC2"
		},
		{
			"bufferView":11,
			"componentType":5123,
			"count":222,
			"type":"SCALAR"
		},
		{
			"bufferView":12,
			"componentType":5126,
			"count":116,
			"max":[
				1.8638741970062256,
				0.8839322328567505,
				-0.4140133857727051
			],
			"min":[
				-1.2033860683441162,
				-1.1810736656188965,
				-0.6382116675376892
			],
			"type":"VEC3"
		},
		{
			"bufferView":13,
			"componentType":5126,
			"count":116,
			"type":"VEC3"
		},
		{
			"bufferView":14,
			"componentType":5126,
			"count":116,
			"type":"VEC2"
		},
		{
			"bufferView":15,
			"componentType":5123,
			"count":366,
			"type":"SCALAR"
		},
		{
			"bufferView":16,
			"componentType":5126,
			"count":12,
			"max":[
				0.5806376934051514,
				0.4768104553222656,
				1.2644987106323242
			],
			"min":[
				-0.5253649353981018,
				-0.4737243950366974,
				0.7302075624465942
			],
			"type":"VEC3"
		},
		{
			"bufferView":17,
			"componentType":5126,
			"count":12,
			"type":"VEC3"
		},
		{
			"bufferView":18,
			"componentType":5126,
			"count":12,
			"type":"VEC2"
		},
		{
			"bufferView":19,
			"componentType":5123,
			"count":18,
			"type":"SCALAR"
		},
		{
			"bufferView":20,
			"componentType":5126,
			"count":216,
			"max":[
				0.6366953253746033,
				0.5236312747001648,
				1.4339913129806519
			],
			"min":[
				-0.592057466506958,
				-0.5150359272956848,
				0.5607141256332397
			],
			"type":"VEC3"
		},
		{
			"bufferView":21,
			"componentType":5126,
			"count":216,
			"type":"VEC3"
		},
		{
			"bufferView":22,
			"componentType":5126,
			"count":216,
			"type":"VEC2"
		},
		{
			"bufferView":23,
			"componentType":5123,
			"count":378,
			"type":"SCALAR"
		}
	],
	"bufferViews":[
		{
			"buffer":0,
			"byteLength":144,
			"byteOffset":0,
			"target":34962
		},
		{
			"buffer":0,
			"byteLength":144,
			"byteOffset":144,
			"target":34962
		},
		{
			"buffer":0,
			"byteLength":96,
			"byteOffset":288,
			"target":34962
		},
		{
			"buffer":0,
			"byteLength":36,
			"byteOffset":384,
			"target":34963
		},
		{
			"buffer":0,
			"byteLength":2592,
			"byteOffset":420,
			"target":34962
		},
		{
			"buffer":0,
			"byteLength":2592,
			"byteOffset":3012,
			"target":34962
		},
		{
			"buffer":0,
			"byteLength":1728,
			"byteOffset":5604,
			"target":34962
		},
		{
			"buffer":0,
			"byteLength":756,
			"byteOffset":7332,
			"target":34963
		},
		{
			"buffer":0,
			"byteLength":1296,
			"byteOffset":8088,
			"target":34962
		},
		{
			"buffer":0,
			"byteLength":1296,
			"byteOffset":9384,
			"target":34962
		},
		{
			"buffer":0,
			"byteLength":864,
			"byteOffset":10680,
			"target":34962
		},
		{
			"buffer":0,
			"byteLength":444,
			"byteOffset":11544,
			"target":34963
		},
		{
			"buffer":0,
			"byteLength":1392,
			"byteOffset":11988,
			"target":34962
		},
		{
			"buffer":0,
			"byteLength":1392,
			"byteOffset":13380,
			"target":34962
		},
		{
			"buffer":0,
			"byteLength":928,
			"byteOffset":14772,
			"target":34962
		},
		{
			"buffer":0,
			"byteLength":732,
			"byteOffset":15700,
			"target":34963
		},
		{
			"buffer":0,
			"byteLength":144,
			"byteOffset":16432,
			"target":34962
		},
		{
			"buffer":0,
			"byteLength":144,
			"byteOffset":16576,
			"target":34962
		},
		{
			"buffer":0,
			"byteLength":96,
			"byteOffset":16720,
			"target":34962
		},
		{
			"buffer":0,
			"byteLength":36,
			"byteOffset":16816,
			"target":34963
		},
		{
			"buffer":0,
			"byteLength":2592,
			"byteOffset":16852,
			"target":34962
		},
		{
			"buffer":0,
			"byteLength":2592,
			"byteOffset":19444,
			"target":34962
		},
		{
			"buffer":0,
			"byteLength":1728,
			"byteOffset":22036,
			"target":34962
		},
		{
			"buffer":0,
			"byteLength":756,
			"byteOffset":23764,
			"target":34963
		}
	],
	"samplers":[
		{
			"magFilter":9729,
			"minFilter":9987
		}
	],
	"buffers":[
		{
			"byteLength":24520,
			"uri":"table.bin"
		}
	]
}
