{
	"asset":{
		"generator":"Khronos glTF Blender I/O v4.3.47",
		"version":"2.0"
	},
	"scene":0,
	"scenes":[
		{
			"name":"Scene",
			"nodes":[
				0
			]
		}
	],
	"nodes":[
		{
			"mesh":0,
			"name":"teddy",
			"rotation":[
				0.6120534539222717,
				0.25719401240348816,
				-0.14012806117534637,
				0.7345788478851318
			],
			"scale":[
				1.0584630966186523,
				1.0584630966186523,
				1.0584628582000732
			],
			"translation":[
				-0.05985832214355469,
				0.7524159550666809,
				0.15685701370239258
			]
		}
	],
	"materials":[
		{
			"doubleSided":true,
			"name":"teddyBase",
			"pbrMetallicRoughness":{
				"baseColorFactor":[
					0.21299999952316284,
					0.15942290425300598,
					0.09691499918699265,
					1
				],
				"metallicFactor":0,
				"roughnessFactor":0.5527864098548889
			}
		},
		{
			"doubleSided":true,
			"name":"teddyNose",
			"pbrMetallicRoughness":{
				"baseColorFactor":[
					0.06400000303983688,
					0.045243289321660995,
					0.023360000923275948,
					1
				],
				"metallicFactor":0,
				"roughnessFactor":0.5527864098548889
			}
		}
	],
	"meshes":[
		{
			"name":"Mesh.001",
			"primitives":[
				{
					"attributes":{
						"POSITION":0,
						"NORMAL":1,
						"TEXCOORD_0":2
					},
					"indices":3,
					"material":0
				},
				{
					"attributes":{
						"POSITION":4,
						"NORMAL":5,
						"TEXCOORD_0":6
					},
					"indices":7,
					"material":1
				}
			]
		}
	],
	"accessors":[
		{
			"bufferView":0,
			"componentType":5126,
			"count":19952,
			"max":[
				2.4290218353271484,
				1.361624002456665,
				2.716705799102783
			],
			"min":[
				-2.354246139526367,
				-1.301247239112854,
				-3.2548348903656006
			],
			"type":"VEC3"
		},
		{
			"bufferView":1,
			"componentType":5126,
			"count":19952,
			"type":"VEC3"
		},
		{
			"bufferView":2,
			"componentType":5126,
			"count":19952,
			"type":"VEC2"
		},
		{
			"bufferView":3,
			"componentType":5123,
			"count":113664,
			"type":"SCALAR"
		},
		{
			"bufferView":4,
			"componentType":5126,
			"count":375,
			"max":[
				0.7257499694824219,
				1.3503625392913818,
				-1.389324426651001
			],
			"min":[
				-0.6267948150634766,
				0.7892525792121887,
				-2.0181567668914795
			],
			"type":"VEC3"
		},
		{
			"bufferView":5,
			"componentType":5126,
			"count":375,
			"type":"VEC3"
		},
		{
			"bufferView":6,
			"componentType":5126,
			"count":375,
			"type":"VEC2"
		},
		{
			"bufferView":7,
			"componentType":5123,
			"count":1728,
			"type":"SCALAR"
		}
	],
	"bufferViews":[
		{
			"buffer":0,
			"byteLength":239424,
			"byteOffset":0,
			"target":34962
		},
		{
			"buffer":0,
			"byteLength":239424,
			"byteOffset":239424,
			"target":34962
		},
		{
			"buffer":0,
			"byteLength":159616,
			"byteOffset":478848,
			"target":34962
		},
		{
			"buffer":0,
			"byteLength":227328,
			"byteOffset":638464,
			"target":34963
		},
		{
			"buffer":0,
			"byteLength":4500,
			"byteOffset":865792,
			"target":34962
		},
		{
			"buffer":0,
			"byteLength":4500,
			"byteOffset":870292,
			"target":34962
		},
		{
			"buffer":0,
			"byteLength":3000,
			"byteOffset":874792,
			"target":34962
		},
		{
			"buffer":0,
			"byteLength":3456,
			"byteOffset":877792,
			"target":34963
		}
	],
	"buffers":[
		{
			"byteLength":881248,
			"uri":"teddy.bin"
		}
	]
}
