{
	"asset":{
		"generator":"Khronos glTF Blender I/O v3.6.27",
		"version":"2.0"
	},
	"scene":0,
	"scenes":[
		{
			"name":"Scene",
			"nodes":[
				0
			]
		}
	],
	"nodes":[
		{
			"mesh":0,
			"name":"robot",
			"rotation":[
				0.7071067690849304,
				0,
				0,
				0.7071068286895752
			],
			"scale":[
				0.19912578165531158,
				0.19912578165531158,
				0.19912578165531158
			],
			"translation":[
				-0.00714111328125,
				0,
				0
			]
		}
	],
	"materials":[
		{
			"doubleSided":true,
			"name":"robotOrange",
			"pbrMetallicRoughness":{
				"baseColorTexture":{
					"index":0
				},
				"metallicRoughnessTexture":{
					"index":1
				}
			}
		},
		{
			"doubleSided":true,
			"name":"robotBase",
			"pbrMetallicRoughness":{
				"baseColorTexture":{
					"index":2
				},
				"metallicFactor":0.8681818246841431,
				"roughnessFactor":0.4436954855918884
			}
		},
		{
			"doubleSided":true,
			"name":"robotMetal",
			"pbrMetallicRoughness":{
				"baseColorTexture":{
					"index":3
				},
				"metallicFactor":0.8954545259475708,
				"roughnessFactor":0.29369550943374634
			}
		},
		{
			"doubleSided":true,
			"name":"robotYellow",
			"pbrMetallicRoughness":{
				"baseColorTexture":{
					"index":4
				},
				"metallicRoughnessTexture":{
					"index":5
				}
			}
		},
		{
			"doubleSided":true,
			"name":"robotRed",
			"pbrMetallicRoughness":{
				"baseColorFactor":[
					0.4307275116443634,
					0.05773542821407318,
					0.03855881839990616,
					1
				],
				"metallicRoughnessTexture":{
					"index":6
				}
			}
		},
		{
			"doubleSided":true,
			"name":"robotBlack",
			"pbrMetallicRoughness":{
				"baseColorTexture":{
					"index":7
				},
				"metallicRoughnessTexture":{
					"index":8
				}
			}
		},
		{
			"doubleSided":true,
			"name":"robotSpinner",
			"pbrMetallicRoughness":{
				"baseColorTexture":{
					"index":9
				},
				"metallicRoughnessTexture":{
					"index":10
				}
			}
		},
		{
			"doubleSided":true,
			"name":"standardSurface1",
			"pbrMetallicRoughness":{
				"metallicFactor":0,
				"roughnessFactor":0.5527864098548889
			}
		}
	],
	"meshes":[
		{
			"name":"Mesh.003",
			"primitives":[
				{
					"attributes":{
						"POSITION":0,
						"NORMAL":1,
						"TEXCOORD_0":2
					},
					"indices":3,
					"material":0
				},
				{
					"attributes":{
						"POSITION":4,
						"NORMAL":5,
						"TEXCOORD_0":6
					},
					"indices":7,
					"material":1
				},
				{
					"attributes":{
						"POSITION":8,
						"NORMAL":9,
						"TEXCOORD_0":10
					},
					"indices":11,
					"material":2
				},
				{
					"attributes":{
						"POSITION":12,
						"NORMAL":13,
						"TEXCOORD_0":14
					},
					"indices":15,
					"material":3
				},
				{
					"attributes":{
						"POSITION":16,
						"NORMAL":17,
						"TEXCOORD_0":18
					},
					"indices":19,
					"material":4
				},
				{
					"attributes":{
						"POSITION":20,
						"NORMAL":21,
						"TEXCOORD_0":22
					},
					"indices":23,
					"material":5
				},
				{
					"attributes":{
						"POSITION":24,
						"NORMAL":25,
						"TEXCOORD_0":26
					},
					"indices":27,
					"material":6
				},
				{
					"attributes":{
						"POSITION":28,
						"NORMAL":29,
						"TEXCOORD_0":30
					},
					"indices":31,
					"material":7
				}
			]
		}
	],
	"textures":[
		{
			"sampler":0,
			"source":0
		},
		{
			"sampler":0,
			"source":1
		},
		{
			"sampler":0,
			"source":2
		},
		{
			"sampler":0,
			"source":3
		},
		{
			"sampler":0,
			"source":4
		},
		{
			"sampler":0,
			"source":5
		},
		{
			"sampler":0,
			"source":6
		},
		{
			"sampler":0,
			"source":7
		},
		{
			"sampler":0,
			"source":8
		},
		{
			"sampler":0,
			"source":9
		},
		{
			"sampler":0,
			"source":10
		}
	],
	"images":[
		{
			"bufferView":4,
			"mimeType":"image/png",
			"name":"robot_robotOrange_BaseColor"
		},
		{
			"bufferView":5,
			"mimeType":"image/png",
			"name":"robot_robotOrange_OcclusionRoughnessMetallic"
		},
		{
			"bufferView":10,
			"mimeType":"image/png",
			"name":"robot_robotBase_BaseColor"
		},
		{
			"bufferView":15,
			"mimeType":"image/png",
			"name":"robot_robotMetal_BaseColor"
		},
		{
			"bufferView":20,
			"mimeType":"image/png",
			"name":"robot_robotYellow_BaseColor"
		},
		{
			"bufferView":21,
			"mimeType":"image/png",
			"name":"robot_robotYellow_OcclusionRoughnessMetallic"
		},
		{
			"bufferView":26,
			"mimeType":"image/png",
			"name":"robot_robotRed_OcclusionRoughnessMetallic"
		},
		{
			"bufferView":31,
			"mimeType":"image/png",
			"name":"robot_robotBlack_BaseColor"
		},
		{
			"bufferView":32,
			"mimeType":"image/png",
			"name":"robot_robotBlack_OcclusionRoughnessMetallic"
		},
		{
			"bufferView":37,
			"mimeType":"image/png",
			"name":"robot_robotSpinner_BaseColor"
		},
		{
			"bufferView":38,
			"mimeType":"image/png",
			"name":"robot_robotSpinner_OcclusionRoughnessMetallic"
		}
	],
	"accessors":[
		{
			"bufferView":0,
			"componentType":5126,
			"count":716,
			"max":[
				5.39274787902832,
				3.651388168334961,
				-12.223589897155762
			],
			"min":[
				-5.536746978759766,
				-1.8386859893798828,
				-24.459632873535156
			],
			"type":"VEC3"
		},
		{
			"bufferView":1,
			"componentType":5126,
			"count":716,
			"type":"VEC3"
		},
		{
			"bufferView":2,
			"componentType":5126,
			"count":716,
			"type":"VEC2"
		},
		{
			"bufferView":3,
			"componentType":5123,
			"count":1890,
			"type":"SCALAR"
		},
		{
			"bufferView":6,
			"componentType":5126,
			"count":1970,
			"max":[
				5.236967086791992,
				3.5307834148406982,
				-2.4491758346557617
			],
			"min":[
				-5.3809661865234375,
				-3.5307834148406982,
				-23.82375717163086
			],
			"type":"VEC3"
		},
		{
			"bufferView":7,
			"componentType":5126,
			"count":1970,
			"type":"VEC3"
		},
		{
			"bufferView":8,
			"componentType":5126,
			"count":1970,
			"type":"VEC2"
		},
		{
			"bufferView":9,
			"componentType":5123,
			"count":4902,
			"type":"SCALAR"
		},
		{
			"bufferView":11,
			"componentType":5126,
			"count":258,
			"max":[
				2.784482955932617,
				2.7307841777801514,
				-2.4491758346557617
			],
			"min":[
				-2.869866371154785,
				-2.7307841777801514,
				-24.459632873535156
			],
			"type":"VEC3"
		},
		{
			"bufferView":12,
			"componentType":5126,
			"count":258,
			"type":"VEC3"
		},
		{
			"bufferView":13,
			"componentType":5126,
			"count":258,
			"type":"VEC2"
		},
		{
			"bufferView":14,
			"componentType":5123,
			"count":522,
			"type":"SCALAR"
		},
		{
			"bufferView":16,
			"componentType":5126,
			"count":300,
			"max":[
				5.385065078735352,
				3.709789752960205,
				-12.447222709655762
			],
			"min":[
				-5.529064178466797,
				-2.3407509326934814,
				-22.408735275268555
			],
			"type":"VEC3"
		},
		{
			"bufferView":17,
			"componentType":5126,
			"count":300,
			"type":"VEC3"
		},
		{
			"bufferView":18,
			"componentType":5126,
			"count":300,
			"type":"VEC2"
		},
		{
			"bufferView":19,
			"componentType":5123,
			"count":732,
			"type":"SCALAR"
		},
		{
			"bufferView":22,
			"componentType":5126,
			"count":1947,
			"max":[
				5.385065078735352,
				3.3057427406311035,
				-1.2176120281219482
			],
			"min":[
				-5.529064178466797,
				-2.1698036193847656,
				-24.815326690673828
			],
			"type":"VEC3"
		},
		{
			"bufferView":23,
			"componentType":5126,
			"count":1947,
			"type":"VEC3"
		},
		{
			"bufferView":24,
			"componentType":5126,
			"count":1947,
			"type":"VEC2"
		},
		{
			"bufferView":25,
			"componentType":5123,
			"count":7026,
			"type":"SCALAR"
		},
		{
			"bufferView":27,
			"componentType":5126,
			"count":267,
			"max":[
				2.213970184326172,
				4.315072536468506,
				-13.50794506072998
			],
			"min":[
				-2.249166965484619,
				1.7489562034606934,
				-18.17824363708496
			],
			"type":"VEC3"
		},
		{
			"bufferView":28,
			"componentType":5126,
			"count":267,
			"type":"VEC3"
		},
		{
			"bufferView":29,
			"componentType":5126,
			"count":267,
			"type":"VEC2"
		},
		{
			"bufferView":30,
			"componentType":5123,
			"count":624,
			"type":"SCALAR"
		},
		{
			"bufferView":33,
			"componentType":5126,
			"count":36,
			"max":[
				2.1139702796936035,
				4.131904125213623,
				-13.704992294311523
			],
			"min":[
				-2.149167060852051,
				3.574402093887329,
				-18.00338363647461
			],
			"type":"VEC3"
		},
		{
			"bufferView":34,
			"componentType":5126,
			"count":36,
			"type":"VEC3"
		},
		{
			"bufferView":35,
			"componentType":5126,
			"count":36,
			"type":"VEC2"
		},
		{
			"bufferView":36,
			"componentType":5123,
			"count":96,
			"type":"SCALAR"
		},
		{
			"bufferView":39,
			"componentType":5126,
			"count":40,
			"max":[
				1.6899746656417847,
				1.707980990409851,
				-21.383991241455078
			],
			"min":[
				-1.6414740085601807,
				1.707980990409851,
				-22.560606002807617
			],
			"type":"VEC3"
		},
		{
			"bufferView":40,
			"componentType":5126,
			"count":40,
			"type":"VEC3"
		},
		{
			"bufferView":41,
			"componentType":5126,
			"count":40,
			"type":"VEC2"
		},
		{
			"bufferView":42,
			"componentType":5123,
			"count":108,
			"type":"SCALAR"
		}
	],
	"bufferViews":[
		{
			"buffer":0,
			"byteLength":8592,
			"byteOffset":0,
			"target":34962
		},
		{
			"buffer":0,
			"byteLength":8592,
			"byteOffset":8592,
			"target":34962
		},
		{
			"buffer":0,
			"byteLength":5728,
			"byteOffset":17184,
			"target":34962
		},
		{
			"buffer":0,
			"byteLength":3780,
			"byteOffset":22912,
			"target":34963
		},
		{
			"buffer":0,
			"byteLength":87921,
			"byteOffset":26692
		},
		{
			"buffer":0,
			"byteLength":158148,
			"byteOffset":114616
		},
		{
			"buffer":0,
			"byteLength":23640,
			"byteOffset":272764,
			"target":34962
		},
		{
			"buffer":0,
			"byteLength":23640,
			"byteOffset":296404,
			"target":34962
		},
		{
			"buffer":0,
			"byteLength":15760,
			"byteOffset":320044,
			"target":34962
		},
		{
			"buffer":0,
			"byteLength":9804,
			"byteOffset":335804,
			"target":34963
		},
		{
			"buffer":0,
			"byteLength":16905,
			"byteOffset":345608
		},
		{
			"buffer":0,
			"byteLength":3096,
			"byteOffset":362516,
			"target":34962
		},
		{
			"buffer":0,
			"byteLength":3096,
			"byteOffset":365612,
			"target":34962
		},
		{
			"buffer":0,
			"byteLength":2064,
			"byteOffset":368708,
			"target":34962
		},
		{
			"buffer":0,
			"byteLength":1044,
			"byteOffset":370772,
			"target":34963
		},
		{
			"buffer":0,
			"byteLength":187191,
			"byteOffset":371816
		},
		{
			"buffer":0,
			"byteLength":3600,
			"byteOffset":559008,
			"target":34962
		},
		{
			"buffer":0,
			"byteLength":3600,
			"byteOffset":562608,
			"target":34962
		},
		{
			"buffer":0,
			"byteLength":2400,
			"byteOffset":566208,
			"target":34962
		},
		{
			"buffer":0,
			"byteLength":1464,
			"byteOffset":568608,
			"target":34963
		},
		{
			"buffer":0,
			"byteLength":84673,
			"byteOffset":570072
		},
		{
			"buffer":0,
			"byteLength":119624,
			"byteOffset":654748
		},
		{
			"buffer":0,
			"byteLength":23364,
			"byteOffset":774372,
			"target":34962
		},
		{
			"buffer":0,
			"byteLength":23364,
			"byteOffset":797736,
			"target":34962
		},
		{
			"buffer":0,
			"byteLength":15576,
			"byteOffset":821100,
			"target":34962
		},
		{
			"buffer":0,
			"byteLength":14052,
			"byteOffset":836676,
			"target":34963
		},
		{
			"buffer":0,
			"byteLength":351434,
			"byteOffset":850728
		},
		{
			"buffer":0,
			"byteLength":3204,
			"byteOffset":1202164,
			"target":34962
		},
		{
			"buffer":0,
			"byteLength":3204,
			"byteOffset":1205368,
			"target":34962
		},
		{
			"buffer":0,
			"byteLength":2136,
			"byteOffset":1208572,
			"target":34962
		},
		{
			"buffer":0,
			"byteLength":1248,
			"byteOffset":1210708,
			"target":34963
		},
		{
			"buffer":0,
			"byteLength":12332,
			"byteOffset":1211956
		},
		{
			"buffer":0,
			"byteLength":298167,
			"byteOffset":1224288
		},
		{
			"buffer":0,
			"byteLength":432,
			"byteOffset":1522456,
			"target":34962
		},
		{
			"buffer":0,
			"byteLength":432,
			"byteOffset":1522888,
			"target":34962
		},
		{
			"buffer":0,
			"byteLength":288,
			"byteOffset":1523320,
			"target":34962
		},
		{
			"buffer":0,
			"byteLength":192,
			"byteOffset":1523608,
			"target":34963
		},
		{
			"buffer":0,
			"byteLength":69553,
			"byteOffset":1523800
		},
		{
			"buffer":0,
			"byteLength":110709,
			"byteOffset":1593356
		},
		{
			"buffer":0,
			"byteLength":480,
			"byteOffset":1704068,
			"target":34962
		},
		{
			"buffer":0,
			"byteLength":480,
			"byteOffset":1704548,
			"target":34962
		},
		{
			"buffer":0,
			"byteLength":320,
			"byteOffset":1705028,
			"target":34962
		},
		{
			"buffer":0,
			"byteLength":216,
			"byteOffset":1705348,
			"target":34963
		}
	],
	"samplers":[
		{
			"magFilter":9729,
			"minFilter":9987
		}
	],
	"buffers":[
		{
			"byteLength":1705564,
			"uri":"data:application/octet-stream;base64,"
		}
	]
}
