{
	"asset":{
		"generator":"Khronos glTF Blender I/O v4.3.47",
		"version":"2.0"
	},
	"scene":0,
	"scenes":[
		{
			"name":"Scene",
			"nodes":[
				0,
				1,
				2,
				3,
				4
			]
		}
	],
	"nodes":[
		{
			"mesh":0,
			"name":"windowFrame",
			"rotation":[
				0.7071067690849304,
				0,
				0,
				0.7071068286895752
			],
			"scale":[
				0.3636661469936371,
				0.3636661469936371,
				0.3636661469936371
			],
			"translation":[
				8.0306396484375,
				6.938912391662598,
				-7.0642900466918945
			]
		},
		{
			"mesh":1,
			"name":"curtainRod",
			"rotation":[
				0.7071067690849304,
				0,
				0,
				0.7071068286895752
			],
			"scale":[
				0.3636661469936371,
				0.3636661469936371,
				0.3636661469936371
			],
			"translation":[
				7.903409004211426,
				12.239113807678223,
				-6.483868598937988
			]
		},
		{
			"mesh":2,
			"name":"curtain",
			"rotation":[
				0.7071068286895752,
				0,
				0,
				0.7071068286895752
			],
			"scale":[
				0.23555636405944824,
				0.24814297258853912,
				0.4338580369949341
			],
			"translation":[
				6.1910247802734375,
				4.693225383758545,
				-6.37730073928833
			]
		},
		{
			"mesh":3,
			"name":"wallBack",
			"scale":[
				6.395339012145996,
				4.732168674468994,
				0.07654072344303131
			],
			"translation":[
				8.044782638549805,
				6.760540008544922,
				-7.546020984649658
			]
		},
		{
			"mesh":4,
			"name":"windowimage",
			"rotation":[
				0.7071068286895752,
				0,
				0,
				0.7071068286895752
			],
			"scale":[
				5.825613975524902,
				3.908395290374756,
				3.908395290374756
			],
			"translation":[
				8.035419464111328,
				6.839986324310303,
				-7.359302997589111
			]
		}
	],
	"materials":[
		{
			"doubleSided":true,
			"name":"windowFrame",
			"normalTexture":{
				"index":0
			},
			"pbrMetallicRoughness":{
				"baseColorTexture":{
					"index":1
				},
				"metallicRoughnessTexture":{
					"index":2
				}
			}
		},
		{
			"doubleSided":true,
			"name":"curtainRings",
			"normalTexture":{
				"index":3
			},
			"pbrMetallicRoughness":{
				"baseColorTexture":{
					"index":4
				},
				"metallicRoughnessTexture":{
					"index":5
				}
			}
		},
		{
			"doubleSided":true,
			"name":"windowRod",
			"normalTexture":{
				"index":6
			},
			"pbrMetallicRoughness":{
				"baseColorTexture":{
					"index":7
				},
				"metallicRoughnessTexture":{
					"index":8
				}
			}
		},
		{
			"doubleSided":true,
			"name":"curtainKnobs",
			"normalTexture":{
				"index":9
			},
			"pbrMetallicRoughness":{
				"baseColorTexture":{
					"index":10
				},
				"metallicRoughnessTexture":{
					"index":11
				}
			}
		},
		{
			"doubleSided":true,
			"name":"curtain",
			"normalTexture":{
				"index":12
			},
			"pbrMetallicRoughness":{
				"baseColorTexture":{
					"index":13
				},
				"metallicRoughnessTexture":{
					"index":14
				}
			}
		},
		{
			"doubleSided":true,
			"name":"wallsTesterMaterial",
			"normalTexture":{
				"index":15
			},
			"pbrMetallicRoughness":{
				"baseColorTexture":{
					"index":16
				},
				"metallicRoughnessTexture":{
					"index":17
				}
			}
		},
		{
			"doubleSided":true,
			"name":"windowLanscapeTexture",
			"pbrMetallicRoughness":{
				"baseColorTexture":{
					"index":18
				},
				"metallicFactor":0,
				"roughnessFactor":0.5
			}
		}
	],
	"meshes":[
		{
			"name":"Mesh.003",
			"primitives":[
				{
					"attributes":{
						"POSITION":0,
						"NORMAL":1,
						"TEXCOORD_0":2
					},
					"indices":3,
					"material":0
				}
			]
		},
		{
			"name":"Mesh.011",
			"primitives":[
				{
					"attributes":{
						"POSITION":4,
						"NORMAL":5,
						"TEXCOORD_0":6
					},
					"indices":7,
					"material":1
				},
				{
					"attributes":{
						"POSITION":8,
						"NORMAL":9,
						"TEXCOORD_0":10
					},
					"indices":11,
					"material":2
				},
				{
					"attributes":{
						"POSITION":12,
						"NORMAL":13,
						"TEXCOORD_0":14
					},
					"indices":15,
					"material":3
				}
			]
		},
		{
			"name":"Mesh.012",
			"primitives":[
				{
					"attributes":{
						"POSITION":16,
						"NORMAL":17,
						"TEXCOORD_0":18
					},
					"indices":19,
					"material":4
				}
			]
		},
		{
			"name":"Cube.001",
			"primitives":[
				{
					"attributes":{
						"POSITION":20,
						"NORMAL":21,
						"TEXCOORD_0":22
					},
					"indices":23,
					"material":5
				}
			]
		},
		{
			"name":"Plane.005",
			"primitives":[
				{
					"attributes":{
						"POSITION":24,
						"NORMAL":25,
						"TEXCOORD_0":26
					},
					"indices":27,
					"material":6
				}
			]
		}
	],
	"textures":[
		{
			"sampler":0,
			"source":0
		},
		{
			"sampler":0,
			"source":1
		},
		{
			"sampler":0,
			"source":2
		},
		{
			"sampler":0,
			"source":3
		},
		{
			"sampler":0,
			"source":4
		},
		{
			"sampler":0,
			"source":5
		},
		{
			"sampler":0,
			"source":6
		},
		{
			"sampler":0,
			"source":7
		},
		{
			"sampler":0,
			"source":8
		},
		{
			"sampler":0,
			"source":9
		},
		{
			"sampler":0,
			"source":10
		},
		{
			"sampler":0,
			"source":11
		},
		{
			"sampler":0,
			"source":12
		},
		{
			"sampler":0,
			"source":13
		},
		{
			"sampler":0,
			"source":14
		},
		{
			"sampler":0,
			"source":15
		},
		{
			"sampler":0,
			"source":16
		},
		{
			"sampler":0,
			"source":17
		},
		{
			"sampler":0,
			"source":18
		}
	],
	"images":[
		{
			"mimeType":"image/png",
			"name":"windowFrame_windowFrame_Normal",
			"uri":"windowFrame_windowFrame_Normal.png"
		},
		{
			"mimeType":"image/png",
			"name":"windowFrame_windowFrame_BaseColor",
			"uri":"windowFrame_windowFrame_BaseColor.png"
		},
		{
			"mimeType":"image/png",
			"name":"windowFrame_windowFrame_Metallic-windowFrame_windowFrame_Roughness",
			"uri":"windowFrame_windowFrame_Metallic-windowFrame_windowFrame_Roughness.png"
		},
		{
			"mimeType":"image/png",
			"name":"curtainRod_curtainRings_Normal",
			"uri":"curtainRod_curtainRings_Normal.png"
		},
		{
			"mimeType":"image/png",
			"name":"curtainRod_curtainRings_BaseColor",
			"uri":"curtainRod_curtainRings_BaseColor.png"
		},
		{
			"mimeType":"image/png",
			"name":"curtainRod_curtainRings_Metallic-curtainRod_curtainRings_Roughness",
			"uri":"curtainRod_curtainRings_Metallic-curtainRod_curtainRings_Roughness.png"
		},
		{
			"mimeType":"image/png",
			"name":"curtainRod_windowRod_Normal",
			"uri":"curtainRod_windowRod_Normal.png"
		},
		{
			"mimeType":"image/png",
			"name":"curtainRod_windowRod_BaseColor",
			"uri":"curtainRod_windowRod_BaseColor.png"
		},
		{
			"mimeType":"image/png",
			"name":"curtainRod_windowRod_Metallic-curtainRod_windowRod_Roughness",
			"uri":"curtainRod_windowRod_Metallic-curtainRod_windowRod_Roughness.png"
		},
		{
			"mimeType":"image/png",
			"name":"curtainRod_curtainKnobs_Normal",
			"uri":"curtainRod_curtainKnobs_Normal.png"
		},
		{
			"mimeType":"image/png",
			"name":"curtainRod_curtainKnobs_BaseColor",
			"uri":"curtainRod_curtainKnobs_BaseColor.png"
		},
		{
			"mimeType":"image/png",
			"name":"curtainRod_curtainKnobs_Metallic-curtainRod_curtainKnobs_Roughness",
			"uri":"curtainRod_curtainKnobs_Metallic-curtainRod_curtainKnobs_Roughness.png"
		},
		{
			"mimeType":"image/png",
			"name":"curtain_curtain_Normal",
			"uri":"curtain_curtain_Normal.png"
		},
		{
			"mimeType":"image/png",
			"name":"curtain_curtain_BaseColor",
			"uri":"curtain_curtain_BaseColor.png"
		},
		{
			"mimeType":"image/png",
			"name":"curtain_curtain_Metallic-curtain_curtain_Roughness",
			"uri":"curtain_curtain_Metallic-curtain_curtain_Roughness.png"
		},
		{
			"mimeType":"image/png",
			"name":"wallBack_wallsTesterMaterial_Normal",
			"uri":"wallBack_wallsTesterMaterial_Normal.png"
		},
		{
			"mimeType":"image/png",
			"name":"wallBack_wallsTesterMaterial_BaseColor",
			"uri":"wallBack_wallsTesterMaterial_BaseColor.png"
		},
		{
			"mimeType":"image/png",
			"name":"wallBack_wallsTesterMaterial_Metallic-wallBack_wallsTesterMaterial_Roughness",
			"uri":"wallBack_wallsTesterMaterial_Metallic-wallBack_wallsTesterMaterial_Roughness.png"
		},
		{
			"mimeType":"image/jpeg",
			"name":"windowLandscape",
			"uri":"windowLandscape.jpg"
		}
	],
	"accessors":[
		{
			"bufferView":0,
			"componentType":5126,
			"count":444,
			"max":[
				17.109678268432617,
				1.1140578985214233,
				12.702707290649414
			],
			"min":[
				-17.096168518066406,
				-0.8859420418739319,
				-11.98753547668457
			],
			"type":"VEC3"
		},
		{
			"bufferView":1,
			"componentType":5126,
			"count":444,
			"type":"VEC3"
		},
		{
			"bufferView":2,
			"componentType":5126,
			"count":444,
			"type":"VEC2"
		},
		{
			"bufferView":3,
			"componentType":5123,
			"count":936,
			"type":"SCALAR"
		},
		{
			"bufferView":4,
			"componentType":5126,
			"count":2080,
			"max":[
				-0.3417987823486328,
				1.9529218673706055,
				2.110454559326172
			],
			"min":[
				-12.311326026916504,
				-0.1403656005859375,
				0.10361099988222122
			],
			"type":"VEC3"
		},
		{
			"bufferView":5,
			"componentType":5126,
			"count":2080,
			"type":"VEC3"
		},
		{
			"bufferView":6,
			"componentType":5126,
			"count":2080,
			"type":"VEC2"
		},
		{
			"bufferView":7,
			"componentType":5123,
			"count":9600,
			"type":"SCALAR"
		},
		{
			"bufferView":8,
			"componentType":5126,
			"count":264,
			"max":[
				18.87516212463379,
				0.9732704162597656,
				0.9762306213378906
			],
			"min":[
				-17.90915870666504,
				-3.1932716369628906,
				0.4466056823730469
			],
			"type":"VEC3"
		},
		{
			"bufferView":9,
			"componentType":5126,
			"count":264,
			"type":"VEC3"
		},
		{
			"bufferView":10,
			"componentType":5126,
			"count":264,
			"type":"VEC2"
		},
		{
			"bufferView":11,
			"componentType":5123,
			"count":684,
			"type":"SCALAR"
		},
		{
			"bufferView":12,
			"componentType":5126,
			"count":336,
			"max":[
				19.256494522094727,
				1.2836055755615234,
				1.28656005859375
			],
			"min":[
				-18.155855178833008,
				0.13332176208496094,
				0.1362762451171875
			],
			"type":"VEC3"
		},
		{
			"bufferView":13,
			"componentType":5126,
			"count":336,
			"type":"VEC3"
		},
		{
			"bufferView":14,
			"componentType":5126,
			"count":336,
			"type":"VEC2"
		},
		{
			"bufferView":15,
			"componentType":5123,
			"count":936,
			"type":"SCALAR"
		},
		{
			"bufferView":16,
			"componentType":5126,
			"count":910,
			"max":[
				8.784656524658203,
				1.6437015533447266,
				16.79716682434082
			],
			"min":[
				-13.276691436767578,
				-0.3444499969482422,
				-16.19007110595703
			],
			"type":"VEC3"
		},
		{
			"bufferView":17,
			"componentType":5126,
			"count":910,
			"type":"VEC3"
		},
		{
			"bufferView":18,
			"componentType":5126,
			"count":910,
			"type":"VEC2"
		},
		{
			"bufferView":19,
			"componentType":5123,
			"count":4488,
			"type":"SCALAR"
		},
		{
			"bufferView":20,
			"componentType":5126,
			"count":24,
			"max":[
				1,
				1,
				1
			],
			"min":[
				-1,
				-1,
				-1
			],
			"type":"VEC3"
		},
		{
			"bufferView":21,
			"componentType":5126,
			"count":24,
			"type":"VEC3"
		},
		{
			"bufferView":22,
			"componentType":5126,
			"count":24,
			"type":"VEC2"
		},
		{
			"bufferView":23,
			"componentType":5123,
			"count":36,
			"type":"SCALAR"
		},
		{
			"bufferView":24,
			"componentType":5126,
			"count":4,
			"max":[
				1,
				0,
				1
			],
			"min":[
				-1,
				0,
				-1
			],
			"type":"VEC3"
		},
		{
			"bufferView":25,
			"componentType":5126,
			"count":4,
			"type":"VEC3"
		},
		{
			"bufferView":26,
			"componentType":5126,
			"count":4,
			"type":"VEC2"
		},
		{
			"bufferView":27,
			"componentType":5123,
			"count":6,
			"type":"SCALAR"
		}
	],
	"bufferViews":[
		{
			"buffer":0,
			"byteLength":5328,
			"byteOffset":0,
			"target":34962
		},
		{
			"buffer":0,
			"byteLength":5328,
			"byteOffset":5328,
			"target":34962
		},
		{
			"buffer":0,
			"byteLength":3552,
			"byteOffset":10656,
			"target":34962
		},
		{
			"buffer":0,
			"byteLength":1872,
			"byteOffset":14208,
			"target":34963
		},
		{
			"buffer":0,
			"byteLength":24960,
			"byteOffset":16080,
			"target":34962
		},
		{
			"buffer":0,
			"byteLength":24960,
			"byteOffset":41040,
			"target":34962
		},
		{
			"buffer":0,
			"byteLength":16640,
			"byteOffset":66000,
			"target":34962
		},
		{
			"buffer":0,
			"byteLength":19200,
			"byteOffset":82640,
			"target":34963
		},
		{
			"buffer":0,
			"byteLength":3168,
			"byteOffset":101840,
			"target":34962
		},
		{
			"buffer":0,
			"byteLength":3168,
			"byteOffset":105008,
			"target":34962
		},
		{
			"buffer":0,
			"byteLength":2112,
			"byteOffset":108176,
			"target":34962
		},
		{
			"buffer":0,
			"byteLength":1368,
			"byteOffset":110288,
			"target":34963
		},
		{
			"buffer":0,
			"byteLength":4032,
			"byteOffset":111656,
			"target":34962
		},
		{
			"buffer":0,
			"byteLength":4032,
			"byteOffset":115688,
			"target":34962
		},
		{
			"buffer":0,
			"byteLength":2688,
			"byteOffset":119720,
			"target":34962
		},
		{
			"buffer":0,
			"byteLength":1872,
			"byteOffset":122408,
			"target":34963
		},
		{
			"buffer":0,
			"byteLength":10920,
			"byteOffset":124280,
			"target":34962
		},
		{
			"buffer":0,
			"byteLength":10920,
			"byteOffset":135200,
			"target":34962
		},
		{
			"buffer":0,
			"byteLength":7280,
			"byteOffset":146120,
			"target":34962
		},
		{
			"buffer":0,
			"byteLength":8976,
			"byteOffset":153400,
			"target":34963
		},
		{
			"buffer":0,
			"byteLength":288,
			"byteOffset":162376,
			"target":34962
		},
		{
			"buffer":0,
			"byteLength":288,
			"byteOffset":162664,
			"target":34962
		},
		{
			"buffer":0,
			"byteLength":192,
			"byteOffset":162952,
			"target":34962
		},
		{
			"buffer":0,
			"byteLength":72,
			"byteOffset":163144,
			"target":34963
		},
		{
			"buffer":0,
			"byteLength":48,
			"byteOffset":163216,
			"target":34962
		},
		{
			"buffer":0,
			"byteLength":48,
			"byteOffset":163264,
			"target":34962
		},
		{
			"buffer":0,
			"byteLength":32,
			"byteOffset":163312,
			"target":34962
		},
		{
			"buffer":0,
			"byteLength":12,
			"byteOffset":163344,
			"target":34963
		}
	],
	"samplers":[
		{
			"magFilter":9729,
			"minFilter":9987
		}
	],
	"buffers":[
		{
			"byteLength":163356,
			"uri":"window.bin"
		}
	]
}
